<?xml version="1.0" encoding="utf-8"?>
<!-- Generator: Adobe Illustrator 25.1.0, SVG Export Plug-In . SVG Version: 6.00 Build 0)  -->
<svg version="1.1" id="Layer_1" xmlns="http://www.w3.org/2000/svg" xmlns:xlink="http://www.w3.org/1999/xlink" x="0px" y="0px"
	 viewBox="0 0 64 64" style="enable-background:new 0 0 64 64;" xml:space="preserve">
<circle style="fill:#586440;" cx="32" cy="32" r="32"/>
<path style="fill:#B8CC7A;" d="M51.8,18.2c-0.2-0.4-0.5-0.6-0.9-0.6h-4.4v-4.4c0-0.4-0.2-0.8-0.6-0.9c-0.4-0.2-0.8-0.1-1.1,0.2
	l-3.5,3.5c-2.7-1.6-5.9-2.4-9.2-2.4c-10.2,0-18.5,8.2-18.5,18.5S21.8,50.4,32,50.4S50.5,42.2,50.5,32c0-3.4-0.8-6.5-2.4-9.3l3.5-3.5
	C51.8,19,51.9,18.5,51.8,18.2z M39.1,32c0,3.9-3.2,7.1-7.1,7.1C28.1,39,25,35.9,25,32s3.2-7.1,7.1-7.1c1.6,0,3.1,0.5,4.2,1.4
	l-4.9,4.9c-0.4,0.4-0.4,1,0,1.4c0.4,0.4,1,0.4,1.4,0l4.9-4.9C38.6,28.9,39.1,30.4,39.1,32z M48.5,32c0,9.1-7.3,16.5-16.5,16.5
	c-9.1,0-16.5-7.3-16.5-16.5c0-9.1,7.3-16.5,16.5-16.5c2.9,0,5.5,0.7,7.8,1.9l-0.4,0.4c-0.2,0.2-0.3,0.4-0.3,0.6l0,0.1v5l-1.4,1.4
	c-1.6-1.2-3.5-2-5.7-2C27,22.9,23,27,23,32C23,37,27,41,32,41c5,0,9.1-4.1,9.1-9.1c0-2.1-0.7-4.1-2-5.7l1.4-1.4h5
	c0.3,0,0.5-0.1,0.7-0.3l0.4-0.4C47.8,26.5,48.5,29.1,48.5,32z M45,22.9h-4v-4l3.4-3.4v3c0,0.6,0.4,1,1,1h3L45,22.9z"/>
</svg>
