<?xml version="1.0" encoding="utf-8"?>
<!-- Generator: Adobe Illustrator 25.1.0, SVG Export Plug-In . SVG Version: 6.00 Build 0)  -->
<svg version="1.1" id="Layer_1" xmlns="http://www.w3.org/2000/svg" xmlns:xlink="http://www.w3.org/1999/xlink" x="0px" y="0px"
	 viewBox="0 0 64 64" style="enable-background:new 0 0 64 64;" xml:space="preserve">
<circle style="fill:#586440;" cx="32" cy="32" r="32"/>
<path style="fill:#B8CC7A;" d="M52.5,32c0,1.7-0.2,3-0.7,4.2c-0.5,1.1-1.2,2.1-2,3.1h0c-3.4,4.5-9.1,9.7-17.7,9.7
	c-8.5,0-14.3-5.2-17.7-9.6l-0.1-0.1c-0.8-1-1.5-2-2-3.1c-0.5-1.2-0.7-2.5-0.7-4.2c0-1.7,0.2-3,0.7-4.2c0.5-1.1,1.2-2.1,2-3.1v0
	c1-1.3,2.1-2.6,3.5-3.9c0.6-0.5,1.5-0.5,2,0.1c0.5,0.6,0.5,1.5-0.1,2.1c-1.2,1.1-2.2,2.3-3.1,3.5c-0.8,1.1-1.3,1.8-1.6,2.5
	c-0.3,0.7-0.5,1.5-0.5,3s0.2,2.3,0.5,3c0.3,0.7,0.8,1.4,1.6,2.5c3.1,4.1,8.1,8.6,15.5,8.6c7.3,0,12.4-4.5,15.5-8.6
	c0.8-1.1,1.3-1.8,1.6-2.5c0.3-0.7,0.5-1.5,0.5-3s-0.2-2.3-0.5-3c-0.3-0.7-0.8-1.4-1.6-2.5c-3.1-4.1-8.1-8.6-15.5-8.6
	c-1.9,0-3.7,0.3-5.3,0.8l0,0c-0.7,0.2-1.5-0.2-1.8-1c-0.2-0.8,0.2-1.6,0.9-1.8l0.2-0.1c1.8-0.6,3.8-0.9,6-0.9
	c8.6,0,14.4,5.3,17.7,9.7l0,0c0.8,1,1.5,2,2,3.1C52.2,29,52.5,30.3,52.5,32z M31.4,38.8c-4.1,0-7.4-3.1-7.4-6.8
	c0-3.8,3.3-6.8,7.4-6.8s7.4,3.1,7.4,6.8C38.8,35.8,35.5,38.8,31.4,38.8z M31.4,36.1c2.5,0,4.4-1.8,4.4-4.1c0-2.3-2-4.1-4.4-4.1
	C29,27.9,27,29.7,27,32C27,34.3,29,36.1,31.4,36.1z"/>
</svg>
