<?xml version="1.0" encoding="utf-8"?>
<!-- Generator: Adobe Illustrator 25.1.0, SVG Export Plug-In . SVG Version: 6.00 Build 0)  -->
<svg version="1.1" id="Layer_1" xmlns="http://www.w3.org/2000/svg" xmlns:xlink="http://www.w3.org/1999/xlink" x="0px" y="0px"
	 viewBox="0 0 164 164" style="enable-background:new 0 0 164 164;" xml:space="preserve">
<path style="opacity:0.7;fill:#FFFFFF;" d="M78,82H65.3v-8.1H78V61.1h8.1V74h12.7v8H86.1v12.9H78V82z M164,106.7v8.2
	c0,2.7-2.2,4.8-4.8,4.8h-3.6v9c0,10-8,18.1-17.9,18.1H26.3c-9.9,0-17.9-8.1-17.9-18.1v-9H4.8c-2.6,0-4.8-2.2-4.8-4.8v-8.2
	c0-2.7,2.2-4.8,4.8-4.8h3.6V60.5c0-12,9.6-21.7,21.5-21.7h24.3v-6.5c0-8.4,6.8-15.2,15.1-15.2h25.1c8.3,0,15.1,6.8,15.1,15.2v6.5
	h24.8c11.8,0,21.5,9.7,21.5,21.7v41.3h3.6C161.8,101.9,164,104.1,164,106.7z M60.7,38.9h42.1v-6.5c0-4.8-3.8-8.6-8.5-8.6H69.2
	c-4.7,0-8.5,3.9-8.5,8.6C60.7,32.4,60.7,38.9,60.7,38.9z M12.7,60.5v41.3h138.7V60.5c0-9.6-7.7-17.5-17.2-17.5H29.9
	C20.4,43.1,12.7,50.9,12.7,60.5z M151.4,119.7H12.7v9c0,7.6,6.1,13.8,13.7,13.8h111.4c7.5,0,13.7-6.2,13.7-13.8v-9H151.4z
	 M159.8,106.7c0-0.3-0.3-0.6-0.6-0.6h-5.7h-2.1H12.7h-2.1H4.8c-0.3,0-0.6,0.3-0.6,0.6v8.2c0,0.3,0.3,0.6,0.6,0.6h154.4
	c0.3,0,0.6-0.3,0.6-0.6V106.7z"/>
</svg>
