<?xml version="1.0" encoding="utf-8"?>
<!-- Generator: Adobe Illustrator 25.1.0, SVG Export Plug-In . SVG Version: 6.00 Build 0)  -->
<svg version="1.1" id="Layer_1" xmlns="http://www.w3.org/2000/svg" xmlns:xlink="http://www.w3.org/1999/xlink" x="0px" y="0px"
	 viewBox="0 0 164 164" style="enable-background:new 0 0 164 164;" xml:space="preserve">
<path style="fill:#586440;" d="M70.5,117.1l-5.4,5c-0.3,0.3-0.4,0.9-0.1,1.2c0.3,0.3,0.8,0.4,1.2,0l5.4-5c-0.2-0.2-0.4-0.4-0.6-0.6
	C70.9,117.5,70.7,117.3,70.5,117.1L70.5,117.1z M77.2,109c0.8-3.2-1-6.7-1.9-8c-1.4,0.7-4.7,2.7-5.5,5.8c-0.8,3.1,1.4,7.1,2.4,8.6
	C73.4,114.4,76.4,112,77.2,109L77.2,109z M80,112.1c-3.1,0.6-5.5,3.5-6.4,4.8c1.3,1.1,4.9,3.5,8,2.9c3.1-0.6,5.3-3.8,6.1-5.1
	C86.5,113.7,83.2,111.5,80,112.1L80,112.1z M84.8,102.5c0.3-1.2,0.2-2.4-0.1-3.5c0-0.1-0.1-0.3-0.1-0.4c-0.4-1.2-0.9-2.2-1.3-2.8
	c-1.2,0.6-3.9,2.3-4.6,4.9c-0.7,2.6,0.8,5.5,1.5,6.7C81.4,106.8,84.1,105.1,84.8,102.5L84.8,102.5z M90.5,105.5
	c-1.1-0.4-2.3-0.7-3.4-0.4c-2.6,0.5-4.4,3.1-5.1,4.3c1.1,0.8,3.8,2.6,6.4,2.1c2.6-0.5,4.4-3.1,5.1-4.3c-0.5-0.4-1.5-1-2.6-1.5
	C90.7,105.5,90.6,105.5,90.5,105.5L90.5,105.5z M91,96.9c0.1-0.2,0.1-0.5,0.1-0.7c0,0,0-0.1,0-0.1c0.1-1.8-0.8-3.7-1.4-4.6
	c-1.1,0.6-3.2,1.9-3.7,4c-0.6,2.1,0.6,4.4,1.2,5.5C88.3,100.2,90.4,98.9,91,96.9z M93.8,99.1c-0.2,0-0.5,0-0.7,0.1
	c-2.1,0.4-3.6,2.4-4.2,3.4c1,0.7,3.2,2.1,5.2,1.7c2.1-0.4,3.6-2.4,4.2-3.4c-0.9-0.6-2.6-1.7-4.4-1.8C93.9,99.1,93.8,99.1,93.8,99.1z
	 M94.7,91.9c-1.5,1.4-1.7,4-1.7,5.1c1.1,0.1,3.7,0.1,5.2-1.3c1.5-1.4,1.7-4,1.7-5.1C98.7,90.5,96.2,90.4,94.7,91.9z M128.5,134.7
	c-0.3-2.5-1.6-4.7-3.7-6.6c6.9-14.8,0.6-48.2-1.4-57.7c1.6-1.3,2.9-3,3.8-4.8c1.6-3.2,1.8-6.7,0.6-9.8l-4.1-12.9
	c-0.6-4.1-8.3-7-23-8.5L87.8,24c-3.4-2.7-8.1-2.7-11.5,0.1L63.6,34.5c-21.2,2.2-22.5,6.7-22.6,8.5l-3.2,10.3L37,55.8
	c-1.2,3.1-1,6.6,0.6,9.9c0.8,1.6,1.9,3,3.2,4.2c-1.6,7.2-8.7,42.9-1.6,58.5c-2.1,1.7-3.4,3.9-3.6,6.2c-0.2,0.9,0,2.2,1,3.4
	c1.6,1.9,4.6,2.8,9.3,2.7c3.9-0.1,8.4,0.2,13.7,0.5c6,0.4,12.8,0.8,20.5,0.8H84c8.4,0,15.2-0.4,21.2-0.8c4.9-0.3,9.1-0.6,12.9-0.5
	c4.7,0,7.7-0.8,9.3-2.7C128.4,136.8,128.6,135.4,128.5,134.7L128.5,134.7z M119.4,43.5c-0.4,0.5-1.7,1.3-4.7,2.3l-7.6-6.1
	C115.3,41,118.6,42.7,119.4,43.5z M78.9,27.4c1.8-1.5,4.4-1.5,6.2,0l24.5,19.8c-7.3,1.7-17.1,2.6-27.3,2.6
	c-11.6,0-20.9-1.2-27.4-2.6L78.9,27.4L78.9,27.4z M57.4,39.7l-7.4,6.1c-2.6-0.9-4.2-1.7-4.6-2.3C45.9,42.8,49.1,41.1,57.4,39.7z
	 M41,57.3l0.9-2.5l2.2-7.1c7.2,4.6,25.7,6.4,38.3,6.4c12.6,0,24.7-1.5,32.6-3.9c2.5-0.8,4.4-1.6,5.8-2.5l2.2,7.1l0.9,2.5
	c0.8,2,0.6,4.2-0.4,6.4c-1.4,2.8-4.2,5-7.6,5.9c-21.9,5.9-45,5.9-66.9,0c-3.4-0.9-6.1-3.1-7.6-5.9C40.3,61.6,40.1,59.3,41,57.3
	L41,57.3z M118.2,136.4c-4-0.1-8.3,0.2-13.3,0.5c-5.9,0.4-12.6,0.8-20.9,0.8h-4.1c-7.5,0-14.3-0.4-20.2-0.8c-5.3-0.3-9.9-0.6-14-0.6
	c-4.5,0.1-5.9-0.9-6-1.3c0.1-1.2,0.9-2.5,2-3.4c1.6-1.3,2.2-3.5,1.3-5.4c-6-13-0.4-44.1,1.5-53.8c1,0.5,2.1,0.9,3.3,1.2
	c11.3,3.1,22.9,4.6,34.5,4.6c11.6,0,23.2-1.5,34.5-4.6c0.9-0.2,1.7-0.6,2.6-0.9c2,10,7.4,40.6,1.4,53.5c-0.8,1.9-0.3,4,1.3,5.4
	c1.1,0.9,1.9,2.1,2.1,3.4C124.1,135.5,122.8,136.5,118.2,136.4z M67.7,45.7c0.9,0,1.6-0.7,1.6-1.6c0-0.9-0.7-1.6-1.6-1.6
	c-0.9,0-1.6,0.7-1.6,1.6C66.1,45,66.8,45.7,67.7,45.7z M72.8,45.3c0,0.9,0.7,1.6,1.6,1.6c0.9,0,1.6-0.7,1.6-1.6
	c0-0.9-0.7-1.6-1.6-1.6C73.6,43.7,72.8,44.4,72.8,45.3z M73.2,40.6c0.9,0,1.6-0.7,1.6-1.6c0-0.9-0.7-1.6-1.6-1.6s-1.6,0.7-1.6,1.6
	C71.7,39.8,72.4,40.6,73.2,40.6z M93.5,45.7c0.9,0,1.6-0.7,1.6-1.6c0-0.9-0.7-1.6-1.6-1.6s-1.6,0.7-1.6,1.6
	C91.9,45,92.6,45.7,93.5,45.7z M83.6,32.6c0.9,0,1.6-0.7,1.6-1.6c0-0.9-0.7-1.6-1.6-1.6S82,30.1,82,31C82,31.8,82.7,32.6,83.6,32.6z
	 M88.9,37.8c0.9,0,1.6-0.7,1.6-1.6c0-0.9-0.7-1.6-1.6-1.6c-0.9,0-1.6,0.7-1.6,1.6C87.3,37,88.1,37.8,88.9,37.8z M99.8,45.7
	c0.9,0,1.6-0.7,1.6-1.6c0-0.9-0.7-1.6-1.6-1.6s-1.6,0.7-1.6,1.6C98.2,45,99,45.7,99.8,45.7z"/>
</svg>
