<?xml version="1.0" encoding="utf-8"?>
<!-- Generator: Adobe Illustrator 25.1.0, SVG Export Plug-In . SVG Version: 6.00 Build 0)  -->
<svg version="1.1" id="Layer_1" xmlns="http://www.w3.org/2000/svg" xmlns:xlink="http://www.w3.org/1999/xlink" x="0px" y="0px"
	 viewBox="0 0 164 164" style="enable-background:new 0 0 164 164;" xml:space="preserve">
<path style="fill:#B8CC7A;" d="M143.1,110.1V40.8c0-1.2-1-2.2-2.2-2.2H24c-1.2,0-2.2,1-2.2,2.2v69.2c0,1.2,1,2.2,2.2,2.2h116.9
	C142.2,112.3,143.1,111.3,143.1,110.1z M138.7,107.8H26.2V43.1h112.5V107.8z M163.6,117.7c-0.6-1.1-1.7-1.8-3-1.8H152V40
	c0-6.1-5-11.1-11.1-11.1H24c-6.1,0-11.1,5-11.1,11.1v75.9H3.3c-1.3,0-2.4,0.7-3,1.8c-0.4,0.8-0.5,1.7-0.2,2.5
	c-0.2,2-0.1,7.6,4.2,11.5c0,0,0.1,0.1,0.1,0.1l0.3,0.2c2.5,2,5.6,3.1,8.8,3.1h136.9c3.2,0,6.3-1.1,8.8-3.1l0.3-0.2
	c0,0,0.1-0.1,0.1-0.1c4.3-3.9,4.3-9.5,4.2-11.5C164.1,119.4,164,118.5,163.6,117.7L163.6,117.7z M17.3,40c0-3.7,3-6.7,6.7-6.7h116.9
	c3.7,0,6.7,3,6.7,6.7v75.9h-46.6c-0.6,0-1.2,0.3-1.6,0.7l-3.3,3.5H68l-3.3-3.5c-0.4-0.4-1-0.7-1.6-0.7H17.3L17.3,40L17.3,40z
	 M156.7,128.4l-0.3,0.2c-1.7,1.4-3.8,2.1-6,2.1H13.5c-2.2,0-4.3-0.8-6-2.1l-0.2-0.2c-3.1-2.9-2.8-7.2-2.7-8.1h57.5
	c1.4,1.5,3.2,3.3,3.3,3.5c0.4,0.5,1,0.7,1.6,0.7H97c0.6,0,1.2-0.3,1.6-0.7l3.3-3.5h57.5C159.5,121.2,159.8,125.5,156.7,128.4
	L156.7,128.4z M53.9,62.1H35.5v4.4h18.4V62.1z M51.1,73.2H35.5v4.4h15.5V73.2z M77.7,62.1H59.3v4.4h18.4V62.1z"/>
</svg>
