<?xml version="1.0" encoding="utf-8"?>
<!-- Generator: Adobe Illustrator 25.1.0, SVG Export Plug-In . SVG Version: 6.00 Build 0)  -->
<svg version="1.1" id="Layer_1" xmlns="http://www.w3.org/2000/svg" xmlns:xlink="http://www.w3.org/1999/xlink" x="0px" y="0px"
	 viewBox="0 0 88 25" style="enable-background:new 0 0 88 25;" xml:space="preserve">
<rect style="fill:#CBDD92;" width="88" height="25"/>
<path style="fill:#7E9150;" d="M56.4,0l-5.2,15.3c-1.1,3.3-4.2,5.5-7.6,5.5c-3.5,0-6.5-2.2-7.6-5.5L30.8,0H13.1v2.2
	c0,6,4.9,11,11,11h2V8.7h-2c-2.8,0-5.3-1.8-6.2-4.4l0,0h9.8l4.2,12.4c1.7,5,6.4,8.3,11.7,8.3s10-3.4,11.7-8.3l4.2-12.3h9.8
	c-1,2.6-3.4,4.3-6.2,4.3h-2V13h2.1c6,0,11-4.9,11-11V0H56.4z"/>
</svg>
