<svg width="155" height="125" viewBox="0 0 155 125" fill="none" xmlns="http://www.w3.org/2000/svg">
<path d="M91.2393 112.898C93.2781 112.67 95.559 112.469 96.739 114.554C97.8355 116.491 96.4792 118.204 95.33 119.685C91.7545 124.286 87.0782 126.06 81.4112 124.373C78.5931 123.537 76.0216 123.519 73.1551 124.343C67.3603 126.003 62.4066 124.154 59.0601 119.567C57.9813 118.082 56.8189 116.439 57.748 114.576C58.6991 112.666 60.8347 112.982 62.7765 113.025C64.0579 113.223 65.6386 113.45 67.215 113.713C68.3423 113.902 69.3682 113.722 69.6589 112.504C69.9715 111.181 68.7738 111.062 67.9063 110.756C66.876 110.392 65.7091 110.23 64.8549 109.625C63.5823 108.727 62.3142 107.667 61.4467 106.401C60.4516 104.941 60.0597 103.062 61.1033 101.458C62.1997 99.7713 64.0403 100.117 65.6915 100.494C68.3203 101.09 70.9402 101.721 73.5293 102.462C76.0612 103.184 78.5359 103.141 81.059 102.462C83.7978 101.717 86.541 100.95 89.3239 100.415C93.0359 99.7012 94.5991 101.476 93.6303 105.086C93.1151 107.001 92.0363 108.53 90.2046 109.371C88.888 109.976 87.4349 110.291 86.1491 110.953C85.5987 111.238 84.7841 111.733 84.9338 112.64C85.154 113.249 85.6252 114.143 86.9682 113.744C88.3992 113.665 89.7995 113.074 91.2393 112.911M5.73197 29.2466C-0.652789 31.8974 -1.83287 37.9833 2.84342 43.2236C6.50255 47.3246 11.2713 49.2569 16.5156 50.177C23.6665 51.4345 29.4349 48.845 34.1684 43.5084C35.7756 41.6988 36.1278 41.6944 37.4488 43.8194C44.2387 54.7601 47.3562 67.9396 48.5099 80.6898C48.7565 83.3888 48.9062 86.101 48.9458 88.8088C48.9854 91.3588 48.7521 93.8869 49.1792 96.4238C49.2849 97.0504 49.5006 97.7689 50.0863 97.9968C52.0853 98.7767 53.4151 94.9867 53.9523 93.7073C54.7802 91.74 55.5067 89.7289 56.1584 87.6959C60.6982 73.5699 64.8637 51.4301 58.1266 40.1346C52.1866 30.1754 42.6095 31.4066 42.6095 23.4235C42.6095 19.765 50.5574 5.40678 59.8395 4.881C60.1522 4.86347 60.4252 4.6663 60.5132 4.36836C60.6541 3.9083 60.3107 3.43948 59.8263 3.4351C55.2689 3.39567 49.7516 3.1503 45.0709 5.0694C41.2841 6.62046 38.0169 9.08286 35.6831 12.4961C34.4986 14.2268 33.6268 16.1108 33.1248 18.1613C33.0632 18.4155 32.7505 20.6369 32.7505 20.6632C32.5127 22.7838 30.8923 23.2789 29.3864 23.6119C24.7498 24.6504 20.0382 25.3645 15.406 26.4161C12.1343 27.1566 8.82308 27.9584 5.73638 29.2378M149.266 29.2466C146.175 27.9672 142.868 27.1653 139.596 26.4249C134.964 25.3733 130.252 24.6591 125.616 23.6207C124.11 23.2833 122.489 22.7926 122.252 20.6719C122.252 20.6457 122.243 20.615 122.238 20.5887C122.252 20.5756 122.26 20.5712 122.26 20.5712C122.26 10.5288 112.309 3.40881 106.061 3.40881C100.636 3.40881 100.046 3.78562 94.762 3.78562C90.2662 3.78562 86.8185 0 82.4328 0C70.949 0 71.812 12.9824 66.8099 15.9224C66.1362 16.3167 66.1538 17.307 66.8496 17.6575C73.8596 21.1977 75.9291 11.9571 80.7992 10.4061C81.5918 10.152 82.468 10.5507 82.7938 11.313C83.8374 13.7886 83.0933 16.4613 80.557 19.283C80.0858 19.8088 80.4777 20.6413 81.1866 20.5975C89.5881 20.0717 93.3353 16.3386 101.411 16.3386C105.731 16.3386 108.293 19.9884 108.293 23.257C108.293 32.41 99.6188 34.1977 95.8011 40.139C87.0826 53.7085 93.4586 73.9248 98.8482 87.7002C99.6276 89.6894 100.226 91.7444 101.054 93.7117C101.591 94.9911 102.921 98.7767 104.92 98.0012C105.506 97.7733 105.722 97.0547 105.827 96.4282C106.255 93.8913 106.021 91.3632 106.061 88.8131C106.1 86.101 106.255 83.3932 106.497 80.6942C107.65 67.944 110.768 54.7644 117.558 43.8238C118.879 41.6988 119.231 41.6988 120.838 43.5127C125.576 48.845 131.34 51.4345 138.491 50.1814C143.735 49.2613 148.504 47.329 152.163 43.2279C156.839 37.992 155.664 31.9017 149.275 29.2509" fill="#636363"/>
</svg>
