<svg width="133" height="97" viewBox="0 0 133 97" fill="none" xmlns="http://www.w3.org/2000/svg">
<path d="M55.3994 87.1626C56.4476 87.3261 57.7391 87.5117 59.0306 87.7282C59.9549 87.8829 60.7953 87.7371 61.0297 86.7339C61.2862 85.6467 60.3088 85.5495 59.5967 85.2976C58.7563 84.9971 57.7966 84.8645 57.0978 84.3695C56.0584 83.6315 55.019 82.7609 54.3114 81.7179C53.4976 80.5203 53.1791 78.978 54.0283 77.6566C54.9261 76.2689 56.4299 76.5517 57.7833 76.8655C59.9328 77.356 62.0779 77.8731 64.1965 78.4786C66.2664 79.0752 68.292 79.0354 70.3575 78.4786C72.5955 77.8687 74.8423 77.2367 77.1201 76.7992C80.1586 76.2159 81.4368 77.6698 80.6451 80.6352C80.2205 82.2085 79.3404 83.4636 77.841 84.153C76.7618 84.648 75.5721 84.9087 74.5239 85.4523C74.0727 85.6865 73.4049 86.0931 73.5287 86.84C73.7056 87.3438 74.0948 88.0729 75.1961 87.7459C76.3682 87.684 77.5137 87.1935 78.6902 87.0609C80.3576 86.8753 82.2241 86.7074 83.1927 88.4221C84.0905 90.013 82.9804 91.4184 82.0383 92.6381C79.1104 96.4166 75.289 97.875 70.6494 96.4918C68.3451 95.8024 66.2398 95.7891 63.8913 96.4653C59.15 97.8308 55.0986 96.3106 52.3609 92.5409C51.4763 91.3212 50.5254 89.9733 51.2861 88.4397C52.0645 86.8709 53.8116 87.1272 55.3994 87.167M131.849 11.4638C129.659 8.60003 125.94 7.62336 122.614 6.77043C118.956 5.83353 114.732 5.29879 111.101 6.62459C107.594 7.9062 104.896 10.6329 101.614 12.3255C101.154 12.5642 100.583 12.4139 100.291 11.9852C100.159 11.7864 100.013 11.5963 99.8669 11.4107C93.6041 3.12005 85.9039 0.861774 81.3085 0.287261C80.3842 0.1591 79.2033 0.0353585 77.9825 3.83146e-06V0.0132618C77.9737 0.0618745 77.9781 0.114907 77.9781 0.163519C77.9737 0.782226 78.3717 1.26835 78.8937 1.55119C79.5084 1.88264 80.1497 2.17874 80.6628 2.66044C82.8963 4.74637 83.1927 8.44094 82.7902 11.2826C82.7371 11.6626 82.6708 12.0383 82.5912 12.4095C81.6491 16.7714 79.9949 20.5322 78.5266 24.6953C75.0988 34.4134 76.4036 45.1612 79.0219 54.8395C80.6893 61.0089 83.1617 66.8734 85.528 72.782C86.1427 74.3156 87.6509 75.2966 89.3007 75.2436C89.6235 75.2348 89.2608 61.7779 89.3007 60.6907C89.6678 50.6633 91.773 41.0114 96.0499 31.9253C96.4745 31.0237 96.9124 30.1266 97.3635 29.2383C98.0225 27.9346 99.6015 27.3955 100.92 28.0274C104.17 29.5786 106.828 30.8072 110.429 31.2359C111.477 31.3596 112.49 31.3905 113.467 31.3375C119.933 30.9707 125.002 26.8872 129.385 22.0171C131.928 19.1888 134.573 15.0434 131.844 11.4726M1.15294 11.4638C-1.57597 15.0346 1.0689 19.1799 3.61205 22.0083C7.99069 26.8784 13.0637 30.9619 19.5299 31.3287C20.5118 31.3817 21.5247 31.3552 22.5685 31.227C26.1642 30.7939 28.8268 29.5654 32.0732 28.0186C33.3912 27.391 34.9702 27.9302 35.6292 29.2295C36.0803 30.1178 36.5182 31.0149 36.9428 31.9164C41.2197 41.007 43.325 50.6588 43.6921 60.6819C43.7319 61.7691 43.3692 75.2259 43.6921 75.2348C45.3418 75.2878 46.8544 74.3023 47.4648 72.7732C49.8354 66.8601 52.3034 61.0001 53.9708 54.8307C56.5891 45.1524 57.8939 34.4045 54.4662 24.6864C52.9978 20.5234 51.3436 16.7625 50.4015 12.4007C50.3219 12.0294 50.2556 11.6494 50.2025 11.2737C49.8 8.4321 50.0964 4.73753 52.3299 2.65161C52.8474 2.1699 53.4843 1.8738 54.0991 1.54235C54.621 1.25951 55.019 0.773388 55.0146 0.154681C55.0146 0.106068 55.0146 0.0574552 55.0146 0.00442317V-0.00883484C53.7939 0.0265198 52.613 0.154681 51.6886 0.278422C47.0932 0.848516 39.393 3.11122 33.1303 11.4019C32.9843 11.5875 32.8383 11.7775 32.7057 11.9764C32.4137 12.4051 31.8432 12.5553 31.3832 12.3167C28.1059 10.6241 25.4035 7.89294 21.8962 6.61575C18.265 5.28995 14.0412 5.82469 10.3835 6.76159C7.05746 7.61452 3.33783 8.58677 1.14851 11.4549" fill="#636363"/>
</svg>
