<?xml version="1.0" encoding="utf-8"?>
<!-- Generator: Adobe Illustrator 25.1.0, SVG Export Plug-In . SVG Version: 6.00 Build 0)  -->
<svg version="1.1" id="Layer_1" xmlns="http://www.w3.org/2000/svg" xmlns:xlink="http://www.w3.org/1999/xlink" x="0px" y="0px"
	 viewBox="0 0 164 164" style="enable-background:new 0 0 164 164;" xml:space="preserve">
<path style="fill:#B8CC7A;" d="M104.6,52.8h-4.5c0,0,0,0,0,0h0c-1.4,0-2.5-1.1-2.5-2.5V38.8h4.7c1.1,0,2.1-0.9,2.1-2.1V23.1
	c0-1.1-0.9-2.1-2.1-2.1h-4.7v-7c0-1.1-0.9-2.1-2.1-2.1H68.4c-1.1,0-2.1,0.9-2.1,2.1v7h-4.7c-1.1,0-2.1,0.9-2.1,2.1v13.6
	c0,1.1,0.9,2.1,2.1,2.1h4.7v11.5c0,1.4-1.1,2.5-2.5,2.5h0c0,0,0,0,0,0h-4.5c-8.6,0-15.6,7-15.6,15.6v4.5c0,0,0,0,0,0v63.4
	c0,0,0,0,0,0v4.5c0,6.1,5,11.1,11.1,11.1h54.4c6.1,0,11.1-5,11.1-11.1V68.4C120.3,59.8,113.3,52.8,104.6,52.8z M93.5,16.1v5H70.5v-5
	H93.5z M63.7,34.6v-9.5h4.7h27.2h4.7v9.5H63.7z M47.8,75h68.4v59.3H47.8V75z M116.2,140.9c0,3.9-3.1,7-7,7H54.8c-3.9,0-7-3.1-7-7
	v-2.5h68.4V140.9z M116.2,70.9H47.8v-2.5c0-6.4,5.2-11.5,11.5-11.5h4.5c0,0,0,0,0,0h19c1.1,0,2.1-0.9,2.1-2.1c0-1.1-0.9-2.1-2.1-2.1
	H70c0.3-0.8,0.5-1.6,0.5-2.5V38.8h23.1v11.5c0,0.9,0.2,1.7,0.5,2.5h-3c-1.1,0-2.1,0.9-2.1,2.1c0,1.1,0.9,2.1,2.1,2.1h9.1
	c0,0,0,0,0,0h4.5c6.4,0,11.5,5.2,11.5,11.5V70.9z M77.5,109c1.2,0,2.1-1,2.1-2.1c0-1.2-1-2.1-2.1-2.1s-2.1,1-2.1,2.1
	C75.3,108.1,76.3,109,77.5,109z M86.5,109c1.2,0,2.1-1,2.1-2.1c0-1.2-1-2.1-2.1-2.1s-2.1,1-2.1,2.1C84.4,108.1,85.4,109,86.5,109z
	 M82,107.1c-1.1,0-2.1,0.9-2.1,2.1v2.3c0,1.1,0.9,2.1,2.1,2.1c1.1,0,2.1-0.9,2.1-2.1v-2.3C84.1,108,83.1,107.1,82,107.1z M98.8,98.1
	c1.5,0,2.8-0.6,3.9-1.6c1-1,1.6-2.4,1.6-3.9c0-1.5-0.6-2.8-1.6-3.9c-0.9-0.9-2-1.4-3.2-1.6c-0.1-1.2-0.7-2.3-1.6-3.2
	c-2.1-2.1-5.6-2.1-7.7,0c-1.6,1.6-2,4-1.2,6l-0.7,0.7c-1.9-1-4-1.6-6.3-1.6c-2.3,0-4.4,0.6-6.3,1.6L75,90c0.8-2,0.4-4.4-1.2-6
	c-2.1-2.1-5.6-2.1-7.7,0c-0.9,0.9-1.4,2.1-1.6,3.2c-1.2,0.1-2.4,0.7-3.2,1.6c-1,1-1.6,2.4-1.6,3.9c0,1.5,0.6,2.8,1.6,3.9
	c1,1,2.4,1.6,3.9,1.6c0.7,0,1.5-0.1,2.1-0.4l1.7,1.7c-0.2,1-0.4,2-0.4,3.1v5.7c0,0.7,0.1,1.4,0.3,2l-1.6,1.6
	c-0.7-0.3-1.4-0.4-2.1-0.4c-1.5,0-2.8,0.6-3.9,1.6c-1,1-1.6,2.4-1.6,3.9c0,1.5,0.6,2.8,1.6,3.9c0.9,0.9,2,1.4,3.2,1.6
	c0.1,1.2,0.7,2.3,1.6,3.2c1.1,1.1,2.5,1.6,3.9,1.6c1.4,0,2.8-0.5,3.9-1.6c1.4-1.4,1.9-3.5,1.4-5.4c0.3,0.2,0.7,0.3,1.1,0.3l11.3,0
	c0.4,0,0.8-0.1,1.1-0.3c-0.5,1.8-0.1,3.9,1.4,5.4c1.1,1.1,2.5,1.6,3.9,1.6c1.4,0,2.8-0.5,3.9-1.6c0.9-0.9,1.4-2.1,1.6-3.2
	c1.2-0.1,2.4-0.7,3.2-1.6c1-1,1.6-2.4,1.6-3.9c0-1.5-0.6-2.8-1.6-3.9c-1-1-2.4-1.6-3.9-1.6c-0.7,0-1.5,0.1-2.1,0.4l-1.6-1.6
	c0.2-0.6,0.3-1.3,0.3-2v-5.7c0-1-0.1-2.1-0.4-3.1l1.7-1.7C97.4,97.9,98.1,98.1,98.8,98.1z M66.1,93.6c-0.3,0.3-0.6,0.4-1,0.4
	c-0.4,0-0.7-0.1-1-0.4c-0.3-0.3-0.4-0.6-0.4-1c0-0.4,0.1-0.7,0.4-1s0.6-0.4,1-0.4c0.4,0,0.7,0.1,1,0.4c0.8,0.8,2.1,0.8,2.9,0
	c0.8-0.8,0.8-2.1,0-2.9c-0.5-0.5-0.5-1.4,0-1.9c0.5-0.5,1.4-0.5,1.9,0c0.5,0.5,0.5,1.4,0,1.9c-0.8,0.8-0.8,2.1,0,2.9l1.4,1.4
	c-0.6,0.7-1.2,1.4-1.7,2.1L69,93.6C68.2,92.8,66.9,92.8,66.1,93.6z M70.9,120.5c0.5,0.5,0.5,1.4,0,1.9c-0.5,0.5-1.4,0.5-1.9,0
	c-0.5-0.5-0.5-1.4,0-1.9c0.8-0.8,0.8-2.1,0-2.9c-0.8-0.8-2.1-0.8-2.9,0c-0.3,0.3-0.6,0.4-1,0.4c-0.4,0-0.7-0.1-1-0.4
	c-0.3-0.3-0.4-0.6-0.4-1c0-0.4,0.1-0.7,0.4-1c0.3-0.3,0.6-0.4,1-0.4c0.4,0,0.7,0.1,1,0.4c0.8,0.8,2.1,0.8,2.9,0l2-2
	c0.7,0.6,1.5,1.1,2.3,1.5l-2.4,2.4C70.1,118.4,70.1,119.7,70.9,120.5z M87.7,111.7c-1.1,0-2.1,0.9-2.1,2.1v1.4c0,0,0,0,0,0v1.1h-7.2
	v-2.5c0-1.1-0.9-2.1-2.1-2.1c-2,0-3.6-1.6-3.6-3.6v-5.7c0-5.1,4.2-9.3,9.3-9.3c5.1,0,9.3,4.2,9.3,9.3v5.7
	C91.3,110,89.7,111.7,87.7,111.7z M97.9,115.7c0.3-0.3,0.6-0.4,1-0.4s0.7,0.1,1,0.4c0.3,0.3,0.4,0.6,0.4,1c0,0.4-0.1,0.7-0.4,1
	c-0.3,0.3-0.6,0.4-1,0.4s-0.7-0.1-1-0.4c-0.8-0.8-2.1-0.8-2.9,0c-0.8,0.8-0.8,2.1,0,2.9c0.5,0.5,0.5,1.4,0,1.9
	c-0.5,0.5-1.4,0.5-1.9,0c-0.5-0.5-0.5-1.4,0-1.9c0.8-0.8,0.8-2.1,0-2.9l-2.4-2.4c0.9-0.4,1.6-0.9,2.3-1.5l2,2
	C95.8,116.5,97.1,116.5,97.9,115.7z M95,93.6l-1.7,1.7c-0.5-0.8-1-1.5-1.7-2.1l1.4-1.4c0.8-0.8,0.8-2.1,0-2.9
	c-0.5-0.5-0.5-1.4,0-1.9c0.5-0.5,1.4-0.5,1.9,0c0.5,0.5,0.5,1.4,0,1.9c-0.8,0.8-0.8,2.1,0,2.9c0.8,0.8,2.1,0.8,2.9,0
	c0.3-0.3,0.6-0.4,1-0.4s0.7,0.1,1,0.4c0.3,0.3,0.4,0.6,0.4,1c0,0.4-0.1,0.7-0.4,1c-0.3,0.3-0.6,0.4-1,0.4s-0.7-0.1-1-0.4
	C97.1,92.8,95.8,92.8,95,93.6z"/>
</svg>
