<?xml version="1.0" encoding="utf-8"?>
<!-- Generator: Adobe Illustrator 25.1.0, SVG Export Plug-In . SVG Version: 6.00 Build 0)  -->
<svg version="1.1" id="Layer_1" xmlns="http://www.w3.org/2000/svg" xmlns:xlink="http://www.w3.org/1999/xlink" x="0px" y="0px"
	 viewBox="0 0 164 164" style="enable-background:new 0 0 164 164;" xml:space="preserve">
<style type="text/css">
	.st0{fill:#FFFFFF;enable-background:new    ;}
</style>
<path class="st0" d="M139.4,30.4l-7.7-10.9l10.5,7.9C140.8,27.8,139.7,28.9,139.4,30.4z M142.2,27.5L142.2,27.5L142.2,27.5
	L142.2,27.5z M145.5,31.2c0-1.5-1.2-2.7-2.6-2.7c-1.4,0-2.6,1.2-2.6,2.7s1.2,2.7,2.6,2.7C144.4,33.8,145.5,32.6,145.5,31.2z
	 M146.5,52.3v79.5h0.5v23.4c0,0,0,0.1-0.1,0.1H0.1c0,0-0.1,0-0.1-0.1V143c0-6.2,4.8-11.2,10.8-11.2l0,0h13.4l0.2-2.7h-1.8v-23.6
	c1.3-1.9,2.2-3.7,2.9-5.4l0,0c3.7-9.3-0.6-16.5-2.1-26.5c-0.6-3.6-1-6.9-1.3-9.3c-2.4,2.8-0.8,14.4-0.6,22.1
	c0.2,9.2-0.3,12.5-0.3,12.5s2.1,6.7-0.9,10c-2.9,3.3-8.8,3-8.8,3l0,0c0,0,9.8-4.8,8.3-25.6c-1.3-18.2-1.4-24.7,2.9-25.8
	c0.4-0.8,1-1.5,1.8-1.9c0.8-0.5,1.8-0.8,2.7-0.8c0.1,0,0.3,0,0.4,0C31,58.4,39,59,46.4,59.6c16.4,1.1,34,0.2,42.4-0.4
	c1.7-0.1,3.4-0.3,5-0.4c1.3,1.7,3.5,4.1,5.5,4.8c2.3,0.7,3.9-1,4.8-2.2c-0.5,0.5-1.4,1.2-2.5,1.2c-0.5,0-1-0.1-1.5-0.5
	c-2.6-1.6-6.4-6.2-6.4-6.2c1.9-2,3.8-2.7,5.6-2.7c3.4,0,6.1,2.4,6.1,2.4l2.1-1.7c0.4-0.5,0.7-0.9,1.2-1.2c1.6-4.3,5.6-4.6,6.7-4.6
	c0.2,0,0.2,0,0.2,0s0.1,0,0.2,0c1,0,5.1,0.3,6.7,4.6c0.4,0.4,0.8,0.8,1.2,1.2l2.1,1.7c0,0,2.7-2.4,6.1-2.4c1.8,0,3.7,0.7,5.6,2.7
	c0,0-3.8,4.6-6.4,6.2c-0.5,0.3-1.1,0.5-1.5,0.5c-1.8,0-3-1.9-3-1.9l-3,2.1c0.7,2.4-0.8,4.9-0.8,4.9c0.2,6.4-2,9.5-2,9.5
	s1.3,5,1.1,5.6c-0.3,0.7-2.7,1.2-2.7,1.2c-0.6,0.7-1.4,0.9-2.2,0.9c-0.8,0-1.4-0.2-1.4-0.2s-0.6,0.2-1.4,0.2c-0.7,0-1.6-0.2-2.2-0.9
	c0,0-2.4-0.5-2.7-1.2c-0.3-0.7,1.1-5.6,1.1-5.6s-1.6-2.3-2-7.1c-0.6,3.3-0.3,5.6,0.2,6.6c-1.3,4.9-1,6.3-0.8,6.8
	c0.1,0.3,0.5,1.2,2.7,1.8c-0.6,1.8-1.1,4-1.6,6.7c-1.6,9.7-5.3,13.1-9.1,13.5l-3,11.2v10l4,5h38.9V52.5
	c-10.3-1.5-18.2-10.7-18.2-21.8c0-12.1,9.5-22,21.3-22c11.7,0,21.3,9.9,21.3,22C164,41.5,156.5,50.5,146.5,52.3z M109.2,56.7
	c0,0,5.3,5.9,5.3,11.2s-1.6,8.6-1.6,8.6s-1.1,4.3-1.1,4.5s0,0,0.2,0.4c0.2,0.3,3.6,1.1,3.6,1.1s3.4-0.7,3.6-1.1s0.2-0.2,0.2-0.4
	c0-0.2-1.1-4.5-1.1-4.5s-1.6-3.4-1.6-8.6c0-5.3,5.3-11.2,5.3-11.2s-2-5.6-6.4-6.6C111.2,51.1,109.2,56.7,109.2,56.7z M86.5,126.9
	l4,5h2.1v-4.1l-1.7-0.5l2-14.3l-2-2.2l-0.4-1.7l1.7-6.4c3.9-0.6,6.2-3.1,6.2-3.1c-2.4,1.5-7.5,1.4-7.5,1.4l-1.3,4.8l0,0L86.5,117
	V126.9z M57.4,102.9c-4.5,2.7-15.9,8-15.9,8s-1.4,3.1-1.6,3.7c-0.2,0.6,1.6,11.9,1.6,11.9l-0.3,1.9l3.3,3.4h37.9v-4.1l-1.7-0.5
	l2-14.3l-2-2.2l-0.8-8.4c-3.7,0.7-8.6,1.3-13.9,1.3C63.1,103.6,60.2,103.4,57.4,102.9z M31.8,131.9h5l0.2-2.7h-1.8v-19.4
	c1.6-1,3.7-2.4,5.5-3.5c5.1-3.3,5.4-7.5,5.4-7.5l6.9-3l-8.5,1.8c0,0,0.6,5-9.2,10.2c-3.5,1.7-6.4,3.1-6.4,3.1s-1.4,3.1-1.6,3.7
	s1.6,11.9,1.6,11.9l-0.3,1.9L31.8,131.9z M142.7,47.1c8.7,0,15.9-7.4,15.9-16.4c0-9.1-7.1-16.4-15.9-16.4c-8.7,0-15.9,7.4-15.9,16.4
	C126.8,39.7,134,47.1,142.7,47.1z"/>
</svg>
