<?xml version="1.0" encoding="utf-8"?>
<!-- Generator: Adobe Illustrator 25.1.0, SVG Export Plug-In . SVG Version: 6.00 Build 0)  -->
<svg version="1.1" id="Layer_1" xmlns="http://www.w3.org/2000/svg" xmlns:xlink="http://www.w3.org/1999/xlink" x="0px" y="0px"
	 viewBox="0 0 164 164" style="enable-background:new 0 0 164 164;" xml:space="preserve">
<path style="fill:#B8CC7A;" d="M66.2,26.2c1.4,0,2.6-1.2,2.6-2.6c0-1.4-1.2-2.6-2.6-2.6s-2.6,1.2-2.6,2.6
	C63.6,25,64.8,26.2,66.2,26.2z M58.7,30.2c1.4,0,2.6-1.2,2.6-2.6c0-1.4-1.2-2.6-2.6-2.6c-1.4,0-2.6,1.2-2.6,2.6
	C56.1,29.1,57.2,30.2,58.7,30.2z M60.4,24.5c1.4,0,2.6-1.2,2.6-2.6c0-1.4-1.2-2.6-2.6-2.6c-1.4,0-2.6,1.2-2.6,2.6
	C57.8,23.4,58.9,24.5,60.4,24.5z M64.6,26.5c-1.4,0-2.5,1.1-2.5,2.5c0,1.4,1.1,2.5,2.5,2.5c1.4,0,2.5-1.1,2.5-2.5
	C67.1,27.6,66,26.5,64.6,26.5z M70.7,30c1.4,0,2.5-1.1,2.5-2.5s-1.1-2.5-2.5-2.5c-1.4,0-2.5,1.1-2.5,2.5S69.4,30,70.7,30z
	 M69.1,32.9c0,1.4,1.1,2.5,2.5,2.5s2.5-1.1,2.5-2.5c0-1.4-1.1-2.5-2.5-2.5S69.1,31.5,69.1,32.9z M76.7,37.4c1.4,0,2.5-1.1,2.5-2.5
	c0-1.4-1.1-2.5-2.5-2.5c-1.4,0-2.5,1.1-2.5,2.5C74.2,36.3,75.3,37.4,76.7,37.4z M163.5,104.5c-0.2-0.2-5.4-5.9-11.7-6
	c-3-0.1-5.6,1.1-7.9,3.4c-0.2,0.2-0.8,0.9-1.3,2.1l-1.9,0c0.4-0.3,0.7-0.6,1-1c4.3-4.6,3.9-12.4,3.9-12.7c-0.1-1.1-0.9-2-2-2
	c-0.3,0-8-0.3-12.5,4c-0.7,0.7-1.3,1.4-1.8,2.2c-0.3-3.2-1.2-5.6-1.3-5.8c-0.4-1-1.5-1.6-2.6-1.3c-0.3,0.1-8,2.2-11.1,7.9
	c-0.4,0.6-0.6,1.3-0.8,2c-0.4-1.5-1-2.8-1.5-3.9c0.3-1-0.1-2.1-1-2.6c-0.1-0.1-1.2-0.6-2.8-1.2c0.4-0.1,0.9-0.3,1.3-0.4
	c5.8-2.3,8.7-9.4,8.9-9.7c0.4-1,0-2.2-1-2.7c-0.1-0.1-1.2-0.6-2.8-1.2c0.4-0.1,0.9-0.3,1.3-0.4c5.8-2.3,8.7-9.4,8.9-9.7
	c0.4-1,0-2.2-1-2.7c-0.3-0.2-7.2-3.8-13.1-1.8c-0.4,0.1-0.8,0.3-1.1,0.5l0.8-1.6c0.2,0,0.4,0,0.5,0c0.9,0,1.6-0.2,1.7-0.2
	c0,0,0.1,0,0.1,0c3-1.1,5.2-3.1,6.3-5.8c2.5-5.8-0.6-12.9-0.7-13.2c-0.4-1-1.6-1.5-2.6-1.2c-0.3,0.1-7.4,2.4-10.2,7.8
	c-0.8-0.8-1.9-1.4-3.1-1.7c-1.3-0.3-2.5-0.6-3.8-0.9L73.1,19.1c-7-7-18.3-7-25.2,0L22.3,44.7c-1.3,0.3-2.5,0.6-3.8,0.9
	c-3.3,0.9-5.5,4.1-5.1,7.4l1,8.7c0.2,1.9,1.3,3.7,2.9,4.8c0.4,0.3,0.8,0.5,1.2,0.7l-6,34L1.9,112c-0.3,0.3-0.5,0.8-0.6,1.2L0,122.8
	c-0.1,0.6,0.1,1.2,0.5,1.7c0.4,0.5,1,0.7,1.6,0.7h73.4l-9.5,20.6l-1.3,1.3l0.5,0.5l-0.1,0.2l0.4,0.2l2.2,2.2l0.8-0.8l0.4,0.2
	l0.5-1.2L91,126.9c1.2,2.6,3.1,4.4,5.6,5.3c1.3,0.5,2.7,0.7,4,0.7c4.1,0,7.9-1.8,8.1-1.9c1-0.5,1.4-1.6,1.1-2.7
	c0-0.1-0.3-0.8-0.9-1.9c1.4,0.3,2.8,0.4,4.1,0.4c2.6,0,4.7-0.5,4.8-0.5c0.7-0.2,1.2-0.6,1.5-1.2c0.4-0.1,0.9-0.3,1.2-0.7
	c0.4-0.5,0.6-1.1,0.5-1.7c2.6,1,5.3,1.2,7.1,1.2c1.2,0,2-0.1,2.1-0.1c1.1-0.1,1.9-1.1,1.9-2.2c0-0.1,0-0.5-0.1-1.3
	c3.9,3,9.4,3.3,11.1,3.3c0.3,0,0.5,0,0.5,0c1.1-0.1,2-0.9,2-2c0-0.3,0.4-8.1-3.9-12.7c-0.3-0.3-0.5-0.5-0.8-0.7l1.7,0
	c0.4,1.1,1,1.8,1.1,1.9c0,0,0.1,0.1,0.1,0.1c2.2,2.2,4.7,3.3,7.6,3.3c0.1,0,0.2,0,0.3,0c6.3-0.2,11.5-6,11.7-6.2
	C164.2,106.5,164.2,105.3,163.5,104.5L163.5,104.5z M141.3,119.4c-2.1-0.2-5.2-0.8-7.2-2.7c-1.3-1.2-1.9-2.8-1.9-4.8
	c0-0.1,0.1-0.6,0.5-1.1c0.5-0.4,1.1-0.6,1.2-0.6c2,0,3.5,0.6,4.7,1.9C140.5,114,141.1,117.2,141.3,119.4z M95,125.2
	c0-0.1-0.1-0.2-0.1-0.3c0,0-0.1-0.4,0.1-0.9c0.2-0.5,0.6-0.8,0.7-0.8c0.1,0,0.2-0.1,0.3-0.1c1.5-0.6,2.8-0.6,4.1,0c0,0,0,0,0.1,0
	c1.1,0.5,2,1.2,2.8,2.2c0.8,0.9,1.4,1.9,1.9,2.7c-1.8,0.6-4.5,1.1-6.7,0.3C96.7,127.7,95.7,126.7,95,125.2z M5.5,114.5l10.6-10.7
	c0.3-0.3,0.5-0.7,0.6-1.1l1.1-6.1c5.1,2.7,12.1,4,20.9,4c1.9,0,3.9-0.1,6-0.2l-0.3-4.3c-11.7,0.7-20.4-0.6-25.9-4l4.3-24.4
	c0,0,0,0,0,0c11.1-2.6,25.1-4.1,37.7-4.1c8.3,0,17.2,0.7,25.5,1.9c-0.8,1.9-3,7.4-1.3,12.4c0.2,0.4,0.3,0.9,0.5,1.3
	c-1.5-0.9-2.6-1.3-2.7-1.3c-1-0.4-2.2,0-2.7,1c-0.1,0.3-3.6,7.1-1.6,13c0.2,0.5,0.4,1,0.6,1.4c-1.5-0.9-2.7-1.3-2.8-1.4
	c-1-0.4-2.2,0-2.7,1c-0.1,0.3-3.6,7.1-1.6,13c1,2.8,2.9,4.9,5.9,6.3c0.2,0.1,1.1,0.5,2.3,0.5c0.4,0,0.9,0,1.5-0.2l-3.9,8.6H4.6
	L5.5,114.5L5.5,114.5z M17.9,51.4c0.3-0.7,0.9-1.3,1.7-1.6c0.3-0.1,0.6-0.1,0.9-0.2c2-0.5,4.1-1,6.1-1.4c10.9-2.3,22.4-3.5,33.9-3.5
	c11.4,0,23,1.2,33.9,3.5c2.1,0.4,4.1,0.9,6.1,1.4c0.3,0.1,0.6,0.1,0.9,0.2c0.8,0.2,1.4,0.8,1.7,1.6c0.1,0.4,0.2,0.8,0.2,1.2L103,55
	c-0.9-1-1.9-1.8-2.8-2.5c-1.4-1-2.7-1.7-3.6-2.2c-0.7-0.3-1.1-0.5-1.2-0.5c-0.8-0.3-1.7-0.1-2.3,0.5c-0.1,0.1-0.3,0.3-0.4,0.5
	c0,0.1-0.4,0.7-0.7,1.7c-0.1,0.4-0.3,0.8-0.4,1.3c-0.2,0.6-0.4,1.4-0.6,2.2c-0.2,0.7-0.3,1.4-0.4,2.2c-0.1,1.2-0.1,2.5,0.1,3.7
	c-9.6-1.6-20.4-2.5-30.2-2.5c-12.2,0-25.8,1.4-36.9,3.8c-0.6,0.1-1.2,0.3-1.8,0.4c-0.2,0-0.3,0.1-0.5,0.1c-0.5,0-1.1-0.1-1.5-0.5
	c-0.2-0.1-0.3-0.3-0.5-0.4c-0.3-0.4-0.5-0.8-0.6-1.3l-1-8.7C17.7,52.1,17.7,51.7,17.9,51.4L17.9,51.4z M70.1,22.2L91,43.1
	c-9.9-1.8-20.3-2.7-30.5-2.7S39.9,41.3,30,43.1l20.9-20.9C56.2,16.9,64.8,16.9,70.1,22.2L70.1,22.2z M115.1,44.5
	c0.6,2,1.1,5.3,0,7.8c-0.7,1.6-1.9,2.7-3.7,3.4c-0.2,0-0.8,0.1-1.4-0.1c-0.6-0.3-0.8-0.8-0.9-0.9c-0.7-1.9-0.7-3.6,0.1-5.2
	C110.5,47,113.2,45.4,115.1,44.5L115.1,44.5z M119.9,65.9c-1.1,1.8-2.9,4.4-5.5,5.4c-1.6,0.6-3.3,0.5-5.2-0.3
	c-0.1-0.1-0.5-0.3-0.8-0.9c-0.2-0.6-0.1-1.2,0-1.4c0.8-1.8,2-2.9,3.6-3.4C114.8,64.4,117.9,65.2,119.9,65.9L119.9,65.9z M124.6,92.3
	c0.5,2.2,1,5.7-0.3,8.4c-0.8,1.6-2.1,2.7-4.1,3.4c-0.1,0-0.8,0.1-1.5-0.2c-0.6-0.4-0.9-0.9-0.9-1c-0.6-2-0.5-3.8,0.4-5.5
	C119.6,94.8,122.6,93.2,124.6,92.3z M128.1,110.3c-0.3-0.3-0.6-0.6-0.9-0.9c-0.3-0.3-0.6-0.5-1-0.8l2.7-0.1
	C128.5,109.2,128.3,109.8,128.1,110.3z M109.3,98.2c0.4,1.4,0.7,3,0.6,4.5c0,0.4-0.1,0.7-0.2,1.1c-0.1,0.5-0.3,0.9-0.5,1.3
	c-0.3,0.6-0.8,1.2-1.3,1.7c-0.5,0.4-1,0.8-1.6,1.2c-0.1,0-0.5,0.2-1,0.2c-0.2,0-0.3,0-0.5-0.1c-0.7-0.3-1.1-0.7-1.1-0.8
	c-0.1-0.1-0.1-0.2-0.1-0.3c0,0,0,0,0-0.1c-0.1-0.2-0.2-0.3-0.2-0.5c-0.4-0.9-0.6-1.8-0.7-2.6c0-0.2,0-0.4,0-0.5c0-0.2,0-0.5,0.1-0.7
	c0-0.3,0.1-0.6,0.2-0.9c0.1-0.3,0.2-0.7,0.4-1c0.2-0.4,0.4-0.8,0.6-1.1c0.5-0.8,1.1-1.6,1.8-2.2c0.6-0.6,1.3-1.2,1.9-1.7
	c0.3-0.2,0.5-0.4,0.7-0.5c0.1,0.1,0.1,0.3,0.2,0.4C108.7,96.5,109,97.3,109.3,98.2L109.3,98.2z M114.7,122.5
	c-2.1,0.2-5.3,0.2-7.6-1.3c-0.1-0.1-0.2-0.2-0.3-0.3c-1.3-1-2.1-2.3-2.4-4.2c0,0,0-0.5,0.3-1.1c0.4-0.5,0.9-0.8,1.1-0.8
	c1.9-0.3,3.5,0,4.9,1c1.7,1.2,2.8,3.3,3.5,5.1C114.4,121.5,114.6,122,114.7,122.5L114.7,122.5z M81.5,107.5
	c-0.2,0.2-0.5,0.4-0.8,0.6c-0.7,0.2-1.1,0-1.2,0c-1.8-0.9-3-2.1-3.6-3.7c-0.9-2.6-0.2-5.7,0.5-7.7c1.9,1,4.5,2.9,5.6,5.5
	c0.4,1.1,0.5,2.3,0.3,3.5c-0.1,0.5-0.3,1-0.5,1.6C81.7,107.3,81.6,107.4,81.5,107.5L81.5,107.5z M95.2,62.4c-0.5-1.4-0.5-3-0.3-4.4
	c0.1-0.8,0.3-1.5,0.5-2.2c0.1-0.4,0.2-0.8,0.4-1.1c0.5,0.3,1.2,0.7,1.8,1.1c0.3,0.2,0.6,0.4,0.9,0.7c1.1,0.9,2.2,2.1,2.8,3.4
	c0.1,0.1,0.1,0.2,0.1,0.3c0.3,0.7,0.4,1.5,0.4,2.3c0,0.2,0,0.3,0,0.4c-0.1,0.8-0.3,1.5-0.6,2.3c0,0-0.1,0.1-0.2,0.2
	c-0.2,0.2-0.4,0.4-0.8,0.6c0,0,0,0-0.1,0c-0.7,0.2-1.1,0-1.2,0c-0.4-0.2-0.7-0.4-1-0.5c-0.2-0.1-0.3-0.2-0.5-0.4
	c-0.9-0.7-1.6-1.6-2-2.6C95.3,62.6,95.2,62.5,95.2,62.4z M98.7,70.5l0.5,2.9c-0.1-0.3-0.2-0.5-0.3-0.8c-0.3-0.8-0.8-1.6-1.3-2.3
	C97.9,70.4,98.2,70.5,98.7,70.5L98.7,70.5z M94.6,79.2c-0.1,0.1-0.5,0.6-1.1,0.9c-0.7,0.2-1.1,0-1.2,0c-1.8-0.9-3-2.1-3.6-3.7
	c-0.9-2.6-0.2-5.7,0.5-7.7c1.9,1,4.5,2.9,5.6,5.5C95.5,75.8,95.4,77.5,94.6,79.2L94.6,79.2z M90.1,116.3c-0.2-0.4-0.4-0.8-0.6-1.2
	c-0.7-1.6-0.8-3.1-0.5-4.6c0-0.1,0.1-0.3,0.1-0.4c0.5-1.7,1.7-3.3,2.9-4.5c0.2-0.2,0.4-0.4,0.6-0.6c0.6-0.6,1.3-1.1,1.8-1.5
	c0.2,0.4,0.4,0.8,0.6,1.2c0.1,0.2,0.1,0.3,0.2,0.5c0.2,0.5,0.4,1.1,0.6,1.7c0.3,0.8,0.5,1.6,0.6,2.5c0.1,1,0.1,2-0.1,3
	c0,0.1-0.1,0.2-0.1,0.3c-0.3,1.2-0.9,2.2-1.7,3c-0.4,0.5-1,0.9-1.6,1.3c-0.1,0.1-0.8,0.3-1.6,0.2C90.6,116.8,90.2,116.4,90.1,116.3
	L90.1,116.3z M113.5,112.5c-0.1-0.1-0.2-0.1-0.3-0.2c-0.6-0.4-1.1-0.7-1.7-1c0.2-0.1,0.4-0.1,0.6-0.2L113.5,112.5z M102.8,94.2
	c-1.5,1.4-2.9,3.3-3.8,5.4c-0.7,0-1.4-0.2-2.1-0.5c-0.3-0.3-0.6-0.6-1-0.7c-0.1-0.1-0.2-0.3-0.2-0.4c-0.2-0.6-0.1-1.2,0-1.4
	c0.8-1.8,2-2.9,3.6-3.4c1.1-0.4,2.2-0.4,3.3-0.4c0.5,0,1.1,0.1,1.6,0.2C103.7,93.4,103.2,93.8,102.8,94.2L102.8,94.2z M97.9,89.1
	c-0.4,0.1-0.8,0.3-1.1,0.5l1.6-3.4c0.7,1.3,1.6,2,2.1,2.4C99.6,88.6,98.7,88.8,97.9,89.1z M92.9,84.5c0.4,0,0.9,0,1.5-0.2l-1.6,3.4
	c-0.1-0.4-0.2-0.8-0.4-1.2c-0.3-0.8-0.8-1.6-1.3-2.3C91.6,84.4,92.2,84.5,92.9,84.5L92.9,84.5z M88.2,93.2c-0.1,0.1-0.4,0.6-1,0.9
	c-0.7,0.2-1.1,0-1.2,0c-1.8-0.9-3-2.1-3.6-3.7c-0.9-2.6-0.2-5.7,0.5-7.7c1.9,1,4.5,2.9,5.6,5.5C89.1,89.8,89,91.4,88.2,93.2
	L88.2,93.2z M86.5,98.5c0.4,0,0.9,0,1.5-0.2l-1.6,3.5c-0.1-0.4-0.2-0.8-0.4-1.2c-0.3-0.9-0.8-1.7-1.3-2.4
	C85.1,98.3,85.7,98.5,86.5,98.5L86.5,98.5z M99.6,118.5c0.2-0.2,0.4-0.3,0.6-0.5c0.1,0.2,0.1,0.4,0.2,0.6
	C100.1,118.6,99.9,118.5,99.6,118.5L99.6,118.5z M85,115.1c0.3,1.2,0.8,2.3,1.5,3.4c0.1,0.2,1,1.5,2.8,2.3h-7L85,115.1L85,115.1z
	 M117.9,112.8C117.9,112.8,117.9,112.8,117.9,112.8C117.9,112.8,117.9,112.8,117.9,112.8z M108,85.3c-0.8,0.3-1.5,0.4-2.3,0.4
	c-0.7,0-1.5-0.2-2.3-0.5c-0.2-0.1-0.4-0.2-0.6-0.3c0,0-0.4-0.3-0.7-0.9c-0.2-0.6-0.1-1.2,0-1.4c0.2-0.4,0.4-0.9,0.7-1.2
	c0.5-0.7,1.2-1.3,1.9-1.7c0.3-0.2,0.7-0.4,1.1-0.5c2.6-0.9,5.8-0.1,7.8,0.6C112.4,81.7,110.6,84.3,108,85.3L108,85.3z M104.3,75.1
	c-0.2,0.1-0.3,0.1-0.5,0.2l-0.2-0.9l1-2.2c0.7,1.3,1.6,2,2.1,2.4C106,74.7,105.2,74.8,104.3,75.1z M120.3,117.6c0,0-0.1-0.1-0.1-0.1
	c-1.3-1.1-2.1-2.6-2.2-4.7c0-0.1,0-0.6,0.4-1.1c0.1-0.1,0.2-0.1,0.2-0.2c0.4-0.3,0.8-0.4,1-0.5c2-0.1,3.5,0.4,4.8,1.5
	c2.1,1.9,2.9,5,3.2,7.1C125.5,119.6,122.4,119.2,120.3,117.6L120.3,117.6z M132.2,111.8C132.2,111.8,132.2,111.8,132.2,111.8
	L132.2,111.8z M141.3,92.7c-0.2,2.1-0.8,5.3-2.7,7.4c-1.2,1.2-2.7,1.9-4.7,1.9c-0.1,0-0.7-0.1-1.2-0.6c-0.4-0.5-0.5-1-0.5-1.1
	c0-2,0.6-3.6,1.9-4.8C136.1,93.5,139.2,92.9,141.3,92.7L141.3,92.7z M132.2,100.3L132.2,100.3C132.2,100.3,132.2,100.3,132.2,100.3z
	 M128.2,102.5c0-0.1,0.1-0.2,0.1-0.2c0.2,0.6,0.6,1.3,1.2,1.9l-2.3,0C127.5,103.7,127.9,103.1,128.2,102.5L128.2,102.5z
	 M114.5,105.8c-0.3,0.1-0.7,0.2-1,0.3c0.1-0.4,0.3-0.8,0.4-1.2c0,0,0,0,0-0.1C114,105,114.2,105.4,114.5,105.8z M74.9,137l5.4-11.8
	h6.3L74.9,137z M151.6,109.3c-1.7,0-3.2-0.6-4.6-2c-0.1-0.1-0.4-0.6-0.4-1.3c0.1-0.7,0.4-1.1,0.4-1.2c1.4-1.4,3-2.1,4.7-2.1
	c2.8,0.1,5.4,1.8,7,3.2C157.1,107.3,154.4,109.2,151.6,109.3L151.6,109.3z"/>
</svg>
