<svg width="101" height="120" viewBox="0 0 101 120" fill="none" xmlns="http://www.w3.org/2000/svg">
<path d="M48.0224 6.06435C54.297 -1.23255 65.299 -2.06132 72.5961 4.21345L94.6062 23.1396H94.6067C101.903 29.4147 102.732 40.417 96.4571 47.7142C90.1824 55.0113 79.1801 55.8402 71.8829 49.5651L49.8733 30.639C42.576 24.3643 41.7471 13.3616 48.0224 6.06435ZM68.0897 9.45473C63.687 5.66864 57.0489 6.16859 53.2632 10.5712C49.4771 14.9739 49.977 21.6125 54.3797 25.3982L76.3893 44.3239L76.3897 44.3243C80.7925 48.1103 87.4306 47.61 91.2163 43.2074C95.002 38.8047 94.5019 32.1667 90.0993 28.3804L68.0897 9.45473Z" fill="#636363"/>
<path d="M78.5423 14.9892C79.7723 13.5297 81.9528 13.3434 83.4124 14.5734C84.8719 15.8034 85.0581 17.9838 83.8282 19.4434L66.937 39.4878C65.707 40.9474 63.5266 41.1336 62.067 39.9036C60.6074 38.6737 60.4212 36.4932 61.6512 35.0336L78.5423 14.9892Z" fill="#636363"/>
<path d="M5.05659 85.1301C-1.02773 79.8981 -1.71878 70.7244 3.51327 64.6399L19.2943 46.2874L19.2943 46.287C24.5266 40.203 33.7006 39.5121 39.7852 44.7441C45.8697 49.9761 46.5608 59.15 41.3286 65.2346L25.5475 83.5867C20.3155 89.6714 11.1412 90.3625 5.05659 85.1301ZM7.88358 68.3974C4.72664 72.0685 5.14351 77.6035 8.81452 80.7601C12.4856 83.9171 18.021 83.5002 21.1776 79.8292L36.9583 61.4771L36.9586 61.4767C40.1154 57.8056 39.6983 52.2706 36.0273 49.114C32.3562 45.9574 26.8213 46.3744 23.6642 50.0453L7.88358 68.3974Z" fill="#636363"/>
<path d="M12.4995 59.682C11.2824 58.6564 11.1272 56.8383 12.1527 55.6213C13.1783 54.4043 14.9964 54.2491 16.2135 55.2746L32.927 69.3588C34.144 70.3844 34.2992 72.2025 33.2737 73.4196C32.2481 74.6366 30.43 74.7918 29.2129 73.7663L12.4995 59.682Z" fill="#636363"/>
<path d="M93.0357 92.4344C93.0357 81.0013 83.7674 71.733 72.3343 71.733C60.9012 71.733 51.6329 81.0013 51.6329 92.4344C51.6329 103.867 60.9012 113.136 72.3343 113.136C83.7674 113.136 93.0357 103.868 93.0357 92.4344ZM99.9479 92.4344C99.9479 107.685 87.5849 120.048 72.3343 120.048C57.0837 120.048 44.7207 107.685 44.7207 92.4344C44.7207 77.1838 57.0838 64.8208 72.3343 64.8208C87.5849 64.8208 99.9479 77.1838 99.9479 92.4344Z" fill="#636363"/>
<path d="M83.5062 71.8804C84.6455 70.3489 86.8106 70.031 88.342 71.1703C89.8735 72.3095 90.1914 74.4746 89.0522 76.0061L60.9773 113.747C59.8381 115.279 57.673 115.597 56.1415 114.458C54.61 113.319 54.2922 111.153 55.4314 109.622L83.5062 71.8804Z" fill="#636363"/>
</svg>
