<svg width="155" height="125" viewBox="0 0 155 125" fill="none" xmlns="http://www.w3.org/2000/svg">
<g clip-path="url(#clip0_638_6538)">
<path d="M91.2413 112.903C93.28 112.675 95.5609 112.473 96.741 114.559C97.8374 116.495 96.4812 118.209 95.3319 119.69C91.7565 124.29 87.0802 126.065 81.4132 124.378C78.5951 123.541 76.0236 123.523 73.157 124.347C67.3623 126.008 62.4086 124.159 59.0621 119.571C57.9833 118.086 56.8208 116.443 57.7499 114.581C58.701 112.67 60.8366 112.986 62.7785 113.03C64.0598 113.227 65.6406 113.455 67.217 113.718C68.3442 113.906 69.3702 113.726 69.6608 112.508C69.9734 111.185 68.7757 111.067 67.9083 110.76C66.8779 110.396 65.7111 110.234 64.8568 109.63C63.5843 108.731 62.3161 107.671 61.4487 106.405C60.4535 104.946 60.0616 103.066 61.1052 101.463C62.2016 99.7757 64.0422 100.122 65.6934 100.499C68.3222 101.094 70.9422 101.725 73.5313 102.466C76.0632 103.189 78.5378 103.145 81.0609 102.466C83.7998 101.721 86.543 100.954 89.3259 100.42C93.0378 99.7055 94.601 101.48 93.6323 105.09C93.1171 107.005 92.0383 108.534 90.2065 109.376C88.8899 109.98 87.4369 110.296 86.1511 110.957C85.6007 111.242 84.7861 111.737 84.9358 112.644C85.156 113.253 85.6271 114.147 86.9701 113.748C88.4012 113.669 89.8014 113.078 91.2413 112.916M5.73393 29.2509C-0.650836 31.9017 -1.83092 37.9877 2.84537 43.2279C6.5045 47.329 11.2733 49.2613 16.5176 50.1814C23.6685 51.4389 29.4368 48.8494 34.1703 43.5127C35.7775 41.7032 36.1298 41.6988 37.4508 43.8238C44.2406 54.7644 47.3582 67.944 48.5118 80.6942C48.7584 83.3932 48.9081 86.1053 48.9478 88.8131C48.9874 91.3632 48.754 93.8913 49.1811 96.4282C49.2868 97.0547 49.5026 97.7733 50.0882 98.0011C52.0873 98.781 53.4171 94.991 53.9543 93.7116C54.7821 91.7444 55.5086 89.7332 56.1603 87.7002C60.7001 73.5742 64.8656 51.4345 58.1286 40.139C52.1886 30.1798 42.6114 31.411 42.6114 23.4279C42.6114 19.7694 50.5594 5.41116 59.8415 4.88538C60.1541 4.86785 60.4271 4.67068 60.5152 4.37274C60.6561 3.91268 60.3126 3.44386 59.8283 3.43948C55.2709 3.40005 49.7536 3.15468 45.0729 5.07378C41.286 6.62483 38.0188 9.08724 35.6851 12.5004C34.5006 14.2311 33.6287 16.1152 33.1268 18.1657C33.0651 18.4199 32.7525 20.6413 32.7525 20.6676C32.5147 22.7882 30.8943 23.2833 29.3884 23.6163C24.7517 24.6547 20.0402 25.3689 15.4079 26.4205C12.1363 27.161 8.82503 27.9628 5.73833 29.2422" fill="#636363"/>
<path d="M148.93 29.251C155.315 31.9018 156.495 37.9877 151.819 43.228C148.16 47.3291 143.391 49.2613 138.146 50.1814C130.996 51.4389 125.227 48.8494 120.494 43.5128C118.887 41.7032 118.534 41.6988 117.213 43.8239C110.423 54.7645 107.306 67.9441 106.152 80.6942C105.906 83.3932 105.756 86.1054 105.716 88.8132C105.677 91.3632 105.91 93.8913 105.483 96.4282C105.377 97.0548 105.161 97.7733 104.576 98.0012C102.577 98.7811 101.247 94.9911 100.71 93.7117C99.882 91.7444 99.1554 89.7333 98.5037 87.7003C93.9639 73.5743 89.7984 51.4345 96.5355 40.139C102.475 30.1798 112.053 31.411 112.053 23.4279C112.053 19.7694 104.105 5.41119 94.8226 4.88541C94.51 4.86788 94.2369 4.67071 94.1489 4.37277C94.008 3.91271 94.3514 3.44389 94.8358 3.43951C99.3932 3.40008 104.911 3.15471 109.591 5.07381C113.378 6.62486 116.645 9.08727 118.979 12.5005C120.163 14.2312 121.035 16.1152 121.537 18.1658C121.599 18.4199 121.912 20.6413 121.912 20.6676C122.149 22.7882 123.77 23.2834 125.276 23.6163C129.912 24.6548 134.624 25.3689 139.256 26.4205C142.528 27.161 145.839 27.9628 148.926 29.2422" fill="#636363"/>
</g>
<defs>
<clipPath id="clip0_638_6538">
<rect width="155" height="125" fill="white"/>
</clipPath>
</defs>
</svg>
