<svg width="135" height="158" viewBox="0 0 135 158" fill="none" xmlns="http://www.w3.org/2000/svg">
<path d="M89.42 49.814H85.0539C85.0531 49.814 85.0523 49.814 85.0512 49.814H85.0486C83.7321 49.8127 82.661 48.7411 82.661 47.4241V36.2961H87.2358C88.3281 36.2961 89.2133 35.4106 89.2133 34.3185V21.214C89.2133 20.1219 88.3281 19.2365 87.2358 19.2365H82.6613V12.4778C82.6613 11.3857 81.7762 10.5002 80.6838 10.5002H54.4753C53.3829 10.5002 52.4978 11.3857 52.4978 12.4778V19.2365H47.9228C46.8304 19.2365 45.9453 20.1219 45.9453 21.214V34.3185C45.9453 35.4106 46.8304 36.2961 47.9228 36.2961H52.4983V47.4227C52.4983 48.7403 51.427 49.8124 50.1094 49.8137H50.1068C50.106 49.8137 50.1052 49.8137 50.1042 49.8137H45.7385C37.4223 49.8137 30.6565 56.5795 30.6565 64.8958V69.259C30.6565 69.2608 30.6562 69.2624 30.6562 69.264V130.418C30.6562 130.42 30.6565 130.422 30.6565 130.423V134.787C30.6565 140.694 35.4625 145.5 41.3703 145.5H93.7885C99.6961 145.5 104.502 140.694 104.502 134.787V64.8958C104.502 56.5795 97.7365 49.814 89.42 49.814ZM78.7062 14.4553V19.2365H56.4529V14.4553H78.7062ZM49.9003 32.341V23.1916H54.4753H80.6838H85.2587V32.341H49.9003ZM34.6116 71.2415H100.547V128.441H34.6116V71.2415ZM100.547 134.787C100.547 138.513 97.5153 141.545 93.7885 141.545H41.3703C37.6436 141.545 34.6116 138.513 34.6116 134.787V132.396H100.547V134.787ZM100.547 67.2865H34.6116V64.8958C34.6116 58.7604 39.6032 53.7691 45.7385 53.7691H50.1065C50.1084 53.7691 50.11 53.7691 50.1115 53.7691H68.3922C69.4846 53.7691 70.3697 52.8837 70.3697 51.7915C70.3697 50.6994 69.4846 49.814 68.3922 49.814H55.9835C56.2852 49.0754 56.4529 48.2686 56.4529 47.423V36.2961H78.7062V47.4238C78.7062 48.2691 78.8737 49.0757 79.175 49.8137H76.3158C75.2234 49.8137 74.3382 50.6991 74.3382 51.7913C74.3382 52.8834 75.2234 53.7688 76.3158 53.7688H85.0465C85.0483 53.7688 85.0499 53.7688 85.0515 53.7688H89.42C95.5557 53.7688 100.547 58.7604 100.547 64.8958V67.2865Z" fill="#636363"/>
<path d="M63.2098 104.074C64.3407 104.074 65.2575 103.157 65.2575 102.026C65.2575 100.895 64.3407 99.9784 63.2098 99.9784C62.0789 99.9784 61.1621 100.895 61.1621 102.026C61.1621 103.157 62.0789 104.074 63.2098 104.074Z" fill="#636363"/>
<path d="M71.9481 104.074C73.079 104.074 73.9957 103.157 73.9957 102.026C73.9957 100.895 73.079 99.9784 71.9481 99.9784C70.8172 99.9784 69.9004 100.895 69.9004 102.026C69.9004 103.157 70.8172 104.074 71.9481 104.074Z" fill="#636363"/>
<path d="M67.5791 102.232C66.4867 102.232 65.6016 103.117 65.6016 104.209V106.393C65.6016 107.485 66.4867 108.371 67.5791 108.371C68.6715 108.371 69.5566 107.485 69.5566 106.393V104.209C69.5566 103.117 68.6715 102.232 67.5791 102.232Z" fill="#636363"/>
<path d="M83.7955 93.511C85.1987 93.511 86.5181 92.9644 87.5101 91.9722C88.5025 90.98 89.0491 89.6606 89.0491 88.2573C89.0491 86.8541 88.5025 85.5346 87.5103 84.5427C86.6574 83.6897 85.5623 83.1661 84.3806 83.0361C84.2529 81.8931 83.7517 80.7843 82.8771 79.9097C80.8289 77.8615 77.4961 77.8621 75.4473 79.9097C73.8935 81.4638 73.5186 83.757 74.3223 85.6678L73.6889 86.3011C71.8693 85.3184 69.7887 84.7595 67.5794 84.7595C65.3701 84.7595 63.2892 85.3184 61.4696 86.3014L60.8362 85.6681C61.6402 83.7572 61.265 81.4641 59.7109 79.91C57.6627 77.8618 54.3299 77.8623 52.2811 79.91C51.4068 80.7846 50.9056 81.8933 50.7779 83.0364C49.5959 83.1666 48.5011 83.69 47.6484 84.543C46.656 85.5352 46.1094 86.8546 46.1094 88.2579C46.1094 89.6611 46.656 90.9805 47.6482 91.9725C48.6404 92.9647 49.9598 93.5112 51.363 93.5112C52.0773 93.5112 52.77 93.3697 53.4086 93.0997L55.0241 94.7154C54.8026 95.661 54.6816 96.645 54.6816 97.6572V103.118C54.6816 103.786 54.7731 104.434 54.9392 105.051L53.4086 106.581C52.77 106.312 52.0773 106.17 51.363 106.17C49.9598 106.17 48.6404 106.716 47.6484 107.709C46.656 108.701 46.1094 110.02 46.1094 111.424C46.1094 112.827 46.656 114.146 47.6482 115.138C48.5011 115.991 49.5962 116.515 50.7779 116.645C50.9056 117.788 51.4068 118.897 52.2814 119.771C53.3055 120.795 54.6508 121.307 55.996 121.307C57.3415 121.307 58.6868 120.795 59.7112 119.771C61.1083 118.373 61.5492 116.379 61.0398 114.602C61.3586 114.809 61.7327 114.923 62.1193 114.923L73.0398 114.922C73.4382 114.922 73.8081 114.804 74.1184 114.601C73.6088 116.379 74.0496 118.373 75.4471 119.771C76.4712 120.795 77.8164 121.307 79.1617 121.307C80.5072 121.307 81.8525 120.795 82.8768 119.771C83.7512 118.897 84.2524 117.788 84.38 116.645C85.5621 116.515 86.6568 115.991 87.5095 115.138C88.502 114.146 89.0486 112.827 89.0486 111.423C89.0486 110.02 88.502 108.701 87.5098 107.709C86.5176 106.716 85.1982 106.17 83.7949 106.17C83.0807 106.17 82.3882 106.311 81.7494 106.581L80.2193 105.051C80.3857 104.434 80.4772 103.786 80.4772 103.117V97.657C80.4772 96.6445 80.3561 95.6604 80.1344 94.7146L81.7494 93.0997C82.3888 93.3694 83.0814 93.511 83.7955 93.511ZM52.2819 89.1752C52.0365 89.4206 51.7103 89.5556 51.3636 89.5556C51.0168 89.5556 50.6907 89.4206 50.4455 89.1752C50.2002 88.9299 50.0652 88.6038 50.0652 88.2571C50.0652 87.9103 50.2005 87.5842 50.4457 87.339C50.6909 87.0937 51.0168 86.9587 51.3636 86.9587C51.7103 86.9587 52.0367 87.0937 52.2819 87.3392C53.054 88.1115 54.3064 88.1112 55.0782 87.339C55.8507 86.5667 55.8507 85.3147 55.0784 84.5425C54.5722 84.0362 54.5722 83.2122 55.0782 82.706C55.5847 82.1997 56.4081 82.1992 56.9146 82.706C57.4209 83.2122 57.4209 84.0359 56.9146 84.5422C56.1424 85.3145 56.1424 86.5667 56.9146 87.3387L58.2942 88.7185C57.6893 89.3468 57.1475 90.0355 56.6787 90.7757L55.0784 89.1754C54.3061 88.4034 53.054 88.4031 52.2819 89.1752ZM56.9146 115.139C57.4209 115.644 57.4209 116.468 56.9149 116.974C56.4081 117.481 55.5847 117.481 55.0784 116.975C54.5722 116.468 54.5722 115.644 55.0784 115.138C55.8507 114.366 55.8507 113.114 55.0782 112.342C54.3064 111.569 53.054 111.569 52.2819 112.342C52.0365 112.587 51.7103 112.722 51.3636 112.722C51.0168 112.722 50.6907 112.587 50.4455 112.342C50.2002 112.096 50.0652 111.77 50.0652 111.424C50.0652 111.077 50.2005 110.751 50.4457 110.505C50.6909 110.26 51.0168 110.125 51.3636 110.125C51.7103 110.125 52.0367 110.26 52.2819 110.506C53.054 111.278 54.3061 111.278 55.0784 110.506L57.0391 108.545C57.6859 109.151 58.4434 109.637 59.2737 109.983L56.9146 112.342C56.1424 113.114 56.1424 114.366 56.9146 115.139ZM73.04 106.6C71.9476 106.6 71.0625 107.485 71.0625 108.577V109.928C71.0625 109.932 71.0625 109.936 71.0625 109.94V110.968H64.0971V108.577C64.0971 107.485 63.2119 106.6 62.1195 106.6C60.1992 106.6 58.637 105.037 58.637 103.117V97.657C58.637 92.7258 62.6487 88.7143 67.5796 88.7143C72.5108 88.7143 76.5226 92.726 76.5226 97.657V103.117C76.5226 105.038 74.9604 106.6 73.04 106.6ZM82.8771 110.505C83.1226 110.26 83.4487 110.125 83.7955 110.125C84.1422 110.125 84.4684 110.26 84.7136 110.505C84.9588 110.75 85.0938 111.077 85.0938 111.423C85.0938 111.77 84.9585 112.096 84.7133 112.341C84.4681 112.587 84.1422 112.722 83.7955 112.722C83.4487 112.722 83.1223 112.587 82.8771 112.341C82.1051 111.569 80.8526 111.569 80.0809 112.341C79.3083 113.113 79.3083 114.365 80.0806 115.138C80.5868 115.644 80.5868 116.468 80.0809 116.974C79.5743 117.48 78.7509 117.48 78.2444 116.974C77.7381 116.468 77.7381 115.644 78.2444 115.138C79.0167 114.366 79.0167 113.114 78.2444 112.342L75.8856 109.983C76.7159 109.637 77.4734 109.15 78.1202 108.545L80.0806 110.505C80.8526 111.277 82.1048 111.277 82.8771 110.505ZM80.0806 89.1754L78.4806 90.7754C78.0118 90.0353 77.4702 89.3465 76.8651 88.7182L78.2444 87.3387C79.0167 86.5664 79.0167 85.3145 78.2444 84.5422C77.7381 84.0359 77.7381 83.2122 78.2441 82.706C78.7506 82.1997 79.5741 82.1992 80.0806 82.706C80.5868 83.2122 80.5868 84.0362 80.0806 84.5425C79.3083 85.3147 79.3083 86.5667 80.0809 87.339C80.8526 88.1112 82.1051 88.1112 82.8771 87.3392C83.1226 87.094 83.4487 86.9587 83.7955 86.9587C84.1422 86.9587 84.4684 87.0937 84.7136 87.3392C84.9588 87.5844 85.0938 87.9103 85.0938 88.2571C85.0938 88.6038 84.9585 88.9299 84.7133 89.1752C84.4681 89.4204 84.1422 89.5554 83.7955 89.5554C83.4487 89.5554 83.1223 89.4204 82.8771 89.1749C82.1051 88.4031 80.8529 88.4034 80.0806 89.1754Z" fill="#636363"/>
</svg>
