<?xml version="1.0" encoding="utf-8"?>
<!-- Generator: Adobe Illustrator 25.1.0, SVG Export Plug-In . SVG Version: 6.00 Build 0)  -->
<svg version="1.1" id="Layer_1" xmlns="http://www.w3.org/2000/svg" xmlns:xlink="http://www.w3.org/1999/xlink" x="0px" y="0px"
	 viewBox="0 0 164 164" style="enable-background:new 0 0 164 164;" xml:space="preserve">
<path style="fill:#B8CC7A;" d="M148.2,46.2h-1.9c-4.8,0-9.2,2.2-12.1,5.6v-7.9c0-8.7-7.1-15.8-15.8-15.8h-1.9
	c-8.7,0-15.8,7.1-15.8,15.8v23.9l-31-16.8L0,88.9l4.7,8.7l7.6-4.1v42.4H164V61.9C164,53.3,156.9,46.2,148.2,46.2L148.2,46.2z
	 M104.5,43.9c0-6.6,5.4-12.1,12.1-12.1h1.9c6.5,0,11.8,5.1,12,11.6h-21.2v3.7h21.2V84l-26-14.1V43.9z M123.6,132.1H107V96H32.6v36.2
	H16.1V91.4l53.8-29.1l31,16.8l3.7,2l19.1,10.3L123.6,132.1L123.6,132.1z M103.3,102h-67v-2.3h67V102z M36.3,105.7h67v2.3h-67V105.7z
	 M36.3,111.8h67v2.3h-67V111.8z M36.3,117.8h67v2.3h-67V117.8z M36.3,123.8h67v2.3h-67V123.8z M36.3,129.8h67v2.3h-67V129.8z
	 M69.8,55.3l31,16.8l3.7,2l26,14.1l3.7,2l0.4,0.2l-0.4,0.7l-0.8,1.5l-2.9-1.6l-3.3-1.8l-22.8-12.3l-3.7-2l-31-16.8L12.3,89.2
	l-6.1,3.3L5,90.4L69.8,55.3z M130.5,132.1h-3.3V93.4l3.3,1.8V132.1L130.5,132.1z M160.3,132.1h-26V97.2l0.7,0.4l4.7-8.7l-5.4-2.9
	v-24c0-6.6,5.4-12.1,12.1-12.1h1.9c6.5,0,11.8,5.1,12,11.6h-21.2v3.7h21.2V132.1L160.3,132.1z M61,91.4h17.6V73.7H61V91.4z
	 M72.3,77.5l-2.5,2.5l-2.5-2.5H72.3L72.3,77.5z M74.9,85l-2.5-2.5l2.5-2.5V85L74.9,85z M67.3,87.6l2.5-2.5l2.5,2.5H67.3L67.3,87.6z
	 M64.7,80.1l2.5,2.5L64.7,85V80.1L64.7,80.1z"/>
</svg>
