<?xml version="1.0" encoding="utf-8"?>
<!-- Generator: Adobe Illustrator 25.1.0, SVG Export Plug-In . SVG Version: 6.00 Build 0)  -->
<svg version="1.1" id="Layer_1" xmlns="http://www.w3.org/2000/svg" xmlns:xlink="http://www.w3.org/1999/xlink" x="0px" y="0px"
	 viewBox="0 0 164 164" style="enable-background:new 0 0 164 164;" xml:space="preserve">
<path style="fill:#F2C688;" d="M162.7,96.1c-2.9-5.8-2.1-9.6-1-14.4c0.6-2.8,1.3-6,1.3-9.9c0-6-1.2-12.6-2.2-18.4
	c-0.7-4.2-1.4-8.1-1.4-10.5v-2.5h-0.2c-0.7-4.5-4.1-8.2-8.5-9.3c-4.2-1-8.8-1.5-14.2-1.4c-3.8,0.1-7.7,0.4-11.4,0.8
	c-2.8,0.3-5.6,0.5-8.4,0.6c-8.4,0.4-17.1-0.2-25.5-0.7c-3.3-0.2-6.7-0.5-10-0.6c-2.8-0.1-5.6-0.2-8.2-0.3C64.6,29.4,57.4,30,51,31.4
	c-1.5-0.4-3.6-0.9-6.5-1.2c-2.1-0.3-4.1,0-5.7,0.5c-2.4-2.9-6.1-4.6-10.7-4.6s-8.2,1.7-10.6,4.6c-1.6-0.5-3.6-0.7-5.7-0.4
	c-6.9,1-9.7,2.4-10,2.5L0,33.6l0.5,2c0.1,0.2,1.4,5.3,5.9,8.1C8,44.6,9.8,45,11.6,45c1.2,0,2.3-0.1,3.3-0.3
	c1.3,5.7,4.2,14.4,5.2,17.1c0,0.1,0,0.2,0.1,0.3c0,0.2,0.1,0.3,0.1,0.5c0.1,0.2,0.1,0.4,0.2,0.6c0.1,0.2,0.1,0.3,0.2,0.4
	c0.1,0.2,0.2,0.3,0.3,0.5c0.1,0.1,0.2,0.3,0.2,0.4c0.1,0.2,0.2,0.3,0.4,0.5c0.1,0.1,0.2,0.2,0.3,0.3c0.1,0.1,0.3,0.3,0.4,0.4
	s0.2,0.2,0.3,0.3c0.2,0.1,0.4,0.2,0.5,0.3c0.1,0.1,0.2,0.1,0.4,0.2s0.4,0.2,0.6,0.2c0.1,0,0.2,0.1,0.3,0.1c0.3,0.1,0.7,0.1,1,0.1
	h4.4c4,4.2,6.2,7.8,8.3,11.8c-3.9,1-8.1,2.9-10.7,6.3c-2.9-0.2-5.9,1.3-7.8,3.9c-1.4,2-2.2,4.6-2.4,7.8c-0.1,1.2-0.1,2.4-0.1,3.6
	c0,1.1,0,2.2-0.1,3.3l0,2.4l5.1,0.3l0.2-2.5c0.1-1.2,0.1-2.5,0.1-3.7c0-1.1,0-2.1,0-3.2c0.1-2.3,0.6-4,1.5-5.2
	c0.4-0.5,0.8-0.9,1.3-1.2C25,91.1,25,91.7,25,92.2c0,4.9,0.7,8.8,1.2,12c0.6,3.7,1.1,6.4,0.1,8.6c-0.9,2-5.4,18.5-6.3,21.8l-0.9,3.2
	h8.8c1.9,0,2.6,0,13.5-22.6l0.2-0.3c1.4-3.3,3.1-4.8,4.6-5.3c0.2,2.3,0.2,4.3,0.2,4.9l-2.7,23.4h13.7l2.5-14.8l1.7-9.8
	c0.1,2.7,0,6.1-0.1,9.7l-0.1,2.1c-0.2,3.4-0.4,6.5-0.5,8.4c0,0.3-0.1,0.7-0.1,1c0,0.2,0,0.5-0.1,0.7l-0.2,2.7h13.8l1.7-15l1.2-10.5
	c1.1,0.1,2,0.2,2.7,0.2l0.2,0.7l0,0l6.5,24.6h7.4c1.1,0,2.2-0.5,2.9-1.3c0.7-0.8,1.1-2,1-3.1l-3.3-23.7c1.7-0.2,4.5-0.7,8.7-2.3
	c0.6-0.2,2.1-0.1,3.2,0.3c2.5,1.1,9.2,1.7,10.6-1.1c0.1-0.1,0.1-0.2,0.1-0.2c1.5,0.5,3.1,0.8,4.8,0.9c0.7,3.3,1.3,6.3,1.5,7.4
	l-1.3,7.5l-2.7,15.6h22.9l0.7-1.6c0.4-1,0.8-1.9,1.1-2.9c0.2-0.5,0.4-1,0.5-1.5c0.1-0.4,0.3-0.8,0.4-1.2c0.2-0.7,0.5-1.4,0.7-2.2
	v-0.1c0.3-0.9,0.5-1.8,0.7-2.8l0.2-0.7l0.4-1.7l0,0c1-4.4,1.7-8.9,2.4-13.4c0.7-4.2,1.3-8.6,2.3-13l0.3-1.2l-0.7-0.9
	c-1.6-1.9-2.3-4.8-2.2-8c0.1-3.2,1.2-6.5,2.1-9.3c0.7-2.1,1.4-4.1,2.2-6.1c1.3-3.6,2.6-7.3,3.7-11c0.6,3.9,1.1,7.8,1.1,11.4
	c0,3.3-0.6,6.1-1.2,8.8c-1.1,5.1-2.2,10.4,1.4,17.7l1.1,2.3l4.5-2.3L162.7,96.1L162.7,96.1z M141.6,123.5c-0.1,0.4-0.2,0.7-0.3,1.1
	c-0.1,0.2-0.1,0.4-0.2,0.6c-0.3,1.1-0.6,2.2-0.9,3.2c-0.1,0.3-0.2,0.5-0.2,0.7c-0.1,0.5-0.3,0.9-0.4,1.3c-0.2,0.7-0.5,1.4-0.7,2
	c0,0.1-0.1,0.2-0.1,0.3h-3.9l1.4-7.6l0.4-2.1l2.1-11.8l0.7-3.6l0.6-3.2l-0.4-1.1l-1.1-3.2l-0.9-2.6l-0.1-0.4l-1.3-3.7l-0.4-1.1
	l-1.5-4.4l0.2-0.1l-1-2.3c0,0,0,0,0-0.1c0,0-0.1-0.1-0.1-0.3c-0.2-0.3-0.3-0.7-0.5-1.1c-0.8-1.5-1.8-3.2-3-4.7
	c-0.8-1-1.7-1.9-2.6-2.6c-0.4-0.3-0.8-0.6-1.3-0.9c-0.3-0.2-0.5-0.3-0.8-0.5c-1.5-0.8-3.2-1.3-5-1.1c-0.8,0.1-1.7,0.2-2.6,0.6
	l-2.4,0.9l0.6,1.5l0.9,2.4l0.3,0.8l2.4-0.9c0.2-0.1,0.4-0.1,0.5-0.1c0.9-0.2,1.7-0.1,2.5,0.3c0.6,0.3,1.2,0.6,1.7,1.1
	c0.2,0.1,0.3,0.3,0.5,0.4c-0.8,0.5-1.6,1.1-2.4,1.7c-0.8,0.6-1.7,1.2-2.6,1.7c-2.8,1.8-5.8,3.4-8.8,4.4c0,0,0,0-0.1,0
	c-0.5-0.8-1.1-1.5-1.9-2.1c-0.6-0.5-1.4-1-2.2-1.3c-0.3-0.1-0.7-0.2-1.1-0.3l0.4-1.9l-5-1l-0.7,3.2c-0.9-0.1-1.7-0.2-2.5-0.5
	c-3.7-1.4-5.7-2.3-9-3.8c-2.6-1.2-6.4-1.5-11.5-1.8c-1.9-0.1-3.9-0.3-6.2-0.5l0,0c0.3-0.8,0.5-1.3,0.5-1.3l0.8-2.4l-4.8-1.6
	l-0.8,2.4c-0.2,0.4-0.4,1.1-0.7,1.9c-0.1,0.2-0.2,0.4-0.3,0.6c-0.4,0-0.8-0.1-1.2-0.1c-7-0.5-13.9-0.8-20.6-0.8c-0.2,0-0.3,0-0.5,0
	c-2.2-4.4-4.4-8.5-8.5-13c0.1-0.1,0.2-0.2,0.3-0.4c0.1-0.2,0.2-0.3,0.2-0.4c0.1-0.2,0.2-0.3,0.3-0.5c0.1-0.1,0.1-0.3,0.2-0.4
	c0.1-0.2,0.1-0.4,0.2-0.6c0-0.2,0.1-0.3,0.1-0.5c0-0.1,0.1-0.2,0.1-0.3c0.9-2.7,3.8-11.4,5.2-17.1c1,0.2,2.2,0.3,3.3,0.3
	c1.8,0,3.6-0.3,5.2-1.3c4.3-2.6,5.7-7.3,5.9-8c5.1-0.8,10.7-1.2,17.2-1.1c2.7,0,5.4,0.1,8,0.2c3.3,0.2,6.6,0.4,9.9,0.6
	c8.5,0.6,17.3,1.2,26.1,0.7c2.9-0.1,5.7-0.4,8.6-0.7c3.6-0.3,7.4-0.7,11-0.7c5-0.1,9.2,0.3,12.9,1.2c2.6,0.6,4.6,3,4.7,5.7
	c0.3,4.4-0.2,9.4-1.5,14.4c-1.1,4.6-2.8,9.1-4.3,13.5c-0.6,1.7-1.2,3.3-1.8,5c-0.1,0.4-0.3,0.8-0.4,1.2c-1,3-2.1,6.4-2.3,10
	c0,0.2,0,0.4-0.1,0.6c-0.2,3.9,0.7,7.5,2.6,10.3c-0.9,4.2-1.5,8.3-2.1,12.2C143.5,114.1,142.8,118.8,141.6,123.5L141.6,123.5z
	 M126.7,125.2l1.8-10.6l-0.1-0.5c0,0-0.7-3.3-1.5-7.1c2.8-0.5,5.3-1.6,7.4-3v0.1c-0.1,1.2-0.1,2.2-0.1,3.1l-0.6,3.2l-3,14.8
	l-1.5,7.6h-3.9L126.7,125.2L126.7,125.2z M118.3,101.5L118.3,101.5c-0.5-0.9-1.2-1.7-2-2.7c-0.4-0.5-0.8-1-1.3-1.5
	c-0.4-0.5-0.8-1-1.2-1.6c-0.3-0.5-0.6-1.2-1-1.9c2.2-0.8,4.4-1.9,6.5-3c0.9-0.5,1.7-1,2.5-1.5c0.9-0.6,1.7-1.1,2.6-1.7
	c1.1-0.7,2.1-1.5,3.1-2.1c0.2,0.3,0.3,0.5,0.4,0.8c0.4,0.7,0.6,1.2,0.7,1.3l4,11.5c-1.8,1.5-4.1,2.6-6.7,3.1
	c-0.8,0.1-1.7,0.2-2.6,0.2h-0.1c-0.9,0-1.7-0.1-2.5-0.2C119.9,102,119.1,101.8,118.3,101.5L118.3,101.5z M112.8,103.6
	c-0.3,0.1-0.8,0.1-1.3,0.1c-1.1,0-2.3-0.1-3.2-0.5c-1.8-0.8-4.8-1.2-7-0.4c-5.1,1.9-7.5,2-8.6,2c-3,0.1-3.6,1.8-3.6,3.3l3.5,24.8
	h-2.2l-6.1-23.2c-0.1-0.6-0.3-1.8-0.5-3.1c-0.4-2.5-0.7-4.1-0.9-4.9l-1-2.5l-4.8,1.6l0.8,2.4c0.2,0.5,0.5,2.8,0.7,4.1
	c0,0.1,0,0.1,0,0.1c-0.4,0-0.7-0.1-1.1-0.1c-0.8-0.1-1.6-0.1-2.6-0.2c-0.8-0.1-1.7-0.1-2.6-0.1c-2.1-0.1-4.4-0.2-6.8-0.2
	c-0.2,0-0.4,0-0.6,0c-0.6,0-1.4,0-2.2-0.1c-0.2,0-0.4,0-0.5,0c-0.8-0.1-1.7-0.1-2.5-0.2h-0.1c-0.8-0.1-1.6-0.2-2.4-0.3
	c-2.4-0.3-4.5-0.7-5.3-1.1c-0.4-0.1-0.8-0.3-1.2-0.4c-0.8-0.2-1.7-0.4-2.6-0.4c-0.7,0-1.4,0-2.1,0.1c0.5-1.4,0.9-2.7,1.1-3.8
	l0.2-1.4l0.2-1.1L47.3,98l-2.6-0.5l-2.1-0.4l-0.4,2.5c-0.6,3.2-3.8,10.2-5,12.6l-1.1,2.3l0,0c-4.2,8.7-7.9,15.8-9.3,18.1h-0.9
	c2.3-8.4,4.7-16.8,5.2-17.9c1.6-3.6,0.9-7.3,0.2-11.5c-0.5-3.1-1.1-6.7-1.1-11.2c0-5.5,5.9-8.1,10.4-9c1-0.2,1.9-0.3,2.7-0.4
	c0.3,0,0.6,0,0.8,0c0.7,0,1.4,0,2.1,0c1,0,2,0,3,0s2,0.1,3,0.1c3.7,0.1,7.4,0.3,11.2,0.5c0.9,0.1,1.9,0.1,2.8,0.2s1.8,0.1,2.8,0.2
	c0.6,0.1,1.2,0.1,1.7,0.1c2.3,0.2,4.4,0.4,6.3,0.5c4.6,0.3,8,0.6,9.8,1.4c3.3,1.5,5.5,2.4,9.3,3.9c0,0,0,0,0.1,0
	c1,0.4,2.1,0.7,3.3,0.8l-0.1,0.4l5,1l0.4-1.7c0.3,0.1,0.6,0.2,0.8,0.4c0.5,0.4,1,0.9,1.4,1.7c0.4,0.7,0.8,1.5,1.2,2.4
	c0,0.1,0.1,0.1,0.1,0.2c0.5,1.2,1,2.4,1.7,3.4c0.5,0.7,0.9,1.3,1.4,1.9s1,1.2,1.4,1.7c0.2,0.3,0.4,0.5,0.6,0.7
	C113,103.3,112.9,103.5,112.8,103.6L112.8,103.6z M70.5,125.2l-0.9,7.6h-3.7c0.1-1.9,0.3-4.6,0.4-7.5v-0.1l0,0
	c0-0.7,0.1-1.5,0.1-2.2v-0.2c0.1-3.8,0.2-7.7,0-10.8c1.9,0,3.7,0.1,5.5,0.2L70.5,125.2L70.5,125.2z M54.3,125.2l-1.3,7.6h-3.7
	l0.9-7.6l0.3-2.2l0.9-8v-0.3c0-0.1,0-1.9-0.1-4.3c1.4,0.4,3.3,0.7,5.3,1L54.3,125.2L54.3,125.2z M25.4,61.7c-0.1,0-0.2-0.2-0.2-0.4
	v-0.9c0.1-0.1,0.1-0.1,0.2-0.2c1.5-2.2,2.5-2.4,2.8-2.4c0.1,0,0.3,0,0.6,0.2c0.5,0.3,1.3,0.9,2.3,2.3c0,0.1,0.1,0.1,0.1,0.2v0.8
	c0,0.3-0.2,0.4-0.2,0.4L25.4,61.7L25.4,61.7z M9.1,39.4c-1.3-0.8-2.1-1.9-2.7-2.9c1.4-0.4,3.4-0.8,6.1-1.3c0.9-0.1,1.7-0.1,2.5,0.1
	c-0.4,1.3-0.6,2.7-0.7,4.3C12.4,40,10.3,40.1,9.1,39.4z M20.9,41.3h-1.5c-0.1-0.3-0.1-0.6-0.1-0.8c0-1.9,0.4-5.4,3-7.5
	c1.3-1.1,3.1-1.8,5.7-1.8s4.4,0.7,5.7,1.8c0.9,0.7,1.5,1.5,1.9,2.4c0.4,0.8,0.7,1.7,0.8,2.5c0.2,1,0.3,1.9,0.3,2.6
	c0,0.1,0,0.2,0,0.4c0,0.1,0,0.3-0.1,0.5h-3.4v5.1h2.2C35,49,34.1,52,33.1,54.9c-0.6-0.5-1.1-0.9-1.7-1.3c-0.8-0.5-1.6-0.8-2.4-0.9
	c-0.3,0-0.6-0.1-0.9-0.1H28c-0.5,0-1.1,0.1-1.6,0.3c-1.1,0.3-2.2,0.9-3.2,1.9c-0.9-2.9-1.8-5.9-2.5-8.4c0.4,0-0.7,0,2.6,0v-5.1
	L20.9,41.3L20.9,41.3z M49.9,36.4c-0.1,0.2-0.2,0.4-0.4,0.6c-0.6,0.8-1.3,1.7-2.4,2.4C46,40.1,43.9,40,42,39.6c0,0,0,0,0-0.1
	c0-0.9-0.1-1.8-0.3-2.6c-0.1-0.6-0.3-1.1-0.4-1.6c0.8-0.1,1.7-0.2,2.5-0.1c0.6,0.1,1.2,0.2,1.7,0.3C47.5,35.8,48.9,36.2,49.9,36.4
	L49.9,36.4z"/>
</svg>
