<?xml version="1.0" encoding="utf-8"?>
<!-- Generator: Adobe Illustrator 25.1.0, SVG Export Plug-In . SVG Version: 6.00 Build 0)  -->
<svg version="1.1" id="Layer_1" xmlns="http://www.w3.org/2000/svg" xmlns:xlink="http://www.w3.org/1999/xlink" x="0px" y="0px"
	 viewBox="0 0 164 164" style="enable-background:new 0 0 164 164;" xml:space="preserve">
<g>
	<path style="fill:#B8CC7A;" d="M81.5,47.7l25.7,22.1c8.5,7.3,21.3,6.4,28.7-2.2c7.3-8.5,6.4-21.3-2.2-28.7h0L108,16.9
		c-8.5-7.3-21.3-6.4-28.7,2.2C72,27.6,73,40.4,81.5,47.7z M129.7,62.4c-4.4,5.1-12.2,5.7-17.3,1.3l0,0l-9.1-7.9L119,37.1l9.3,8
		C133.5,49.5,134.1,57.3,129.7,62.4z M85.4,24.3c4.4-5.1,12.2-5.7,17.3-1.3l10.2,8.8L97.1,50.6l-10.4-8.9
		C81.6,37.2,81,29.5,85.4,24.3z"/>
	<path style="fill:#B8CC7A;" d="M69.7,64.2c-7.1-6.1-17.8-5.3-23.9,1.8v0L27.4,87.4c-6.1,7.1-5.3,17.8,1.8,23.9
		c7.1,6.1,17.8,5.3,23.9-1.8l18.4-21.4C77.6,81,76.8,70.3,69.7,64.2z M48,105.1c-3.7,4.3-10.1,4.8-14.4,1.1
		c-4.3-3.7-4.8-10.1-1.1-14.4l7.3-8.5l15.6,13.2L48,105.1z M66.4,83.7L66.4,83.7l-6.6,7.6L44.2,78.1l6.7-7.8
		c3.7-4.3,10.1-4.8,14.4-1.1C69.6,73,70.1,79.4,66.4,83.7z"/>
	<path style="fill:#B8CC7A;" d="M107.7,87.6c-17.8,0-32.2,14.4-32.2,32.2c0,17.8,14.4,32.2,32.2,32.2c17.8,0,32.2-14.4,32.2-32.2
		C139.9,102,125.4,87.6,107.7,87.6z M83.5,119.8c0-13.3,10.8-24.1,24.1-24.1c4,0,7.8,1,11.1,2.7l-28.4,38.2
		C86.1,132.3,83.5,126.3,83.5,119.8z M107.7,143.9c-3.9,0-7.5-0.9-10.8-2.6l28.4-38.1c4.1,4.3,6.6,10.1,6.6,16.5
		C131.8,133.1,121,143.9,107.7,143.9z"/>
</g>
</svg>
