<?xml version="1.0" encoding="utf-8"?>
<!-- Generator: Adobe Illustrator 25.1.0, SVG Export Plug-In . SVG Version: 6.00 Build 0)  -->
<svg version="1.1" id="Layer_1" xmlns="http://www.w3.org/2000/svg" xmlns:xlink="http://www.w3.org/1999/xlink" x="0px" y="0px"
	 viewBox="0 0 164 164" style="enable-background:new 0 0 164 164;" xml:space="preserve">
<path style="fill:#B8CC7A;" d="M151.1,119.8c-1.1-1-2.9-1-4,0.2l-8.6,9.2l-5-4.6l8-8.6c1-1.1,1-2.9-0.2-3.9L65.3,42.3
	c-1.1-1-2.8-1-3.9,0.1l-0.1,0.1l-3,3.2L45.6,33.9c-1.1-1-2.9-1-4,0.2l-3.2,3.5l-21.8-20c-1.1-1-2.9-1-4,0.2c-1,1.1-1,2.9,0.2,3.9
	l21.8,20l-3,3.2c-1,1.1-1,2.8,0.1,3.8l0.1,0.1l12.7,11.7l-3,3.2c-1,1.1-1,2.9,0.2,3.9l76.1,69.9c1.1,1,2.9,1,4-0.2l8-8.6l5,4.6
	l-8.6,9.2c-1,1.1-1,2.9,0.2,3.9c1.1,1,2.9,1,4-0.2l10.5-11.3c0,0,0,0,0,0c0,0,0,0,0,0l10.5-11.3
	C152.3,122.6,152.2,120.8,151.1,119.8z M37.7,46.6l6.2-6.7l10.7,9.8l-6.2,6.7L37.7,46.6z M119.6,131.5l-7.1-6.6l5.3-5.7
	c1-1.1,1-2.9-0.2-3.9c-1.1-1-2.9-1-4,0.2l-5.3,5.7l-8.9-8.2l5.3-5.7c1-1.1,1-2.9-0.2-3.9c-1.1-1-2.9-1-4,0.2l-5.3,5.7l-8.9-8.2
	l5.3-5.7c1-1.1,1-2.9-0.2-3.9c-1.1-1-2.9-1-4,0.2l-5.3,5.7L73.3,89l5.3-5.7c1-1.1,1-2.9-0.2-3.9c-1.1-1-2.9-1-4,0.2l-5.3,5.7
	l-8.9-8.2l5.3-5.7c1-1.1,1-2.9-0.2-3.9c-1.1-1-2.9-1-4,0.2l-5.3,5.7l-8.6-7.9l16-17.2l72,66.1L119.6,131.5z"/>
</svg>
