<svg width="144" height="143" viewBox="0 0 144 143" fill="none" xmlns="http://www.w3.org/2000/svg">
<path d="M123 99.3281C123 78.2291 105.791 61.125 84.5625 61.125C63.3341 61.125 46.125 78.2291 46.125 99.3281C46.125 120.427 63.3341 137.531 84.5625 137.531C105.791 137.531 123 120.427 123 99.3281ZM128.125 99.3281C128.125 123.24 108.621 142.625 84.5625 142.625C60.5036 142.625 41 123.24 41 99.3281C41 75.4159 60.5036 56.0312 84.5625 56.0312C108.621 56.0312 128.125 75.4159 128.125 99.3281Z" fill="#636363"/>
<path d="M61.5 33.1094C61.5 17.6368 48.88 5.09375 33.3125 5.09375C17.745 5.09375 5.125 17.6368 5.125 33.1094C5.125 48.582 17.745 61.125 33.3125 61.125C48.88 61.125 61.5 48.582 61.5 33.1094ZM66.625 33.1094C66.625 51.3952 51.7105 66.2188 33.3125 66.2188C14.9145 66.2188 0 51.3952 0 33.1094C0 14.8236 14.9145 0 33.3125 0C51.7105 0 66.625 14.8236 66.625 33.1094Z" fill="#636363"/>
<path d="M138.375 28.0156C138.375 15.3562 128.05 5.09375 115.312 5.09375C102.575 5.09375 92.25 15.3562 92.25 28.0156C92.25 40.675 102.575 50.9375 115.312 50.9375C128.05 50.9375 138.375 40.675 138.375 28.0156ZM143.5 28.0156C143.5 43.4882 130.88 56.0312 115.312 56.0312C99.745 56.0312 87.125 43.4882 87.125 28.0156C87.125 12.543 99.745 0 115.312 0C130.88 0 143.5 12.543 143.5 28.0156Z" fill="#636363"/>
<path d="M112.75 15.2812C113.638 15.2812 114.463 15.7392 114.93 16.49C115.396 17.2408 115.439 18.1779 115.042 18.9673L106.647 35.6562H112.75C114.165 35.6562 115.312 36.7965 115.312 38.2031C115.312 39.6097 114.165 40.75 112.75 40.75H102.5C101.612 40.75 100.787 40.2921 100.32 39.5412C99.8538 38.7905 99.8107 37.8533 100.208 37.064L108.603 20.375H102.5C101.085 20.375 99.9375 19.2347 99.9375 17.8281C99.9375 16.4215 101.085 15.2812 102.5 15.2812H112.75Z" fill="#636363"/>
<path d="M128.125 38.2031V30.5625C128.125 29.1574 126.976 28.0156 125.562 28.0156C124.149 28.0156 123 29.1574 123 30.5625V38.2031C123 39.6097 121.853 40.75 120.438 40.75C119.022 40.75 117.875 39.6097 117.875 38.2031V30.5625C117.875 26.3441 121.318 22.9219 125.562 22.9219C129.807 22.9219 133.25 26.3441 133.25 30.5625V38.2031C133.25 39.6097 132.103 40.75 130.688 40.75C129.272 40.75 128.125 39.6097 128.125 38.2031Z" fill="#636363"/>
<path d="M117.875 30.5625V25.4688C117.875 24.0621 119.022 22.9219 120.438 22.9219C121.853 22.9219 123 24.0621 123 25.4688V30.5625C123 31.9691 121.853 33.1094 120.438 33.1094C119.022 33.1094 117.875 31.9691 117.875 30.5625Z" fill="#636363"/>
<path d="M25.625 26.7422C25.625 24.6316 23.9048 22.9219 21.7812 22.9219C19.6577 22.9219 17.9375 24.6316 17.9375 26.7422V39.4766C17.9375 41.5872 19.6577 43.2969 21.7812 43.2969C23.9048 43.2969 25.625 41.5872 25.625 39.4766C25.625 38.07 26.7723 36.9297 28.1875 36.9297C29.6027 36.9297 30.75 38.07 30.75 39.4766C30.75 44.4004 26.7353 48.3906 21.7812 48.3906C16.8272 48.3906 12.8125 44.4004 12.8125 39.4766V26.7422C12.8125 21.8184 16.8272 17.8281 21.7812 17.8281C26.7353 17.8281 30.75 21.8184 30.75 26.7422C30.75 28.1488 29.6027 29.2891 28.1875 29.2891C26.7723 29.2891 25.625 28.1488 25.625 26.7422Z" fill="#636363"/>
<path d="M46.125 36.9297C46.125 34.8191 44.4048 33.1094 42.2812 33.1094C40.1577 33.1094 38.4375 34.8191 38.4375 36.9297V39.4766C38.4375 41.5872 40.1577 43.2969 42.2812 43.2969C44.4048 43.2969 46.125 41.5872 46.125 39.4766V36.9297ZM51.25 39.4766C51.25 44.4004 47.2353 48.3906 42.2812 48.3906C37.3272 48.3906 33.3125 44.4004 33.3125 39.4766V36.9297C33.3125 32.0059 37.3272 28.0156 42.2812 28.0156C47.2353 28.0156 51.25 32.0059 51.25 36.9297V39.4766Z" fill="#636363"/>
<path d="M46.125 43.2969V30.5625C46.125 29.1559 47.2723 28.0156 48.6875 28.0156C50.1027 28.0156 51.25 29.1559 51.25 30.5625V43.2969C52.6652 43.2969 53.8125 44.4371 53.8125 45.8438C53.8125 47.2504 52.6652 48.3906 51.25 48.3906C48.416 48.3906 46.125 46.1077 46.125 43.2969Z" fill="#636363"/>
<path d="M82 112.063V89.4441L73.8345 100.808C73.3535 101.477 72.5776 101.875 71.75 101.875C70.9224 101.875 70.1465 101.477 69.6655 100.808L61.5 89.4441V112.063C61.5 113.469 60.3527 114.609 58.9375 114.609C57.5223 114.609 56.375 113.469 56.375 112.063V81.5L56.4075 81.0921C56.5596 80.1584 57.2265 79.371 58.1542 79.075C59.215 78.7371 60.3746 79.1192 61.022 80.0201L71.75 94.9457L82.478 80.0201C83.1254 79.1192 84.285 78.7371 85.3458 79.075C86.4059 79.4133 87.125 80.3933 87.125 81.5V112.063C87.125 113.469 85.9777 114.609 84.5625 114.609C83.1473 114.609 82 113.469 82 112.063Z" fill="#636363"/>
<path d="M105.062 103.148C105.062 101.038 103.342 99.3281 101.219 99.3281C99.0952 99.3281 97.375 101.038 97.375 103.148V105.695C97.375 107.806 99.0952 109.516 101.219 109.516H105.062V103.148ZM110.188 112.062C110.188 113.469 109.04 114.609 107.625 114.609H101.219C96.2647 114.609 92.25 110.619 92.25 105.695V103.148C92.25 98.2246 96.2647 94.2344 101.219 94.2344C106.173 94.2344 110.188 98.2246 110.188 103.148V112.062Z" fill="#636363"/>
<path d="M92.25 118.43C92.25 117.023 93.3973 115.883 94.8125 115.883C96.2277 115.883 97.375 117.023 97.375 118.43C97.375 120.54 99.0952 122.25 101.219 122.25C103.342 122.25 105.062 120.54 105.062 118.43V112.062C105.062 110.656 106.21 109.516 107.625 109.516C109.04 109.516 110.188 110.656 110.188 112.062V118.43C110.188 123.354 106.173 127.344 101.219 127.344C96.2647 127.344 92.25 123.354 92.25 118.43Z" fill="#636363"/>
<path d="M105.062 103.148V96.7812C105.062 95.3746 106.21 94.2344 107.625 94.2344C109.04 94.2344 110.188 95.3746 110.188 96.7812V103.148C110.188 104.555 109.04 105.695 107.625 105.695C106.21 105.695 105.062 104.555 105.062 103.148Z" fill="#636363"/>
</svg>
