<?xml version="1.0" encoding="utf-8"?>
<!-- Generator: Adobe Illustrator 25.1.0, SVG Export Plug-In . SVG Version: 6.00 Build 0)  -->
<svg version="1.1" id="Layer_1" xmlns="http://www.w3.org/2000/svg" xmlns:xlink="http://www.w3.org/1999/xlink" x="0px" y="0px"
	 viewBox="0 0 164 164" style="enable-background:new 0 0 164 164;" xml:space="preserve">
<path style="fill:#B8CC7A;" d="M110.9,47.5c-1.1,0.2-1.9,1.2-1.8,2.4c0.8,6.2,0.5,11.6-1,16.2l-4.9-30.7c-1.1-8-10.1-23.4-21-23.4
	c-0.2,0-0.4,0-0.5,0c-0.1,0-0.1,0-0.2,0c-0.2,0-0.4,0-0.6,0.1c-10.3,1.2-18.6,15.7-19.7,23.6L56.4,65c-1.6-4.3-2-9.3-1.2-15.1
	c0.1-1.1-0.6-2.2-1.8-2.4c-1.1-0.2-2.2,0.5-2.4,1.7c-0.5,2.5-12.6,62,3.1,82.3c3,3.9,6.8,6.1,11.3,6.8c0.4,1.5,1.2,3.7,2.5,5.9
	c3.2,5.1,8,7.8,14,7.8c6,0,10.8-2.8,13.8-8c1.3-2.3,2.1-4.6,2.4-6c4.5-0.6,8.4-2.9,11.4-6.8c15.8-20.3,4.2-79.5,3.7-82
	C113.1,48,112,47.3,110.9,47.5L110.9,47.5z M95.8,27.6c1.6,2.8,2.7,5.7,3,7.9h-3.7v-7.9H95.8z M90.9,81.8c-0.8,0.6-1.6,1.4-2.3,2.2
	h-5.1v-7.9h7.4V81.8z M72.6,81.8v-5.7h6.7V84h-4.8C73.9,83.2,73.2,82.4,72.6,81.8L72.6,81.8z M72.6,51.9h6.7v7.9h-6.7V51.9z
	 M68.3,59.7h-6.7l1.3-7.9h5.4L68.3,59.7L68.3,59.7z M99.6,39.7l1.3,7.9h-5.6v-7.9H99.6z M95.2,51.9h6.3l1.3,7.9h-7.6V51.9z
	 M90.9,59.7h-7.4v-7.9h7.4V59.7z M90.9,47.6h-7.4v-7.9h7.4V47.6z M79.3,47.6h-6.7v-7.9h6.7V47.6z M79.3,64v7.9h-6.7V64H79.3z
	 M83.6,71.9V64h7.4v7.9H83.6z M95.2,64h8.2l1.3,7.9h-9.5V64z M90.9,35.5h-7.4v-7.9h7.4V35.5z M79.3,35.5h-6.7v-7.9h6.7V35.5z
	 M68.3,28.2v7.3h-2.8C65.9,33.4,66.9,30.8,68.3,28.2z M68.3,39.7v7.9h-4.7l1.3-7.9H68.3L68.3,39.7z M60.9,64h7.4v7.9h-7.9
	c-0.2-0.3-0.4-0.5-0.6-0.8L60.9,64z M68.3,76.1v2.6c-1.3-0.9-2.5-1.7-3.5-2.6H68.3z M79.3,88.3v5.3c-0.7-2-1.5-3.8-2.2-5.3H79.3z
	 M83.6,88.3h2.4c-0.9,1.7-1.7,3.7-2.4,6V88.3z M95.2,76.1h6.2c-1.8,1.5-3.9,2.6-6.2,3.5V76.1z M90.9,20.9v2.4h-7.4v-6.9
	C86.2,16.9,88.7,18.6,90.9,20.9z M79.3,16.8v6.5h-6.7v-0.5c0-0.3-0.1-0.5-0.1-0.8C74.5,19.7,76.8,17.7,79.3,16.8L79.3,16.8z
	 M106.2,128.6c-2.6,3.4-5.8,5.1-9.9,5.3c-1,0.1-1.9,0.8-2,1.9c0,0-0.4,3.1-2.2,6.1c-2.3,3.9-5.7,5.9-10.1,5.9s-7.9-1.9-10.3-5.7
	c-1.9-3-2.4-6.1-2.4-6.1c-0.1-1-1-1.8-2-1.8c-4-0.2-7.2-1.9-9.8-5.3c-5.9-7.6-8.2-23.6-6.7-46.2c0.4-5.7,1-11.2,1.6-16
	c1.3,3.3,3,6.1,5.2,8.6c0.1,0.1,0.2,0.3,0.3,0.4c3,3.4,6.7,6,10.3,8.2c6.9,4.3,10.8,24.5,11.8,32c0.1,1.1,1.1,1.9,2.2,1.9
	c1.1,0,2-0.9,2-2.1c0-0.1,0.3-7.3,2-15c2.1-9.4,5.4-15.3,9.3-16.6c6.5-2.1,11.5-6.3,14.6-12c0.7-1.2,1.2-2.5,1.7-3.8
	c0.5,4.4,1,9.3,1.3,14.3C114.6,105,112.2,120.9,106.2,128.6L106.2,128.6z M65.7,125.8c-3.6-0.5-6.4-8.5-7.4-21.3
	C57.4,93.6,58,82.8,58,82.7c0.1-1.2-0.8-2.2-2-2.2c-1.2-0.1-2.2,0.8-2.2,2c0,0.5-0.6,11.2,0.3,22.3c1.3,16.1,4.9,24.4,11.1,25.2
	c0.1,0,0.2,0,0.3,0c1,0,2-0.8,2.1-1.8C67.7,127.1,66.9,126,65.7,125.8L65.7,125.8z"/>
</svg>
