<svg width="135" height="136" viewBox="0 0 135 136" fill="none" xmlns="http://www.w3.org/2000/svg">
<path d="M49.5001 136H85.5001C89.6756 135.995 93.6785 134.321 96.6311 131.347C99.5836 128.372 101.245 124.34 101.25 120.133V106.533C101.254 105.576 101.056 104.629 100.668 103.756C100.28 102.882 99.7112 102.102 99.0001 101.467V52.666C99.7113 52.0315 100.28 51.2514 100.668 50.3777C101.056 49.5041 101.254 48.5571 101.25 47.6V36.2667C101.245 32.06 99.5844 28.0271 96.6317 25.0525C93.6791 22.078 89.6758 20.4048 85.5001 20.4H78.7501C78.1533 20.4 77.581 20.1612 77.1591 19.7361C76.7371 19.311 76.5001 18.7345 76.5001 18.1333V12.9699C77.1819 12.5751 77.7487 12.0067 78.1436 11.3216C78.5386 10.6366 78.7477 9.85889 78.7501 9.06667V4.53333C78.7501 3.33102 78.276 2.17795 77.4321 1.32778C76.5881 0.477618 75.4435 0 74.2501 0L60.7501 0C59.5566 0 58.412 0.477618 57.5681 1.32778C56.7242 2.17795 56.2501 3.33102 56.2501 4.53333V9.06667C56.2524 9.85889 56.4616 10.6366 56.8565 11.3216C57.2514 12.0067 57.8182 12.5751 58.5001 12.9699V18.1333C58.5001 18.7345 58.263 19.311 57.8411 19.7361C57.4191 20.1612 56.8468 20.4 56.2501 20.4H49.5001C45.3244 20.4048 41.3211 22.078 38.3684 25.0525C35.4157 28.0271 33.7548 32.06 33.7501 36.2667V47.6C33.7457 48.5571 33.9441 49.5041 34.3321 50.3777C34.7201 51.2514 35.2888 52.0315 36.0001 52.666V101.467C35.2889 102.102 34.7203 102.882 34.3323 103.756C33.9443 104.629 33.7458 105.576 33.7501 106.533V120.133C33.7554 124.34 35.4165 128.372 38.3691 131.347C41.3216 134.321 45.3246 135.995 49.5001 136ZM60.7501 4.53333H74.2501V9.06667H60.7501V4.53333ZM38.2501 106.533C38.2501 106.135 38.3541 105.745 38.5515 105.4C38.749 105.055 39.033 104.769 39.3751 104.57C39.7164 104.37 40.1049 104.265 40.5001 104.267H49.5001C50.0968 104.267 50.6691 104.028 51.0911 103.603C51.513 103.178 51.7501 102.601 51.7501 102C51.7501 101.399 51.513 100.822 51.0911 100.397C50.6691 99.9721 50.0968 99.7333 49.5001 99.7333H40.5001V54.4H49.5001C50.0968 54.4 50.6691 54.1612 51.0911 53.7361C51.513 53.311 51.7501 52.7345 51.7501 52.1333C51.7501 51.5322 51.513 50.9556 51.0911 50.5306C50.6691 50.1055 50.0968 49.8667 49.5001 49.8667H40.5001C40.1097 49.8668 39.7262 49.7628 39.3886 49.5652C39.0437 49.3678 38.7567 49.0821 38.5568 48.7369C38.3569 48.3918 38.251 47.9996 38.2501 47.6V36.2667C38.2536 33.262 39.4401 30.3814 41.5491 28.2568C43.6581 26.1321 46.5175 24.9369 49.5001 24.9333H56.2501C58.0403 24.9333 59.7572 24.2169 61.023 22.9417C62.2889 21.6664 63.0001 19.9368 63.0001 18.1333V13.6H72.0001V18.1333C72.0001 19.9368 72.7112 21.6664 73.9771 22.9417C75.243 24.2169 76.9599 24.9333 78.7501 24.9333H85.5001C88.4827 24.9369 91.3421 26.1321 93.4511 28.2568C95.5601 30.3814 96.7465 33.262 96.7501 36.2667V47.6C96.7501 47.9979 96.6461 48.3887 96.4486 48.7333C96.2511 49.0779 95.9671 49.364 95.6251 49.5629C95.2837 49.7636 94.8953 49.8685 94.5001 49.8667H85.5001C84.9033 49.8667 84.331 50.1055 83.9091 50.5306C83.4871 50.9556 83.2501 51.5322 83.2501 52.1333C83.2501 52.7345 83.4871 53.311 83.9091 53.7361C84.331 54.1612 84.9033 54.4 85.5001 54.4H94.5001V99.7333H85.5001C84.9033 99.7333 84.331 99.9721 83.9091 100.397C83.4871 100.822 83.2501 101.399 83.2501 102C83.2501 102.601 83.4871 103.178 83.9091 103.603C84.331 104.028 84.9033 104.267 85.5001 104.267H94.5001C94.8905 104.267 95.274 104.371 95.6116 104.568C95.9565 104.766 96.2434 105.051 96.4433 105.396C96.6433 105.742 96.7491 106.134 96.7501 106.533V120.133C96.7465 123.138 95.5601 126.019 93.4511 128.143C91.3421 130.268 88.4827 131.463 85.5001 131.467H49.5001C46.5175 131.463 43.6581 130.268 41.5491 128.143C39.4401 126.019 38.2536 123.138 38.2501 120.133V106.533Z" fill="#636363"/>
<path d="M56.1573 91.2401L60.8665 94.0327C60.6865 95.0137 60.7229 96.0227 60.9733 96.988C61.2237 97.9534 61.6818 98.8513 62.3153 99.6183C62.9488 100.385 63.742 101.002 64.6387 101.426C65.5354 101.849 66.5137 102.069 67.504 102.069C68.4944 102.069 69.4727 101.849 70.3694 101.426C71.2661 101.002 72.0593 100.385 72.6928 99.6183C73.3263 98.8513 73.7844 97.9534 74.0348 96.988C74.2852 96.0227 74.3216 95.0137 74.1415 94.0327L78.8508 91.2401C80.0649 92.323 81.628 92.9247 83.2495 92.9333C84.8399 92.9364 86.38 92.3723 87.5971 91.341C88.8142 90.3097 89.6297 88.8778 89.8992 87.2988C90.1687 85.7198 89.8747 84.0957 89.0695 82.7141C88.2642 81.3325 86.9996 80.2826 85.4995 79.7504V74.3829C86.4385 74.0546 87.2936 73.5208 88.0034 72.8199C88.7133 72.1191 89.2602 71.2685 89.6049 70.3294C89.9496 69.3902 90.0835 68.3858 89.997 67.3884C89.9105 66.3909 89.6058 65.4251 89.1048 64.5603C88.6037 63.6956 87.9187 62.9534 87.099 62.3871C86.2794 61.8208 85.3454 61.4444 84.3641 61.285C83.3829 61.1256 82.3788 61.1872 81.4239 61.4652C80.4691 61.7433 79.5873 62.2309 78.8418 62.8932L74.1326 60.1006C74.3126 59.1196 74.2762 58.1106 74.0258 57.1453C73.7754 56.18 73.3173 55.282 72.6838 54.515C72.0503 53.7481 71.2571 53.1309 70.3604 52.7074C69.4637 52.2839 68.4854 52.0643 67.495 52.0643C66.5047 52.0643 65.5264 52.2839 64.6297 52.7074C63.733 53.1309 62.9397 53.7481 62.3063 54.515C61.6728 55.282 61.2147 56.18 60.9643 57.1453C60.7139 58.1106 60.6775 59.1196 60.8575 60.1006L56.1483 62.8932C54.9342 61.8103 53.371 61.2086 51.7495 61.2C50.1592 61.1969 48.6191 61.761 47.402 62.7923C46.1849 63.8236 45.3694 65.2555 45.0999 66.8345C44.8304 68.4135 45.1243 70.0376 45.9296 71.4192C46.7349 72.8008 47.9995 73.8507 49.4995 74.3829V79.7504C48.5606 80.0787 47.7055 80.6125 46.9956 81.3134C46.2858 82.0142 45.7389 82.8648 45.3942 83.8039C45.0495 84.7431 44.9156 85.7475 45.0021 86.745C45.0886 87.7424 45.3933 88.7082 45.8943 89.573C46.3954 90.4377 47.0804 91.1799 47.9001 91.7462C48.7197 92.3125 49.6537 92.6889 50.635 92.8483C51.6162 93.0077 52.6203 92.9461 53.5752 92.6681C54.53 92.39 55.4118 91.9024 56.1573 91.2401ZM58.4995 68C58.4938 67.6082 58.4547 67.2177 58.3825 66.8327L63.0918 64.0401C64.3048 65.1307 65.8737 65.7335 67.4995 65.7335C69.1254 65.7335 70.6943 65.1307 71.9073 64.0401L76.6165 66.8327C76.3165 68.4124 76.5953 70.0481 77.4013 71.4365C78.2073 72.8249 79.4857 73.8718 80.9995 74.3829V79.7504C79.4857 80.2615 78.2073 81.3084 77.4013 82.6968C76.5953 84.0852 76.3165 85.7209 76.6165 87.3007L71.9073 90.0932C70.6943 89.0026 69.1254 88.3998 67.4995 88.3998C65.8737 88.3998 64.3048 89.0026 63.0918 90.0932L58.3825 87.3007C58.6826 85.7209 58.4038 84.0852 57.5978 82.6968C56.7918 81.3084 55.5134 80.2615 53.9995 79.7504V74.3829C55.3111 73.9158 56.4473 73.0519 57.2528 71.9093C58.0584 70.7667 58.4938 69.4014 58.4995 68ZM67.4995 97.4667C67.0545 97.4667 66.6195 97.3337 66.2495 97.0847C65.8795 96.8356 65.5911 96.4816 65.4208 96.0674C65.2505 95.6532 65.206 95.1975 65.2928 94.7578C65.3796 94.3181 65.5939 93.9142 65.9086 93.5972C66.2232 93.2802 66.6241 93.0643 67.0606 92.9769C67.497 92.8894 67.9495 92.9343 68.3606 93.1059C68.7717 93.2774 69.1231 93.5679 69.3704 93.9407C69.6176 94.3134 69.7495 94.7517 69.7495 95.2C69.7495 95.8011 69.5125 96.3777 69.0905 96.8028C68.6686 97.2278 68.0963 97.4667 67.4995 97.4667ZM83.2495 88.4C82.8045 88.4 82.3695 88.267 81.9995 88.018C81.6295 87.7689 81.3411 87.4149 81.1708 87.0007C81.0005 86.5866 80.956 86.1308 81.0428 85.6911C81.1296 85.2514 81.3439 84.8475 81.6586 84.5305C81.9732 84.2135 82.3741 83.9977 82.8106 83.9102C83.2471 83.8227 83.6995 83.8676 84.1106 84.0392C84.5217 84.2108 84.8731 84.5013 85.1204 84.874C85.3676 85.2468 85.4995 85.685 85.4995 86.1333C85.4995 86.7345 85.2625 87.311 84.8405 87.7361C84.4186 88.1612 83.8463 88.4 83.2495 88.4ZM83.2495 65.7333C83.6946 65.7333 84.1296 65.8663 84.4996 66.1153C84.8696 66.3644 85.158 66.7184 85.3283 67.1326C85.4986 67.5468 85.5431 68.0025 85.4563 68.4422C85.3695 68.8819 85.1552 69.2858 84.8405 69.6028C84.5259 69.9198 84.125 70.1356 83.6885 70.2231C83.252 70.3106 82.7996 70.2657 82.3885 70.0941C81.9774 69.9226 81.626 69.632 81.3787 69.2593C81.1315 68.8865 80.9995 68.4483 80.9995 68C80.9995 67.3988 81.2366 66.8223 81.6586 66.3972C82.0805 65.9721 82.6528 65.7333 83.2495 65.7333ZM67.4995 56.6667C67.9446 56.6667 68.3796 56.7996 68.7496 57.0487C69.1196 57.2977 69.408 57.6517 69.5783 58.0659C69.7486 58.4801 69.7931 58.9358 69.7063 59.3755C69.6195 59.8152 69.4052 60.2191 69.0905 60.5361C68.7759 60.8531 68.375 61.069 67.9385 61.1564C67.502 61.2439 67.0496 61.199 66.6385 61.0274C66.2274 60.8559 65.876 60.5654 65.6287 60.1926C65.3815 59.8199 65.2495 59.3816 65.2495 58.9333C65.2495 58.3322 65.4866 57.7556 65.9086 57.3305C66.3305 56.9055 66.9028 56.6667 67.4995 56.6667ZM51.7495 65.7333C52.1946 65.7333 52.6296 65.8663 52.9996 66.1153C53.3696 66.3644 53.658 66.7184 53.8283 67.1326C53.9986 67.5468 54.0431 68.0025 53.9563 68.4422C53.8695 68.8819 53.6552 69.2858 53.3405 69.6028C53.0259 69.9198 52.625 70.1356 52.1885 70.2231C51.752 70.3106 51.2996 70.2657 50.8885 70.0941C50.4774 69.9226 50.126 69.632 49.8787 69.2593C49.6315 68.8865 49.4995 68.4483 49.4995 68C49.4995 67.3988 49.7366 66.8223 50.1586 66.3972C50.5805 65.9721 51.1528 65.7333 51.7495 65.7333ZM49.4995 86.1333C49.4995 85.685 49.6315 85.2468 49.8787 84.874C50.126 84.5013 50.4774 84.2108 50.8885 84.0392C51.2996 83.8676 51.752 83.8227 52.1885 83.9102C52.625 83.9977 53.0259 84.2135 53.3405 84.5305C53.6552 84.8475 53.8695 85.2514 53.9563 85.6911C54.0431 86.1308 53.9986 86.5866 53.8283 87.0007C53.658 87.4149 53.3696 87.7689 52.9996 88.018C52.6296 88.267 52.1946 88.4 51.7495 88.4C51.1528 88.4 50.5805 88.1612 50.1586 87.7361C49.7366 87.311 49.4995 86.7345 49.4995 86.1333Z" fill="#636363"/>
<path d="M49.5 126.933H56.25C56.8467 126.933 57.419 126.695 57.841 126.269C58.2629 125.844 58.5 125.268 58.5 124.667C58.5 124.065 58.2629 123.489 57.841 123.064C57.419 122.639 56.8467 122.4 56.25 122.4H49.5C48.9033 122.4 48.331 122.161 47.909 121.736C47.4871 121.311 47.25 120.734 47.25 120.133V113.333C47.25 112.732 47.0129 112.156 46.591 111.731C46.169 111.305 45.5967 111.067 45 111.067C44.4033 111.067 43.831 111.305 43.409 111.731C42.9871 112.156 42.75 112.732 42.75 113.333V120.133C42.75 121.937 43.4612 123.666 44.727 124.942C45.9929 126.217 47.7098 126.933 49.5 126.933Z" fill="#636363"/>
<path d="M58.5 31.7333C58.5 31.1322 58.2629 30.5556 57.841 30.1306C57.419 29.7055 56.8467 29.4667 56.25 29.4667H49.5C47.7098 29.4667 45.9929 30.1831 44.727 31.4583C43.4612 32.7336 42.75 34.4632 42.75 36.2667V43.0667C42.75 43.6678 42.9871 44.2444 43.409 44.6695C43.831 45.0945 44.4033 45.3333 45 45.3333C45.5967 45.3333 46.169 45.0945 46.591 44.6695C47.0129 44.2444 47.25 43.6678 47.25 43.0667V36.2667C47.25 35.6655 47.4871 35.089 47.909 34.6639C48.331 34.2388 48.9033 34 49.5 34H56.25C56.8467 34 57.419 33.7612 57.841 33.3361C58.2629 32.911 58.5 32.3345 58.5 31.7333Z" fill="#636363"/>
</svg>
