<?xml version="1.0" encoding="utf-8"?>
<!-- Generator: Adobe Illustrator 25.1.0, SVG Export Plug-In . SVG Version: 6.00 Build 0)  -->
<svg version="1.1" id="Layer_1" xmlns="http://www.w3.org/2000/svg" xmlns:xlink="http://www.w3.org/1999/xlink" x="0px" y="0px"
	 viewBox="0 0 164 164" style="enable-background:new 0 0 164 164;" xml:space="preserve">
<path style="fill:#586440;" d="M102.2,104c-2.9,9.6-11.4,16.1-21.2,16.1c-9.8,0-18.4-6.5-21.2-16.1c-1.6-5.3-6.3-8.9-11.7-8.9H22v46
	h117.9v-46h-26C108.5,95.1,103.8,98.7,102.2,104L102.2,104z M48,99.6c3.5,0,6.6,2.3,7.6,5.8c0.2,0.8,0.5,1.6,0.8,2.3H26.2v-8.1
	L48,99.6L48,99.6z M26.3,136.8V112h32.4c4.8,7.7,13,12.5,22.3,12.5c9.3,0,17.5-4.8,22.3-12.5h32.4v24.8H26.3z M135.6,107.6h-30.2
	c0.3-0.8,0.6-1.5,0.8-2.3c1-3.5,4.1-5.8,7.6-5.8h21.7L135.6,107.6L135.6,107.6z M32.1,116.3c-1,0.5-1.5,1.7-1,2.8
	c0.4,1.1,1.6,1.5,2.7,1.1c1-0.5,1.5-1.7,1-2.8C34.3,116.3,33.1,115.8,32.1,116.3z M46.5,117.7c-1,0.5-1.5,1.7-1,2.8
	c0.4,1.1,1.6,1.5,2.7,1.1c1-0.5,1.5-1.7,1-2.8C48.7,117.7,47.5,117.2,46.5,117.7z M56.3,129.3c-1,0.5-1.5,1.7-1,2.8
	c0.4,1.1,1.6,1.5,2.7,1.1c1-0.5,1.5-1.7,1-2.8C58.5,129.3,57.3,128.8,56.3,129.3z M59.8,119.8c-1,0.5-1.5,1.7-1,2.8
	c0.4,1.1,1.6,1.5,2.7,1.1c1-0.5,1.5-1.7,1-2.8C62,119.8,60.8,119.3,59.8,119.8z M76.3,128.4c-1,0.5-1.5,1.7-1,2.8
	c0.4,1.1,1.6,1.5,2.7,1.1c1-0.5,1.5-1.7,1-2.8C78.5,128.4,77.3,128,76.3,128.4z M105.4,120.6c-1,0.5-1.5,1.7-1,2.8
	c0.4,1.1,1.6,1.5,2.7,1.1c1-0.5,1.5-1.7,1-2.8C107.6,120.6,106.4,120.2,105.4,120.6z M120.7,117.1c-1,0.5-1.5,1.7-1,2.8
	c0.5,1.1,1.6,1.5,2.7,1.1c1-0.5,1.5-1.7,1-2.8C122.9,117.1,121.7,116.6,120.7,117.1z M128.9,128.4c-1,0.5-1.5,1.7-1,2.8
	c0.4,1.1,1.6,1.5,2.7,1.1c1-0.5,1.5-1.7,1-2.8C131.1,128.4,129.9,128,128.9,128.4z M97.7,130.5c-1,0.5-1.5,1.7-1,2.8
	c0.5,1.1,1.6,1.5,2.7,1.1c1-0.5,1.5-1.7,1-2.8C99.9,130.5,98.7,130.1,97.7,130.5z M118,130c-1,0.5-1.5,1.7-1,2.8
	c0.4,1.1,1.6,1.5,2.7,1.1c1-0.5,1.5-1.7,1-2.8C120.2,130,119,129.5,118,130z M37.4,128.4c-1,0.5-1.5,1.7-1,2.8
	c0.4,1.1,1.6,1.5,2.7,1.1c1-0.5,1.5-1.7,1-2.8C39.6,128.4,38.4,128,37.4,128.4z M72.5,82.8c-3.3,1.3-4.7,5.6-4.7,5.6
	s3.9,2.1,7.1,0.8c3.3-1.3,4.7-5.6,4.7-5.6S75.8,81.5,72.5,82.8z M88.6,97.1c3.5,0.3,6.6-2.9,6.6-2.9s-2.5-3.7-6-4
	c-3.5-0.3-6.6,2.9-6.6,2.9S85.1,96.8,88.6,97.1z M76,98.2c-3.2-1.5-7.2,0.4-7.2,0.4s1.2,4.4,4.4,5.9c3.2,1.5,7.2-0.4,7.2-0.4
	S79.2,99.7,76,98.2z M78.9,115.5c0,0,3.9,2,7.2,0.6c3.2-1.4,4.5-5.7,4.5-5.7s-3.9-2-7.2-0.6C80.2,111.2,78.9,115.5,78.9,115.5z
	 M140.6,38.7L130,25.1c-1-1.3-2.4-2.1-4-2.3c-1.6-0.2-3.2,0.3-4.4,1.3l-1.9,1.6c-1.7,1.4-2.4,3.5-2.2,5.6l-4.3,2.8
	c-2.1,1.3-4.3,2.3-6.7,2.8l-26.8,5.7c-4.8,1-9.2,3.7-12.4,7.5L56.3,62.9L50.6,70c-2.4,3-2.2,7.3,0.4,10.1c1.4,1.5,3.3,2.3,5.2,2.3
	c1.6,0,3.3-0.5,4.6-1.7l4.8-4.8l13.8-14.6c0.6-0.6,1.4-1.1,2.2-1.5c1.4-0.6,3.1-0.7,4.9-0.3l6.6,1.7l-8.4,5.3
	c-1.8,0.9-3.1,2.5-3.7,4.4c-0.6,1.9-0.5,4,0.4,5.8c1.7,3.5,5.7,5.1,9.3,3.6l15-9.3c3-1.8,6.2-3.4,9.7-4.7c3.6-1.3,7.2-2.9,9.6-6.3
	l7.2-10c0.4,0.1,0.7,0.2,1.2,0.2c0.2,0,0.5,0,0.7,0c1.4,0,2.7-0.5,3.8-1.4l1.9-1.6C142.3,45.2,142.8,41.3,140.6,38.7L140.6,38.7z
	 M121.6,57.4c-1.6,2.3-4.2,3.6-7.5,4.8c-3.8,1.4-7.3,3.1-10.5,5.1l-14.5,9c-1.5,0.5-3.1-0.2-3.8-1.6c-0.4-0.8-0.4-1.6-0.2-2.5
	c0.3-0.8,0.8-1.5,1.7-2l8.6-5.4c1.8-0.9,2.6-2.8,2.2-4.8c-0.4-1.9-1.9-3.2-3.7-3.3l-6.3-1.6c-2.8-0.7-5.4-0.5-7.7,0.6
	c-1.2,0.6-2.3,1.4-3.4,2.4L62.6,72.8l-4.5,4.6c-1.2,0.9-2.9,0.8-4-0.3c-1.1-1.2-1.2-3-0.2-4.2l5.7-7.1l10.8-12.9
	c2.6-3.1,6.2-5.2,10.1-6l26.8-5.7c2.9-0.6,5.6-1.7,8.1-3.3l4-2.5l9.4,12L121.6,57.4L121.6,57.4z M137,43.9l-1.9,1.6
	c-0.4,0.3-0.8,0.4-1.3,0.4c-0.5,0-0.9-0.3-1.2-0.7l-10.6-13.5c-0.6-0.8-0.5-1.9,0.3-2.5l1.9-1.6c0.3-0.3,0.7-0.4,1.1-0.4
	c0.1,0,0.1,0,0.2,0c0.4,0,0.9,0.3,1.2,0.7l10.6,13.5C137.9,42.1,137.8,43.3,137,43.9L137,43.9z"/>
</svg>
