<?xml version="1.0" encoding="utf-8"?>
<!-- Generator: Adobe Illustrator 25.1.0, SVG Export Plug-In . SVG Version: 6.00 Build 0)  -->
<svg version="1.1" id="Layer_1" xmlns="http://www.w3.org/2000/svg" xmlns:xlink="http://www.w3.org/1999/xlink" x="0px" y="0px"
	 viewBox="0 0 164 164" style="enable-background:new 0 0 164 164;" xml:space="preserve">
<path style="fill:#B8CC7A;" d="M118.4,83.2H85.6c0-2.7,0.1-6.4,0.9-9.9c1.1,0.3,2.3,0.4,3.5,0.4c2,0,3.9-0.4,5.8-1.1
	c8.3-3.4,14-9,16.4-16.1c5.4-16.3,0.2-30.4,0-31c-0.4-1.1-1.6-1.8-2.8-1.7c-1.2,0.2-2.1,1.1-2.2,2.3c-0.5,1.3-6,3.9-9.6,5.5
	c-8.8,4-19.8,9.1-23.1,18.2c-0.8,2.1-1.1,4.3-0.9,6.6c-2.3-4.7-6.8-8.1-10.6-10.9c-3.6-2.7-7.1-5.3-7.5-8c-0.2-1.2-1.2-2.1-2.3-2.2
	c-1.1-0.1-2.3,0.6-2.7,1.7c-0.2,0.6-5.4,15.5-2.3,29.4c1.1,4.8,3.8,6.9,6,7.8c1.5,0.6,3.1,0.9,4.7,0.9c4.9,0,10.1-2.3,12.6-3.6
	l9.3,6.4c-0.2,2-0.2,3.8-0.2,5.2H45.6C29.8,83.2,17,96,17,111.8c0,15.8,12.8,28.6,28.6,28.6h72.8c15.8,0,28.6-12.8,28.6-28.6
	C147,96,134.2,83.2,118.4,83.2z M79.3,51.6c2.6-7.1,12.5-11.6,20.4-15.3c3.5-1.6,6.6-3,8.8-4.5c1,5,1.9,13.7-1.2,22.9
	c-1.9,5.8-6.4,10.2-13.4,13c-1.9,0.8-3.9,0.9-5.8,0.6c0.4-0.8,0.8-1.4,1.2-2c0.9-1.1,0.7-2.8-0.5-3.6c-1.1-0.9-2.8-0.7-3.6,0.5
	c-0.7,0.9-1.3,1.9-1.8,3c-1.2-1-2.2-2.2-2.9-3.7C78.5,58.3,78.1,54.8,79.3,51.6z M56.1,69.5c-1.5-0.6-2.4-2-2.9-4.2
	c-1.7-7.4-0.6-15.5,0.6-20.7c1.7,1.8,3.9,3.4,6.1,5c5.4,4,10.6,7.9,10,14.5l-2.5-1.7c-1.2-0.8-2.8-0.5-3.6,0.7
	c-0.8,1.2-0.5,2.8,0.7,3.6l2,1.4C63.1,69.5,58.8,70.7,56.1,69.5z M74.5,67.4c0.4-1.5,0.6-3,0.6-4.4c0.2,0.5,0.4,1,0.7,1.5
	c1.3,2.8,3.4,5.1,5.9,6.6c-0.1,0.3-0.1,0.6-0.2,0.9L74.5,67.4z M118.4,135.2H45.6c-12.9,0-23.4-10.5-23.4-23.4
	c0-12.9,10.5-23.4,23.4-23.4h72.8c12.9,0,23.4,10.5,23.4,23.4C141.8,124.7,131.3,135.2,118.4,135.2z M68.1,110.9
	c1.2-0.5,2.1-1.3,2.8-2.4c0.7-1.1,1-2.2,1-3.5c0-1.2-0.3-2.2-0.8-3.2c-0.6-0.9-1.2-1.7-2.1-2.3c-0.8-0.6-1.8-0.9-2.8-1.1
	c-1.1-0.2-2.6-0.3-4.8-0.3H50.6v27h9.2c3.5,0,5.7-0.1,6.6-0.2c1.4-0.2,2.7-0.6,3.7-1.3c1-0.7,1.8-1.6,2.3-2.8
	c0.6-1.2,0.9-2.4,0.9-3.6c0-1.6-0.4-2.9-1.3-4.1C71,112.2,69.7,111.4,68.1,110.9z M56,102.7h3.1c2.6,0,4.1,0,4.7,0.1
	c0.9,0.1,1.6,0.4,2.1,0.9c0.5,0.5,0.7,1.2,0.7,2c0,0.9-0.3,1.6-0.8,2.1c-0.5,0.5-1.3,0.9-2.2,1c-0.5,0.1-1.8,0.1-4,0.1H56V102.7z
	 M66.8,119.5c-0.5,0.6-1.2,0.9-2,1.1c-0.5,0.1-1.8,0.2-3.7,0.2h-5v-7.2h4.4c2.5,0,4.1,0.1,4.8,0.4c0.7,0.3,1.3,0.7,1.7,1.2
	c0.4,0.6,0.6,1.3,0.6,2.1C67.6,118.1,67.3,118.9,66.8,119.5z M77.7,98.2h5.5v27h-5.5V98.2z M100.3,97.8c-2.2,0-4.1,0.4-5.8,1.1
	c-1.3,0.5-2.4,1.3-3.5,2.4c-1.1,1.1-1.9,2.3-2.5,3.7c-0.8,1.9-1.2,4.2-1.2,6.9c0,4.3,1.2,7.7,3.6,10.1c2.4,2.5,5.6,3.7,9.6,3.7
	c4,0,7.1-1.2,9.5-3.7c2.4-2.5,3.6-5.9,3.6-10.2c0-4.4-1.2-7.8-3.6-10.3C107.4,99,104.3,97.8,100.3,97.8z M105.7,118.7
	c-1.4,1.6-3.2,2.3-5.4,2.3c-2.2,0-4-0.8-5.4-2.4c-1.4-1.6-2.1-3.9-2.1-7c0-3.1,0.7-5.4,2.1-7c1.4-1.5,3.2-2.3,5.4-2.3
	c2.2,0,4.1,0.8,5.4,2.3c1.4,1.5,2,3.8,2,6.9C107.8,114.8,107.1,117.1,105.7,118.7z"/>
</svg>
