<svg width="136" height="128" viewBox="0 0 136 128" fill="none" xmlns="http://www.w3.org/2000/svg">
<path d="M54.1153 33.8789L54.2046 33.7879C55.146 32.8747 56.6532 32.8449 57.63 33.7416L125.269 95.8336C126.277 96.7592 126.338 98.3212 125.405 99.3226L107.819 118.201C106.886 119.202 105.312 119.264 104.304 118.338L36.6653 56.246C35.6571 55.3205 35.5961 53.7584 36.529 52.757L54.1153 33.8789ZM105.857 113.036L120.065 97.7842L56.0772 39.0437L41.8691 54.2955L105.857 113.036Z" fill="#636363"/>
<path d="M49.8967 42.0301L38.592 31.6525L33.0812 37.568L44.3859 47.9456L44.4776 48.0341C45.3968 48.968 45.4259 50.4642 44.5222 51.4342C43.6186 52.4042 42.1138 52.4921 41.1041 51.6554L41.008 51.5715L27.878 39.5183L27.7863 39.4298C26.8671 38.4959 26.838 36.9998 27.7417 36.0298L36.6303 26.4883C37.5631 25.487 39.1364 25.4255 40.1445 26.3509L53.2745 38.4042C54.2826 39.3296 54.3436 40.8915 53.4109 41.8927C52.4781 42.8939 50.9047 42.9554 49.8967 42.0301Z" fill="#636363"/>
<path d="M130.361 102.804C131.294 101.803 132.867 101.742 133.874 102.667C134.882 103.592 134.943 105.154 134.011 106.155L115.35 126.186C114.417 127.187 112.844 127.249 111.837 126.324C110.829 125.398 110.768 123.837 111.7 122.836L130.361 102.804Z" fill="#636363"/>
<path d="M121.167 116.308L113.71 109.463C112.702 108.537 112.641 106.975 113.574 105.974C114.507 104.972 116.08 104.911 117.088 105.836L124.545 112.681C125.553 113.607 125.614 115.169 124.681 116.17C123.748 117.172 122.175 117.233 121.167 116.308Z" fill="#636363"/>
<path d="M32.2011 34.8708L11.0385 15.4436C10.0302 14.518 9.96918 12.9558 10.9021 11.9543C11.835 10.9529 13.4087 10.8914 14.4169 11.8169L35.5795 31.2442C36.5877 32.1698 36.6488 33.732 35.7159 34.7334C34.783 35.7349 33.2093 35.7963 32.2011 34.8708Z" fill="#636363"/>
<path d="M65.8576 66.867C66.7902 65.866 68.3633 65.8044 69.3712 66.7297C70.3791 67.6549 70.4401 69.2165 69.5076 70.2176L63.3933 76.781C62.4607 77.7821 60.8876 77.8436 59.8797 76.9184C58.8718 75.9931 58.8107 74.4315 59.7433 73.4304L65.8576 66.867Z" fill="#636363"/>
<path d="M77.4435 77.5008C78.3762 76.4997 79.9493 76.4382 80.9572 77.3634C81.965 78.2887 82.026 79.8503 81.0935 80.8514L74.9792 87.4148C74.0466 88.4159 72.4735 88.4774 71.4656 87.5521C70.4577 86.6269 70.3967 85.0653 71.3293 84.0641L77.4435 77.5008Z" fill="#636363"/>
<path d="M54.2756 56.2332C55.2082 55.2322 56.7813 55.1706 57.7892 56.0959C58.7971 57.0211 58.8581 58.5828 57.9255 59.5839L51.8113 66.1472C50.8786 67.1483 49.3055 67.2098 48.2976 66.2846C47.2897 65.3593 47.2287 63.7977 48.1613 62.7966L54.2756 56.2332Z" fill="#636363"/>
<path d="M89.0256 88.1346C89.9582 87.1335 91.5313 87.072 92.5392 87.9972C93.5471 88.9225 93.6081 90.4841 92.6755 91.4852L86.5613 98.0486C85.6286 99.0497 84.0555 99.1112 83.0476 98.1859C82.0397 97.2607 81.9787 95.699 82.9113 94.6979L89.0256 88.1346Z" fill="#636363"/>
<path d="M100.61 98.7685C101.542 97.7674 103.115 97.7059 104.123 98.6311C105.131 99.5564 105.192 101.118 104.26 102.119L98.1452 108.682C97.2126 109.684 95.6395 109.745 94.6316 108.82C93.6237 107.895 93.5627 106.333 94.4953 105.332L100.61 98.7685Z" fill="#636363"/>
</svg>
