<svg width="136" height="88" viewBox="0 0 136 88" fill="none" xmlns="http://www.w3.org/2000/svg">
<g clip-path="url(#clip0_638_6547)">
<path d="M82.0668 74.5483C78.615 64.566 68.7225 64.5616 68.7225 64.5616H68.6828C68.6828 64.5616 59.0592 64.5177 55.3385 74.5483C51.8779 83.8805 53.8573 88.9002 58.517 87.8638C62.3391 87.0118 65.2972 86.3091 67.8761 86.1949C68.145 86.1818 68.4227 86.1818 68.7049 86.1774C68.9826 86.1774 69.2603 86.1774 69.5293 86.1993C72.1082 86.3091 75.0662 87.0118 78.8883 87.8638C83.548 88.9046 85.3202 83.9596 82.0668 74.5483ZM63.4633 77.9738C62.8725 78.9926 60.9637 80.9337 59.9409 80.3453C58.9182 79.7524 59.165 76.8539 59.7558 75.835C60.3465 74.8162 61.6558 74.4692 62.683 75.0577C63.7057 75.6462 64.054 76.9549 63.4633 77.9738ZM77.8832 80.3453C76.8605 80.9337 74.956 78.9926 74.3609 77.9738C73.7702 76.9549 74.1184 75.6506 75.1412 75.0577C76.1639 74.4692 77.4732 74.8162 78.0684 75.835C78.6591 76.8539 78.9104 79.7524 77.8832 80.3453ZM111.462 3.97437C125.913 -2.81074 136.714 0.500566 135.964 3.56155C135.219 6.62253 132.31 16.2227 131.895 18.9499C131.481 21.6815 129.069 29.2088 122.84 34.2592C116.611 39.3052 112.542 39.8849 109.884 39.9684C107.75 40.0343 103.267 38.8222 100.379 36.3716C100.679 40.1133 99.3346 40.5086 98.9423 43.5608C98.0915 50.1482 104.713 51.8127 104.343 64.2586C104.325 64.9262 104.29 65.5673 104.241 66.1778H104.232C103.88 70.8769 102.103 75.7428 98.2237 78.4217C97.2054 78.6062 97.2142 76.5333 97.1128 75.4442C97.0202 74.4253 96.9982 73.4943 96.9585 72.6159C96.932 72.6072 96.91 72.6028 96.9012 72.6159C96.9012 72.6159 97.0202 69.7218 92.9865 63.1871C89.0189 56.7621 86.8941 48.0578 88.2518 42.1642V42.151C89.0101 38.8441 89.9976 35.445 90.8175 31.3256C92.7617 21.5981 78.2271 13.6799 78.2271 13.6799C80.7267 13.7194 82.0492 13.8292 85.307 15.3971C89.5435 17.4392 93.9431 16.6794 95.4155 15.0326C96.1077 14.2552 96.8835 13.5614 97.5051 13.0431C100.155 10.5135 104.51 7.23297 111.462 3.96997M24.5368 3.97437C31.4889 7.23737 35.84 10.5179 38.4939 13.0475C39.1199 13.5657 39.8914 14.2596 40.5835 15.0369C42.0515 16.6838 46.4511 17.4436 50.692 15.4015C53.9499 13.8336 55.2724 13.7194 57.772 13.6843C57.772 13.6843 43.2374 21.6025 45.1815 31.33C46.0059 35.4494 46.989 38.8441 47.7516 42.1554V42.1686C49.105 48.0622 46.9757 56.7621 43.0081 63.1915C38.9744 69.7306 39.0935 72.6203 39.0935 72.6203C39.0846 72.6072 39.0626 72.6072 39.0362 72.6203C39.0009 73.4987 38.9744 74.4297 38.8819 75.4486C38.7849 76.5377 38.7937 78.6106 37.7753 78.4261C33.8959 75.7472 32.1193 70.8812 31.7667 66.1778H31.7578C31.7093 65.5673 31.6785 64.9262 31.6564 64.2586C31.2905 51.8127 37.912 50.1482 37.0568 43.5608C36.6644 40.5086 35.3198 40.1177 35.6196 36.3716C32.7277 38.8178 28.2443 40.0343 26.1151 39.9684C23.4568 39.8849 19.3878 39.3052 13.1587 34.2592C6.92957 29.2132 4.51816 21.6815 4.10377 18.9499C3.68938 16.2227 0.784224 6.62253 0.0347917 3.56155C-0.714641 0.500566 10.086 -2.81074 24.5368 3.97437Z" fill="#636363"/>
</g>
<defs>
<clipPath id="clip0_638_6547">
<rect width="136" height="88" fill="white"/>
</clipPath>
</defs>
</svg>
