<?xml version="1.0" encoding="utf-8"?>
<!-- Generator: Adobe Illustrator 25.1.0, SVG Export Plug-In . SVG Version: 6.00 Build 0)  -->
<svg version="1.1" id="Layer_1" xmlns="http://www.w3.org/2000/svg" xmlns:xlink="http://www.w3.org/1999/xlink" x="0px" y="0px"
	 viewBox="0 0 164 164" style="enable-background:new 0 0 164 164;" xml:space="preserve">
<path style="fill:#B8CC7A;" d="M63.5,152h37.1c4.3,0,8.4-1.7,11.5-4.8c3-3.1,4.7-7.2,4.8-11.5v-14c0-1-0.2-2-0.6-2.9
	c-0.4-0.9-1-1.7-1.7-2.4V66.2c0.7-0.7,1.3-1.5,1.7-2.4c0.4-0.9,0.6-1.9,0.6-2.9V49.3c0-4.3-1.7-8.5-4.8-11.5
	c-3-3.1-7.2-4.8-11.5-4.8h-6.9c-0.6,0-1.2-0.2-1.6-0.7c-0.4-0.4-0.7-1-0.7-1.6v-5.3c0.7-0.4,1.3-1,1.7-1.7c0.4-0.7,0.6-1.5,0.6-2.3
	v-4.7c0-1.2-0.5-2.4-1.4-3.3c-0.9-0.9-2-1.4-3.3-1.4H75.1c-1.2,0-2.4,0.5-3.3,1.4c-0.9,0.9-1.4,2.1-1.4,3.3v4.7
	c0,0.8,0.2,1.6,0.6,2.3c0.4,0.7,1,1.3,1.7,1.7v5.3c0,0.6-0.2,1.2-0.7,1.6c-0.4,0.4-1,0.7-1.6,0.7h-6.9c-4.3,0-8.4,1.7-11.5,4.8
	c-3,3.1-4.7,7.2-4.8,11.5V61c0,1,0.2,2,0.6,2.9c0.4,0.9,1,1.7,1.7,2.4v50.2c-0.7,0.7-1.3,1.5-1.7,2.4c-0.4,0.9-0.6,1.9-0.6,2.9v14
	c0,4.3,1.7,8.5,4.8,11.5C55.1,150.3,59.2,152,63.5,152z M75.1,16.7h13.9v4.7H75.1V16.7z M51.9,121.7c0-0.4,0.1-0.8,0.3-1.2
	c0.2-0.4,0.5-0.6,0.8-0.9c0.4-0.2,0.8-0.3,1.2-0.3h9.3c0.6,0,1.2-0.2,1.6-0.7c0.4-0.4,0.7-1,0.7-1.7s-0.2-1.2-0.7-1.7
	c-0.4-0.4-1-0.7-1.6-0.7h-9.3V68h9.3c0.6,0,1.2-0.2,1.6-0.7c0.4-0.4,0.7-1,0.7-1.6c0-0.6-0.2-1.2-0.7-1.6c-0.4-0.4-1-0.7-1.6-0.7
	h-9.3c-0.4,0-0.8-0.1-1.1-0.3c-0.4-0.2-0.7-0.5-0.9-0.9c-0.2-0.4-0.3-0.8-0.3-1.2V49.3c0-3.1,1.2-6.1,3.4-8.2
	c2.2-2.2,5.1-3.4,8.2-3.4h6.9c1.8,0,3.6-0.7,4.9-2.1c1.3-1.3,2-3.1,2-4.9V26h9.3v4.7c0,1.9,0.7,3.6,2,4.9c1.3,1.3,3.1,2.1,4.9,2.1
	h6.9c3.1,0,6,1.2,8.2,3.4c2.2,2.2,3.4,5.2,3.4,8.2V61c0,0.4-0.1,0.8-0.3,1.2c-0.2,0.4-0.5,0.6-0.8,0.9c-0.4,0.2-0.8,0.3-1.2,0.3
	h-9.3c-0.6,0-1.2,0.2-1.6,0.7c-0.4,0.4-0.7,1-0.7,1.6c0,0.6,0.2,1.2,0.7,1.6c0.4,0.4,1,0.7,1.6,0.7h9.3v46.7h-9.3
	c-0.6,0-1.2,0.2-1.6,0.7c-0.4,0.4-0.7,1-0.7,1.7s0.2,1.2,0.7,1.7c0.4,0.4,1,0.7,1.6,0.7h9.3c0.4,0,0.8,0.1,1.1,0.3
	c0.4,0.2,0.7,0.5,0.9,0.9c0.2,0.4,0.3,0.8,0.3,1.2v14c0,3.1-1.2,6.1-3.4,8.2c-2.2,2.2-5.1,3.4-8.2,3.4H63.5c-3.1,0-6-1.2-8.2-3.4
	c-2.2-2.2-3.4-5.2-3.4-8.2V121.7z M70.3,105.9l4.8,2.9c-0.2,1-0.1,2,0.1,3c0.3,1,0.7,1.9,1.4,2.7c0.7,0.8,1.5,1.4,2.4,1.9
	c0.9,0.4,1.9,0.7,2.9,0.7c1,0,2-0.2,2.9-0.7c0.9-0.4,1.7-1.1,2.4-1.9c0.7-0.8,1.1-1.7,1.4-2.7c0.3-1,0.3-2,0.1-3l4.8-2.9
	c1.2,1.1,2.9,1.7,4.5,1.7c1.6,0,3.2-0.6,4.5-1.6c1.3-1.1,2.1-2.5,2.4-4.2c0.3-1.6,0-3.3-0.9-4.7c-0.8-1.4-2.1-2.5-3.7-3.1v-5.5
	c1-0.3,1.8-0.9,2.6-1.6c0.7-0.7,1.3-1.6,1.6-2.6c0.4-1,0.5-2,0.4-3c-0.1-1-0.4-2-0.9-2.9c-0.5-0.9-1.2-1.7-2.1-2.2
	c-0.8-0.6-1.8-1-2.8-1.1c-1-0.2-2-0.1-3,0.2c-1,0.3-1.9,0.8-2.7,1.5l-4.8-2.9c0.2-1,0.1-2-0.1-3s-0.7-1.9-1.4-2.7
	c-0.7-0.8-1.5-1.4-2.4-1.9C84,65.8,83,65.6,82,65.6c-1,0-2,0.2-2.9,0.7c-0.9,0.4-1.7,1.1-2.4,1.9c-0.7,0.8-1.1,1.7-1.4,2.7
	c-0.3,1-0.3,2-0.1,3l-4.8,2.9c-1.2-1.1-2.9-1.7-4.5-1.7c-1.6,0-3.2,0.6-4.5,1.6c-1.3,1.1-2.1,2.5-2.4,4.2c-0.3,1.6,0,3.3,0.9,4.7
	s2.1,2.5,3.7,3.1v5.5c-1,0.3-1.8,0.9-2.6,1.6c-0.7,0.7-1.3,1.6-1.6,2.6c-0.4,1-0.5,2-0.4,3c0.1,1,0.4,2,0.9,2.9
	c0.5,0.9,1.2,1.7,2.1,2.2c0.8,0.6,1.8,1,2.8,1.1c1,0.2,2,0.1,3-0.2C68.6,107.1,69.6,106.6,70.3,105.9z M72.7,82c0-0.4,0-0.8-0.1-1.2
	l4.8-2.9c1.2,1.1,2.9,1.7,4.5,1.7c1.7,0,3.3-0.6,4.5-1.7l4.8,2.9c-0.3,1.6,0,3.3,0.8,4.7s2.1,2.5,3.7,3v5.5c-1.6,0.5-2.9,1.6-3.7,3
	s-1.1,3.1-0.8,4.7l-4.8,2.9c-1.2-1.1-2.9-1.7-4.5-1.7c-1.7,0-3.3,0.6-4.5,1.7l-4.8-2.9c0.3-1.6,0-3.3-0.8-4.7
	c-0.8-1.4-2.1-2.5-3.7-3v-5.5c1.4-0.5,2.5-1.4,3.3-2.5C72.3,84.8,72.7,83.4,72.7,82z M82,112.3c-0.5,0-0.9-0.1-1.3-0.4
	c-0.4-0.3-0.7-0.6-0.9-1c-0.2-0.4-0.2-0.9-0.1-1.3c0.1-0.5,0.3-0.9,0.6-1.2c0.3-0.3,0.7-0.5,1.2-0.6c0.4-0.1,0.9,0,1.3,0.1
	c0.4,0.2,0.8,0.5,1,0.9c0.3,0.4,0.4,0.8,0.4,1.3c0,0.6-0.2,1.2-0.7,1.6C83.2,112.1,82.6,112.3,82,112.3z M98.2,103
	c-0.5,0-0.9-0.1-1.3-0.4c-0.4-0.3-0.7-0.6-0.9-1c-0.2-0.4-0.2-0.9-0.1-1.3c0.1-0.5,0.3-0.9,0.6-1.2c0.3-0.3,0.7-0.5,1.2-0.6
	c0.4-0.1,0.9,0,1.3,0.1c0.4,0.2,0.8,0.5,1,0.9c0.3,0.4,0.4,0.8,0.4,1.3c0,0.6-0.2,1.2-0.7,1.6C99.4,102.8,98.8,103,98.2,103z
	 M98.2,79.7c0.5,0,0.9,0.1,1.3,0.4c0.4,0.3,0.7,0.6,0.9,1s0.2,0.9,0.1,1.3c-0.1,0.5-0.3,0.9-0.6,1.2c-0.3,0.3-0.7,0.5-1.2,0.6
	c-0.4,0.1-0.9,0-1.3-0.1c-0.4-0.2-0.8-0.5-1-0.9c-0.3-0.4-0.4-0.8-0.4-1.3c0-0.6,0.2-1.2,0.7-1.6C97,79.9,97.6,79.7,98.2,79.7z
	 M82,70.3c0.5,0,0.9,0.1,1.3,0.4c0.4,0.3,0.7,0.6,0.9,1s0.2,0.9,0.1,1.3c-0.1,0.5-0.3,0.9-0.6,1.2c-0.3,0.3-0.7,0.5-1.2,0.6
	c-0.4,0.1-0.9,0-1.3-0.1c-0.4-0.2-0.8-0.5-1-0.9c-0.3-0.4-0.4-0.8-0.4-1.3c0-0.6,0.2-1.2,0.7-1.6C80.8,70.6,81.4,70.3,82,70.3z
	 M65.8,79.7c0.5,0,0.9,0.1,1.3,0.4c0.4,0.3,0.7,0.6,0.9,1s0.2,0.9,0.1,1.3c-0.1,0.5-0.3,0.9-0.6,1.2c-0.3,0.3-0.7,0.5-1.2,0.6
	c-0.4,0.1-0.9,0-1.3-0.1c-0.4-0.2-0.8-0.5-1-0.9c-0.3-0.4-0.4-0.8-0.4-1.3c0-0.6,0.2-1.2,0.7-1.6C64.6,79.9,65.2,79.7,65.8,79.7z
	 M63.5,100.7c0-0.5,0.1-0.9,0.4-1.3c0.3-0.4,0.6-0.7,1-0.9c0.4-0.2,0.9-0.2,1.3-0.1c0.4,0.1,0.9,0.3,1.2,0.6
	c0.3,0.3,0.5,0.7,0.6,1.2c0.1,0.5,0,0.9-0.1,1.3c-0.2,0.4-0.5,0.8-0.9,1c-0.4,0.3-0.8,0.4-1.3,0.4c-0.6,0-1.2-0.2-1.6-0.7
	C63.7,101.9,63.5,101.3,63.5,100.7z M63.5,142.7h6.9c0.6,0,1.2-0.2,1.6-0.7c0.4-0.4,0.7-1,0.7-1.6c0-0.6-0.2-1.2-0.7-1.7
	c-0.4-0.4-1-0.7-1.6-0.7h-6.9c-0.6,0-1.2-0.2-1.6-0.7c-0.4-0.4-0.7-1-0.7-1.7v-7c0-0.6-0.2-1.2-0.7-1.6c-0.4-0.4-1-0.7-1.6-0.7
	c-0.6,0-1.2,0.2-1.6,0.7c-0.4,0.4-0.7,1-0.7,1.6v7c0,1.9,0.7,3.6,2,5C59.9,141.9,61.6,142.7,63.5,142.7z M72.7,44.7
	c0-0.6-0.2-1.2-0.7-1.6c-0.4-0.4-1-0.7-1.6-0.7h-6.9c-1.8,0-3.6,0.7-4.9,2.1c-1.3,1.3-2,3.1-2,4.9v7c0,0.6,0.2,1.2,0.7,1.6
	c0.4,0.4,1,0.7,1.6,0.7c0.6,0,1.2-0.2,1.6-0.7c0.4-0.4,0.7-1,0.7-1.6v-7c0-0.6,0.2-1.2,0.7-1.6c0.4-0.4,1-0.7,1.6-0.7h6.9
	c0.6,0,1.2-0.2,1.6-0.7C72.5,45.9,72.7,45.3,72.7,44.7z"/>
</svg>
