<?xml version="1.0" encoding="utf-8"?>
<!-- Generator: Adobe Illustrator 25.1.0, SVG Export Plug-In . SVG Version: 6.00 Build 0)  -->
<svg version="1.1" id="Layer_1" xmlns="http://www.w3.org/2000/svg" xmlns:xlink="http://www.w3.org/1999/xlink" x="0px" y="0px"
	 viewBox="0 0 164 164" style="enable-background:new 0 0 164 164;" xml:space="preserve">
<path style="fill:#586440;" d="M162.9,96.3L162.9,96.3l-0.2,0c-2.9-5.8-2.1-9.7-1-14.6c0.6-2.9,1.3-6.1,1.3-10
	c0-6.1-1.2-12.8-2.2-18.7c-0.8-4.2-0.7-8.2-0.7-10.6l-0.2-1.7v-0.9c-0.7-4.5-1.9-7.5-6.3-8.6c-4.2-1.1-8.9-1.5-14.3-1.4
	c-3.8,0.1-7.7,0.4-11.4,0.8c-2.8,0.3-5.6,0.5-8.4,0.7c-8.5,0.4-17.2-0.2-25.6-0.7c-3.3-0.2-6.7-0.5-10-0.6c-2.8-0.1-5.6-0.2-8.3-0.3
	c-8.5-0.1-15.7,0.6-22.1,2c-1.6-0.4-5.9-1.7-8.7-2.1c-2.1-0.3-4.1,0-5.7,0.5c-2.4-3-6.1-4.7-10.7-4.7s-8.3,1.7-10.7,4.6
	c-1.6-0.5-3.6-0.8-5.7-0.4c-6.9,1-9.7,2.4-10,2.6L0,32.9l0.5,2c0.1,0.2,1,4.2,5.5,7c1.5,1,3.4,1.3,5.2,1.3c1.2,0,2.3-0.1,3.4-0.3
	c1.3,5.8,4.7,15.8,5.6,18.5c0,0.1,0,0.2,0.1,0.3c0,0.2,0,0.3,0.1,0.5c0,0.2,0.1,0.4,0.2,0.6c0,0.1,0.1,0.3,0.2,0.4
	c0.1,0.2,0.2,0.3,0.3,0.5c0.1,0.1,0.1,0.3,0.2,0.4c0.1,0.2,0.2,0.3,0.4,0.5c0.1,0.1,0.2,0.2,0.3,0.3c0.1,0.1,0.3,0.3,0.4,0.4
	c0.1,0.1,0.2,0.2,0.3,0.3c0.2,0.1,0.4,0.2,0.5,0.3c0.1,0.1,0.2,0.1,0.4,0.2c0.2,0.1,0.4,0.1,0.7,0.2c0.1,0,0.2,0.1,0.3,0.1
	c0.3,0.1,0.7,0.1,1,0.1l6.1-0.3c4,4.2,6.3,7.9,8.3,12c-3.9,1-9.7,3.3-12.4,6.7c-2.9-0.2-5.9,1.3-7.8,4c-1.4,2.1-2.2,4.7-2.4,8
	c-0.1,1.2-0.1,2.4,0,3.6c0,1.1,0,2.3,0,3.4l-0.2,2.6l3.7,0.2L21,104c0.1-1.3,0.1-2.5,0.1-3.8c0-1.1,0-2.2,0-3.3
	c0.1-2.3,0.6-4.1,1.5-5.3c0.7-1.8,2.7-2.7,3.1-3c-0.1,0.6-0.6,3-0.6,3.6c0,5,0.7,9,1.2,12.2c0.6,3.8,1.8,6.9,0.9,9.2
	c-0.9,2.1-4.9,18.1-5.8,21.4l-1.6,3.6H28c1.9,0,2.8-2.7,13.7-25.6l0.1-0.3c1.5-3.3,3.9-3.7,5.5-4.2c1,2.1,1,4.4,1,5l-2.6,25.1h9.4
	l4.1-18.6l2.6-8.9c0.1,2.7,0.9,8.8,0.8,12.4l-0.1,2.1c-0.2,3.5-0.4,6.7-0.5,8.5c0,0.3,0,0.7-0.1,1c0,0.2,0,0.5,0,0.7l-0.2,2.8
	l11.5,0l1.7-15.2l2.1-12c1.1,0.1,4.3,0.4,5,0.4l0.1-0.1l0.1,0.9l7.7,25.8l4.4,0.3c1.1,0,2.2-0.5,3-1.4c0.8-0.9,1.1-2,1-3.2
	l-3.2-25.5c1.7-0.2,3.8-0.1,8.1-1.8c0.6-0.2,3.9-0.7,5-0.3c2.6,1.1,6.6,1.2,9.6-0.2c0-0.1,0.1-0.1,0.1-0.2c1.5,0.5,3.1,0.8,4.8,0.9
	c0.7,3.3,2,6.2,2.2,7.4l-0.8,7.2l-2.6,17.1l21.6-0.8l0.7-1.6c0.4-1,0.6-1.2,0.9-2.1c0.2-0.5,0.4-1,0.5-1.5c0.1-0.4,0.3-0.8,0.4-1.2
	c0.2-0.7,0.5-1.5,0.7-2.2c0,0,0,0,0-0.1c0.3-0.9,0.5-1.8,0.8-2.8l0.2-0.7l0.4-1.8c1-4.5,1.7-9,2.4-13.7c0.7-4.3,1.3-8.7,2.3-13.2
	l0.3-1.2l-0.8-1c-1.6-2-2.4-4.9-2.2-8.1c0.1-3.3,1.2-6.6,2.1-9.4c0.7-2.1,1.4-4.2,2.2-6.2c1.3-3.6,2.6-7.4,3.7-11.2
	c0.6,4,1.1,8,1.1,11.6c0,3.4-0.6,6.2-1.2,8.9c-1.1,5.2-2.2,10.5,1.5,18l1.1,2.3l3.8-2.3L162.9,96.3z M14.3,39.1
	c-2.6,0.5-5.5,0.7-7.1-0.3h0c-1.7-1.1-2.9-2.6-3.7-4c1.8-0.5,4.6-1.2,8.4-1.7c1.2-0.2,2.3-0.1,3.4,0.1C14.7,35,14.4,37,14.3,39.1z
	 M150.9,34.3l-1.6,0.4c0.5,1.8,0,4-1.3,5.5c-1.3,1.5-3.2,2.5-5.3,2.6c-2.4,0.1-4.9-1-6.5-2.9c-1.4-1.7-2.1-4.1-1.7-6.3
	c1.6-0.1,3.2-0.2,4.8-0.2C143.6,33.3,147.5,33.6,150.9,34.3z M82.7,33.4c3.4,0.2,6.7,0.4,10.1,0.6c5.1,0.3,10.3,0.7,15.5,0.8
	c0.3,3.9,0.4,8,0.3,12.1c-0.1,1.7-0.2,3.3-0.8,4.5c-0.6,1.1-1.9,2-3.5,2.6c-3.9,1.3-8.6,0.3-11.6-2.6c-0.4-0.3-0.7-0.7-1-1.1
	c-0.8-0.9-1.7-1.9-3-2.6c-2.6-1.6-6-1.8-10.1-0.6c-0.8,0.2-1.5,0.5-2.3,0.7c-1.9,0.6-3.7,1.2-5.5,1.2c-1.1,0-2.2-0.4-2.3-0.8
	c-0.1-0.4,0.2-1.2,0.8-1.9c0.4-0.4,0.9-0.9,1.5-1.3c0.6-0.5,1.3-1,2-1.7c2.6-2.7,3.5-6.7,2.5-10.3C77.7,33.2,80.2,33.3,82.7,33.4z
	 M45.1,33.1c0.9,0.1,1.7,0.2,2.5,0.4c2.7,0.4,4.7,0.9,6.2,1.3c-0.1,0.2-0.3,0.5-0.5,0.8c-0.8,1.2-1.9,2.5-3.3,3.4
	c-1.7,1-4.6,0.8-7.3,0.3v-0.1c0-1.3-0.2-2.5-0.4-3.7c-0.2-0.8-0.4-1.6-0.6-2.3C42.7,32.9,43.9,32.9,45.1,33.1z M28.3,28.8
	c3,0,5.1,0.8,6.5,2c0.2,0.2,0.4,0.3,0.6,0.5c-0.6,0.5-1.8,0.5-3,0.5l-0.2,0c-1.3,0-2.5-0.1-3.6-0.4c-1-0.3-1.7-0.8-2.1-1.4
	c-0.1-0.2-0.2-0.3-0.3-0.5c-0.1-0.1-0.1-0.3-0.2-0.5C26.8,28.9,27.5,28.8,28.3,28.8z M22.2,30.5l-0.1,0.3c-0.1,0-0.2-0.1-0.2-0.1
	C22,30.7,22.1,30.6,22.2,30.5z M32.5,61.6c0,0.4-0.2,0.6-0.3,0.6h-7.7c-0.1,0-0.3-0.2-0.3-0.6v-1.2c0.1-0.1,0.1-0.2,0.2-0.3
	c2.1-3.1,3.5-3.4,3.9-3.4c0.2,0,0.5,0,0.9,0.2c0.7,0.4,1.8,1.2,3.2,3.3c0,0.1,0.1,0.1,0.2,0.2V61.6z M32,54.7
	c-0.9-0.5-1.8-0.9-2.8-1c-0.3,0-0.7-0.1-1-0.1h-0.1c-0.6,0-1.2,0.1-1.8,0.3c-1.3,0.4-2.5,1.1-3.7,2.2c-1-3.3-2.1-6.8-2.9-9.7
	c0.4,0-0.8,0,3,0v-5.8h-2.7l0,0h-1.7c-0.1-0.4-0.1-0.7-0.1-1c0-2.2,0.4-6.2,3.5-8.7c0,0,0.1,0,0.1-0.1c0.1,0.1,0.2,0.4,0.3,0.6
	c0.1,0.3,0.3,0.6,0.4,0.8c0.9,1.7,2.6,3,4.8,3.6c1.6,0.5,3.2,0.5,4.7,0.6l0.2,0c0.3,0,0.6,0,0.9,0c1.3,0,3-0.2,4.6-1.1
	c0.1,0.4,0.2,0.8,0.3,1.2c0.2,1.1,0.3,2.2,0.3,3c0,0.1,0,0.3,0,0.4c0,0.2,0,0.3-0.1,0.6h-3.9v5.8h2.5c-0.8,2.9-1.8,6.4-2.9,9.8
	C33.3,55.5,32.7,55,32,54.7z M36.1,63.9c0.1-0.1,0.1-0.3,0.2-0.4c0.1-0.2,0.2-0.3,0.3-0.5c0.1-0.1,0.1-0.3,0.2-0.4
	c0.1-0.2,0.1-0.4,0.2-0.6c0-0.1,0.1-0.3,0.1-0.5c0-0.1,0-0.2,0.1-0.3c0.3-0.9,0.9-2.6,1.5-4.7l0,0.1c1.6-0.2,3.3,0.4,4.4,1.6
	c1.1,1.2,1.6,3,1.3,4.6c-0.3,1.7-1.5,3.3-2.5,4.8L40.2,70c-1.2-1.9-2.6-3.8-4.4-5.8C35.9,64.1,36,64,36.1,63.9z M54.7,126.5
	L54.7,126.5l-1.5,8.9H49l1-8.9l0.3-2.6l1.1-9.3v-0.4c0-0.2,0-2.3-0.2-5c1.6,0.5,3.8,0.9,6.1,1.2L54.7,126.5z M71,126.4L71,126.4
	l-0.9,8.9h-4.3c0.1-2.2,0.3-5.4,0.5-8.8v-0.1c0-0.8,0.1-1.7,0.1-2.6v-0.2c0.2-4.4,0.2-9,0-12.7c2.2,0,4.3,0.1,6.4,0.2L71,126.4
	L71,126.4z M116.2,103.7L116.2,103.7L116.2,103.7c-0.3,0-0.8,0-1.3,0c-1.1,0-2.4-0.1-3.4-0.5c-1.9-0.8-5-1.3-7.3-0.4
	c-5.3,2-7.8,2.1-9.1,2.2c-3.1,0.1-3.8,1.9-3.8,3.5l3.6,26.3h-2.3l-6.4-24.6c-0.1-0.6-0.3-1.9-0.6-3.3c-0.4-2.7-0.7-4.4-1-5.2
	L83.8,99l-5.1,1.7l0.8,2.6c0.2,0.5,0.5,2.9,0.8,4.4c0,0,0,0.1,0,0.1c-0.4,0-0.8,0-1.2-0.1c-0.8,0-1.7-0.1-2.7-0.2
	c-0.9,0-1.8-0.1-2.8-0.1c-2.2-0.1-4.7-0.2-7.1-0.2H66c-0.7,0-1.4,0-2.3-0.1c-0.2,0-0.4,0-0.6,0c-0.9,0-1.8-0.1-2.6-0.2h-0.1
	c-0.9-0.1-1.7-0.2-2.6-0.3c-2.5-0.3-4.7-0.8-5.5-1.1c-0.4-0.1-0.8-0.3-1.3-0.4c-0.8-0.2-1.7-0.4-2.8-0.5c-0.7,0-1.4,0-2.2,0.1
	c0.5-1.5,0.9-2.9,1.1-4l0.2-1.5l0.2-1.2l-0.3,0l-2.7-0.5L42.3,97l-0.5,2.7c-0.6,3.4-4,10.8-5.2,13.4l-1.2,2.4l0,0
	c-4.5,9.3-6.7,16.8-8.2,19.2h-2.5c2.4-8.9,5-17.9,5.5-19c1.7-3.8,1-7.7,0.2-12.2c-0.6-3.3-1.2-7.1-1.2-11.8c0-5.8,6.2-8.6,10.9-9.5
	c1-0.2,2-0.3,2.8-0.4c0.3,0,0.6,0,0.8,0c0.7,0,1.4,0,2.2,0c1,0,2.1,0,3.2,0c1.1,0,2.1,0,3.2,0.1c3.9,0.1,7.8,0.3,11.8,0.6
	c1,0.1,2,0.1,2.9,0.2c0.9,0.1,1.9,0.1,2.9,0.2c0.6,0,1.2,0.1,1.8,0.1c2.4,0.2,4.6,0.4,6.6,0.5c4.9,0.3,8.4,0.6,10.3,1.5
	c3.5,1.6,5.7,2.6,9.7,4.2c0,0,0,0,0,0c1.1,0.4,2.2,0.7,3.4,0.8l-0.1,0.5l5.2,1.1l0.4-1.8c0.3,0.1,0.6,0.2,0.9,0.4
	c0.6,0.4,1,1,1.5,1.8c0.4,0.7,0.8,1.6,1.2,2.6c0,0.1,0,0.1,0.1,0.2c0.6,1.3,1.1,2.5,1.8,3.6c0.5,0.7,1,1.4,1.5,2
	c0.5,0.6,1,1.2,1.5,1.8c0.2,0.3,0.5,0.5,0.7,0.8C116.3,103.3,116.2,103.5,116.2,103.7z M102.9,82.5l-0.7,3.3
	c-0.9-0.1-1.8-0.2-2.6-0.5c-3.8-1.5-5.8-2.4-9.2-3.9c-2.7-1.2-6.5-1.5-11.7-1.9c-0.1,0-0.2,0-0.2,0c0.1-1.2,0.7-2.4,1.6-3.3
	c1-1,2.4-1.5,3.9-1.3c1.2,0.1,2.5,0.7,3.9,1.2c2.2,0.9,4.7,2,7.5,1.4c1.8-0.4,3.2-1.3,4.5-2.1l0.7-0.5c1.2-0.8,2.2-1.1,2.9-0.9
	c0.6,0.2,1.3,0.8,1.7,1.8c0.3,0.7,0.6,1.5,0.9,2.3c0.2,0.6,0.4,1.1,0.6,1.7c1.4,3.7,5.2,6.5,8.3,8.8c-0.7,0.3-1.4,0.6-2.1,0.8
	c0,0,0,0-0.1,0c-0.5-0.8-1.2-1.6-1.9-2.2c-0.6-0.6-1.4-1-2.2-1.3c-0.3-0.1-2-0.4-2.3-0.5l0.4-2L102.9,82.5z M122.6,103.4
	c-1-0.2-1.9-0.4-2.8-0.7l0,0v0c-0.5-1-1.6-2.9-2.5-4c-0.5-0.5-0.9-1.1-1.5-1.7c-0.4-0.5-0.9-1.1-1.3-1.8c-0.4-0.5-0.7-1.3-1.1-2.2
	c2.5-0.9,5-2.1,7.3-3.5c1-0.6,1.9-1.1,2.9-1.7c1-0.6,2-1.3,2.9-1.9c1.2-0.8,2.4-1.7,3.5-2.4c0.2,0.3,0.4,0.6,0.5,0.9
	c0.4,0.8,0.7,1.4,0.8,1.5l4.8,14.2c-2,1.7-4.6,3-7.6,3.5c-0.9,0.2-1.9,0.2-2.9,0.2h-0.1C124.5,103.7,123.5,103.6,122.6,103.4z
	 M132,127.6l-1.7,8.7l-4.9,0.2l1.5-8.7l0,0l2.1-12l-0.1-0.5c0,0-0.8-3.7-1.6-8.1c3.1-0.6,5.9-1.8,8.3-3.4l0.6,0
	c-0.1,1.4-0.1,2.5,0.3,3.5l-0.6,3.6L132,127.6z M147.1,109.9c-0.8,5-1.5,9.9-2.7,14.8v-0.1c-0.1,0.4-0.2,0.8-0.3,1.2
	c0,0.2-0.1,0.4-0.2,0.6c-0.3,1.1-0.6,2.2-0.9,3.3c-0.1,0.3-0.1,0.5-0.2,0.8c-0.1,0.5-0.3,0.9-0.5,1.4c-0.2,0.7-0.5,1.4-0.7,2.1
	c0,0.1-0.1,0.2-0.1,0.3l-5.7-0.2l1.8-7.8l0.4-2.1l2.2-12.1l0.7-3.8l0.1-3.3l-0.4-1.2l-1.1-3.3l-0.9-2.7l-0.1-0.4l-2.8-9.3l-0.6-1.9
	c-0.1-0.3-0.4-1.6-0.6-2c-0.8-1.6-1.2-3-2.4-4.5c-0.8-1-0.9-1.3-1.9-2.1c-0.4-0.3-0.9-0.8-1.3-1.1c-0.3-0.2-0.6-0.3-0.8-0.5
	c-1.6-0.8-3.3-1.3-5.1-1.2c-0.9,0.1-1.8,0.2-2.7,0.6l-2.4,0.9l0.1,0.9l0.9,1.8l0.3,0.9l2.4-0.9c0.2-0.1,0.4-0.1,0.6-0.1
	c0.9-0.2,1.8-0.1,2.6,0.3c0.6,0.3,1.2,0.7,1.8,1.1c0.2,0.1,0.4,1,0.6,1.1c-0.7,0.5-1.2,0.9-2.4,1.7c-0.9,0.6-1.7,1.2-2.7,1.8
	c-0.8,0.5-1.6,1-2.4,1.4c-0.5-0.4-1.1-0.8-1.7-1.2c-2.7-2-6-4.4-6.9-6.9c-0.2-0.5-0.3-1-0.5-1.5c-0.3-1-0.6-2-1.1-3
	c-1.1-2.2-2.8-3.7-4.7-4.2c-2-0.5-4.1,0-6.5,1.5l-0.8,0.5c-1,0.7-2,1.3-2.9,1.5c-1.4,0.3-3-0.4-4.8-1.1c-1.6-0.7-3.4-1.4-5.3-1.6
	c-2.7-0.2-5.4,0.7-7.4,2.6c-1.8,1.7-2.8,3.9-3,6.3c-1.1-0.1-2.2-0.2-3.1-0.2h0c0.3-0.8,0.5-1.3,0.5-1.4l0.8-2.5l-3.3-1.6L68,75.9
	c-0.1,0.5-0.4,1.2-0.8,2c-0.1,0.2-0.2,0.4-0.3,0.6c-0.4,0-0.8-0.1-1.2-0.1c-7.2-0.5-14.2-0.8-20.9-0.8h-0.5
	c-0.6-1.1-1.1-2.2-1.7-3.3l2.9-4.1c1.2-1.8,2.8-3.9,3.3-6.6c0.6-3-0.4-6.3-2.5-8.6c-1.7-1.8-4-2.9-6.4-3.1c1-3.4,2.1-7,2.7-9.7
	c1.1,0.2,2.2,0.3,3.4,0.3c1.8,0,3.7-0.3,5.3-1.3c4.3-2.7,5.4-6.3,5.6-7c4.2-0.7,8.7-1,13.7-1.1l-0.3,0.2c1.1,2.2,0.6,5.2-1.1,6.9
	c-0.4,0.4-0.9,0.8-1.5,1.3c-0.7,0.5-1.3,1.1-2,1.7c-1.8,1.9-2.5,4.4-1.8,6.5c0.9,2.4,3.5,3.9,6.7,3.9c2.4,0,4.6-0.8,6.8-1.4
	c0.7-0.2,1.4-0.5,2.1-0.7c2.9-0.8,5.1-0.8,6.5,0.1c0.7,0.4,1.3,1.1,2,1.8c0.4,0.4,0.8,0.9,1.2,1.3c3,2.8,7.1,4.4,11.2,4.4
	c1.7,0,3.4-0.3,5-0.8c1.9-0.7,4.5-2,6-4.6c1.2-2.1,1.4-4.4,1.4-6.6c0.1-4.1,0-8.2-0.3-12.2c2.2,0,4.3,0,6.5-0.2
	c2.9-0.1,5.8-0.4,8.7-0.7c0.6-0.1,1.2-0.1,1.8-0.2c-0.2,3.2,0.8,6.4,2.8,8.9c2.4,2.9,6,4.6,9.7,4.6c0.2,0,0.3,0,0.5,0
	c3.4-0.1,6.6-1.7,8.6-4.2c1.8-2.2,2.7-5.1,2.5-7.8c1.8,1.1,3,3,3.2,5.2c0.3,4.5-0.2,9.7-1.5,14.9c0,0.2-0.1,0.3-0.1,0.5
	c-5.6,1.9-10,5.9-12,10.8c-2.3,5.7-0.8,12.4,3.6,16.1c-0.2,1.1-0.4,2.2-0.4,3.3c0,0.2,0,0.4,0,0.7c0.7,5.6-0.1,0.8,2.6,10.6
	C148.4,101.7,147.7,105.9,147.1,109.9z M151.3,69.3c-0.6,1.7-1.2,3.4-1.8,5.2c-0.1,0.4-0.3,0.8-0.4,1.3c-0.2,0.5-0.4,1.1-0.5,1.7
	c-1.5-2.5-1.9-6-0.7-9c1.1-2.7,3.2-5,6-6.7C153,64.2,152.2,66.8,151.3,69.3z"/>
</svg>
