<?xml version="1.0" encoding="utf-8"?>
<!-- Generator: Adobe Illustrator 25.1.0, SVG Export Plug-In . SVG Version: 6.00 Build 0)  -->
<svg version="1.1" id="Layer_1" xmlns="http://www.w3.org/2000/svg" xmlns:xlink="http://www.w3.org/1999/xlink" x="0px" y="0px"
	 viewBox="0 0 64 64" style="enable-background:new 0 0 64 64;" xml:space="preserve">
<path style="fill:#C6923E;" d="M0.5,32.6l0.9-1.2L3,29.9l2-2.1l0.4-2L6,24l0.3-0.3l-0.1-0.3l-0.5-1.9L5.5,21l-0.7-1.3l-1.7-1.2v-1.1
	l4.3,0.9l1.3,1.5l1.3,0.8l1.2-1.1l0.7-0.7l1.6-1.6l5.3-2.2h9.8l4.5-1.2l3.3,0.2l7.5-0.2l4.1,1.5l3.9,1.5l4.3,2.9l2,3.6l-0.3,1
	l0.9,1.3l1.9-2.7l2.9,1.4l-1.3,3.3l-1.1,0.6l-0.6,0.1l1,0.8l1.3,0.3l1.1-0.2l-0.8,1l-2-0.5l-1.6-1.5l-0.7-0.2l-1.2-2.2l-0.4,1.4
	l-0.6,4.4l-0.9,1l-0.4,2.4l-1.2,2.2l-1.2,5.3l-0.8,1.5l-0.1,1.5l-1.3,0.8l-1.3-0.1l-0.1,0.4l0.2,1.6l-0.5,0.8l0.1,0.7h-0.1l-3.6-0.2
	v-0.4l1.4-1.8l0.2-2.2l0.2-1.3L46,42.1l-0.6-0.6l0.3-2.4l-0.4-1l-1.2-1.8H44l-2.4,1.2l-4.1,1.3l-2,0.7l-3.8,0.1l-3.4-1.5l-1.6-0.8
	L26,38.6l-0.4,0.5l-0.8,7.5l-0.5,0.7l-1.8,0.2h-1.6l0.1-0.6l1.6-1.2l-0.1-1.4L22,40.8l-0.6,0.7L20,45.3l-0.4,1.4l-0.8,1.6l0.3,0.9
	l-1.4,0.5l-0.9,0.2l-1.9,0.3l-0.4-0.5l1.6-1.9c0,0,0.4-1.5,0.4-1.7c0-0.2,0.4-0.8,0.4-0.8l0.4-3.4L17,38.5l0.2-1.1l-0.5-1.3
	l-0.8-0.6l-3.1,1.2l-3.4,1.2l-2.5-0.4l-1.5-0.5l-2.4-0.3l-0.2,0.4l-0.4,0.4L2,36.7l-0.2-0.3l-1.8-3L0,32.8L0.5,32.6L0.5,32.6z
	 M60,27.1l1.2,0.4l1.2-2l-0.2-0.7l-1.1-0.5l-1,0.9l-0.5,1L60,27.1L60,27.1z"/>
</svg>
