<?xml version="1.0" encoding="utf-8"?>
<!-- Generator: Adobe Illustrator 25.1.0, SVG Export Plug-In . SVG Version: 6.00 Build 0)  -->
<svg version="1.1" id="Layer_1" xmlns="http://www.w3.org/2000/svg" xmlns:xlink="http://www.w3.org/1999/xlink" x="0px" y="0px"
	 viewBox="0 0 164 164" style="enable-background:new 0 0 164 164;" xml:space="preserve">
<g>
	<path style="fill:#B8CC7A;" d="M77.3,47.2C77.3,30.5,63.7,17,47,17S16.6,30.5,16.6,47.2c0,16.7,13.6,30.2,30.4,30.2
		S77.3,63.8,77.3,47.2z M47,72.7c-14.2,0-25.7-11.4-25.7-25.5S32.8,21.6,47,21.6s25.7,11.4,25.7,25.5S61.2,72.7,47,72.7z"/>
	<path style="fill:#B8CC7A;" d="M63.3,56.5V53v-2.3v-5.8c0-1.3-1-2.3-2.3-2.3c-0.8,0-1.5,0.4-1.9,1c-1.2-0.6-2.5-1-3.9-1
		c-4.5,0-8.2,3.6-8.2,8.1V53c0,4.5,3.7,8.1,8.2,8.1c1.8,0,3.4-0.6,4.7-1.5c0.9,0.9,2.1,1.5,3.4,1.5c1.3,0,2.3-1,2.3-2.3
		C65.7,57.5,64.6,56.5,63.3,56.5z M55.1,56.5c-1.9,0-3.5-1.6-3.5-3.5v-2.3c0-1.9,1.6-3.5,3.5-3.5c1.9,0,3.5,1.6,3.5,3.5V53
		C58.6,54.9,57.1,56.5,55.1,56.5z"/>
	<path style="fill:#B8CC7A;" d="M36.5,37.9c1.9,0,3.5,1.6,3.5,3.5c0,1.3,1,2.3,2.3,2.3c1.3,0,2.3-1,2.3-2.3c0-4.5-3.7-8.1-8.2-8.1
		c-4.5,0-8.2,3.6-8.2,8.1V53c0,4.5,3.7,8.1,8.2,8.1c4.5,0,8.2-3.6,8.2-8.1c0-1.3-1-2.3-2.3-2.3c-1.3,0-2.3,1-2.3,2.3
		c0,1.9-1.6,3.5-3.5,3.5c-1.9,0-3.5-1.6-3.5-3.5V41.4C33,39.5,34.5,37.9,36.5,37.9z"/>
	<path style="fill:#B8CC7A;" d="M93.7,68.1C71.7,68.1,54,85.7,54,107.5c0,21.8,17.8,39.5,39.7,39.5c21.9,0,39.7-17.7,39.7-39.5
		C133.4,85.7,115.6,68.1,93.7,68.1z M93.7,142.4c-19.3,0-35-15.6-35-34.8c0-19.2,15.7-34.8,35-34.8c19.3,0,35,15.6,35,34.8
		C128.7,126.8,113,142.4,93.7,142.4z"/>
	<path style="fill:#B8CC7A;" d="M94.4,89.1c-1-0.3-2,0-2.6,0.9L82,103.5l-9.8-13.6c-0.6-0.8-1.6-1.2-2.6-0.9c-0.8,0.3-1.5,1-1.6,1.8
		l0,0.4v27.9c0,1.3,1,2.3,2.3,2.3c1.3,0,2.3-1,2.3-2.3V98.5l7.4,10.4c0.4,0.6,1.1,1,1.9,1c0.8,0,1.5-0.4,1.9-1l7.4-10.4v20.6
		c0,1.3,1,2.3,2.3,2.3c1.3,0,2.3-1,2.3-2.3V91.3C96,90.3,95.4,89.4,94.4,89.1z"/>
	<path style="fill:#B8CC7A;" d="M131,37.9c-1.1,0-2.1,0.3-3,0.7c-0.4-0.4-1-0.7-1.7-0.7c-1.3,0-2.3,1-2.3,2.3v4.6v7
		c0,1.3,1,2.3,2.3,2.3c1.3,0,2.3-1,2.3-2.3v-7c0-1.3,1-2.3,2.3-2.3c1.3,0,2.3,1,2.3,2.3v7c0,1.3,1,2.3,2.3,2.3c1.3,0,2.3-1,2.3-2.3
		v-7C138.1,41,134.9,37.9,131,37.9z"/>
	<path style="fill:#B8CC7A;" d="M121.7,17C107.5,17,96,28.4,96,42.5s11.5,25.5,25.7,25.5c14.2,0,25.7-11.4,25.7-25.5
		S135.9,17,121.7,17z M121.7,63.4c-11.6,0-21-9.4-21-20.9c0-11.5,9.4-20.9,21-20.9c11.6,0,21,9.4,21,20.9
		C142.7,54.1,133.3,63.4,121.7,63.4z"/>
	<path style="fill:#B8CC7A;" d="M119.4,49.5h-5.6l7.7-15.2c0.4-0.7,0.3-1.6-0.1-2.3c-0.4-0.7-1.2-1.1-2-1.1H110
		c-1.3,0-2.3,1-2.3,2.3c0,1.3,1,2.3,2.3,2.3h5.6l-7.7,15.2c-0.4,0.7-0.3,1.6,0.1,2.3c0.4,0.7,1.2,1.1,2,1.1h9.3c1.3,0,2.3-1,2.3-2.3
		C121.7,50.5,120.7,49.5,119.4,49.5z"/>
	<path style="fill:#B8CC7A;" d="M114.7,102.9c-0.8,0-1.5,0.4-1.9,1c-1.2-0.6-2.5-1-3.9-1c-4.5,0-8.2,3.6-8.2,8.1v2.3
		c0,4.5,3.7,8.1,8.2,8.1h3.5v3.5c0,1.9-1.6,3.5-3.5,3.5c-1.9,0-3.5-1.6-3.5-3.5c0-1.3-1-2.3-2.3-2.3c-1.3,0-2.3,1-2.3,2.3
		c0,4.5,3.7,8.1,8.2,8.1c4.5,0,8.2-3.6,8.2-8.1v-5.8V111v-5.8C117,103.9,116,102.9,114.7,102.9z M105.4,113.3V111
		c0-1.9,1.6-3.5,3.5-3.5c1.9,0,3.5,1.6,3.5,3.5v5.8h-3.5C106.9,116.8,105.4,115.3,105.4,113.3z"/>
</g>
</svg>
