<?xml version="1.0" encoding="utf-8"?>
<!-- Generator: Adobe Illustrator 25.1.0, SVG Export Plug-In . SVG Version: 6.00 Build 0)  -->
<svg version="1.1" id="Layer_1" xmlns="http://www.w3.org/2000/svg" xmlns:xlink="http://www.w3.org/1999/xlink" x="0px" y="0px"
	 viewBox="0 0 164 164" style="enable-background:new 0 0 164 164;" xml:space="preserve">
<path style="fill:#586440;" d="M164,72.5c0-3.8-2.7-5.5-4.9-6v-9.7c0-5.3-4.3-9.7-9.6-9.7h-1.3c-1-1.9-2.5-3.6-4.3-5
	c-2.7-2-6-2.9-9.3-2.9H58.2c0.2-0.8,0.3-1.6,0.3-2.5c0-0.9-0.8-1.7-1.7-1.7H43.4l-2.7-2.7c-4.7-2.8-10-2.1-13.4,1.3L2.7,58.3h-1
	C0.8,58.3,0,59,0,60v2.9c0,0.2,0,0.4,0,0.5c-0.1,1.2,0.1,2.5,0.6,3.7c1.2,2.8,4.1,4.4,7.1,4.4h29l7.8,20.2c0.2,0.5,0.5,0.8,1,1
	l9.8,3.6v26.2c-3.4,1.7-5.8,5.2-5.8,9.3c0,0.9,0.8,1.7,1.7,1.7c5.3,0,22.7,0,28.2,0c0.9,0,1.7-0.8,1.7-1.7v-1.1c0-0.6,0-1.1,0-1.6
	c-0.1-2.1-0.1-3.3,0.7-4c0.4-0.3,0.6-0.8,0.6-1.3c0-0.1,0.1-0.3,0.1-0.4c0-0.1,0-1.2,0-21.4v-1h19.3c1.6,3.6,4.3,6.7,7.7,8.8
	l-1.3,2.6c-0.4,0.8-0.1,1.9,0.7,2.3c0.2,0.1,0.5,0.2,0.8,0.2c0.6,0,1.2-0.3,1.5-0.9l1.3-2.6c1,0.4,2,0.7,3.1,1
	c1,0.2,2.1,0.4,3.1,0.5l0.4,3c0.1,0.9,0.8,1.5,1.7,1.5c0.1,0,0.1,0,0.2,0c0.9-0.1,1.6-1,1.5-1.9l-0.3-2.6c0.5-0.1,1.1-0.1,1.6-0.2
	v10c-3.4,1.7-5.8,5.2-5.8,9.3c0,0.9,0.8,1.7,1.7,1.7c5.2,0,21.8,0,27.1,0c0.9,0,1.7-0.8,1.7-1.7v-1.1c0-0.6,0-1.1,0-1.6
	c-0.1-2.1-0.1-3.3,0.7-4c0.4-0.3,0.6-0.8,0.6-1.3c0-0.1,0.1-0.3,0.1-0.4c0-0.1,0-0.3,0-69c0-1.3-0.2-2.6-0.5-3.8
	c3.4,0.1,6.2,2.9,6.2,6.3v9.7c-2.2,0.5-4.7,2.3-4.7,5.9c-0.1,2.1-0.2,12.3,5,13.3c0.1,0,0.2,0,0.3,0h2.4c0.1,0,0.2,0,0.3,0
	C164.1,84.8,164.1,74.6,164,72.5L164,72.5z M145.1,129.1c0,0.3,0,0.6,0,0.9h-13.6c0.5-2,1.9-3.7,3.8-4.6c0.6-0.3,1.3-0.5,1.9-0.6
	c0.3,0,0.6-0.1,0.9-0.1h7.2C145,126.2,145,127.6,145.1,129.1L145.1,129.1z M121.6,130c0.8-3,3.5-5.2,6.7-5.2h2.3
	c-1.3,1.4-2.2,3.2-2.5,5.2H121.6z M127.2,121.4v-9.9c1.3-0.5,2.5-1.1,3.7-1.8c1.1-0.7,2.1-1.5,3.1-2.3v14H127.2z M120,109.4
	c-0.6,0-1.1,0-1.7-0.1c-0.6-0.1-1.2-0.2-1.9-0.3c-0.8-0.2-1.6-0.4-2.4-0.7c-0.5-0.2-1-0.4-1.5-0.7c-0.5-0.3-1-0.5-1.5-0.9
	c-2.6-1.7-4.6-4.1-6-6.9l18.7-6.9l1.7-0.6l4.2-1.6l2.7-1l1.6-0.6v13.2c-1.3,1.8-2.9,3.4-4.8,4.5c-0.6,0.4-1.3,0.7-1.9,1
	c-0.6,0.3-1.1,0.5-1.7,0.7c-0.6,0.2-1.1,0.3-1.7,0.5c-0.7,0.1-1.4,0.2-2.1,0.3C121.2,109.3,120.6,109.4,120,109.4L120,109.4z
	 M77.7,129.1c0,0.3,0,0.6,0,0.9H64.2c0.4-1.6,1.3-2.9,2.6-3.9c0.6-0.4,1.2-0.8,1.9-1c0.7-0.2,1.4-0.3,2.1-0.3H78
	C77.6,126.2,77.7,127.6,77.7,129.1L77.7,129.1z M58.8,121.4v-24l7.9,2.9v21.1H58.8z M59.9,124.8h3.4c-1.3,1.4-2.2,3.2-2.5,5.2h-7.5
	C54,127,56.7,124.8,59.9,124.8L59.9,124.8z M8.4,67.9c-2.6,0-4.7-1.9-5-4.4c0-0.2,0-0.4,0-0.6v-1.2h10v1.2
	C13.4,65.7,11.2,67.9,8.4,67.9L8.4,67.9z M44.7,48c0.6,0.1,1.3,0.2,2.2,0.2c0,0,1.6,0,3.1-0.4c2.9-0.8,5.3-2.7,6.8-5.2
	c0.2-0.3,3.7,0,4.1,0h36.5c10.1,0,20.1,1.1,30.2,0.7c5.7-0.2,11.1-1.7,15.6,2.8c0.3,0.3,0.6,0.7,0.9,1c0,0-3.9,0-3.9,0
	c-0.9,0-1.7,0.7-1.7,1.7s0.7,1.7,1.7,1.7l5.8,0.1c0,0.1,0.1,0.3,0.1,0.4c0.3,1.1,0.5,2.2,0.5,3.4v9.7c0,19.1,0,38.3,0,57.5h-9.2
	V86.6c0-0.6-0.3-1.1-0.7-1.4c-0.4-0.3-0.9-0.4-1.4-0.2c-0.1,0-0.1,0-0.2,0l-8.1,3l-3.1,1.2l-19.8,7.4l-1.6,0.6l-0.7,0.3H80.9
	c-0.9,0-1.7,0.8-1.7,1.7v2.7c0,6.2,0,15.8,0,19.6H70V99.1c0-0.4-0.1-0.7-0.4-1c-0.2-0.2-0.4-0.4-0.8-0.6l-0.9-0.3l-9.2-3.3l-1.7-0.6
	l-1.7-0.6l-7.9-2.9l-7.9-20.6c-0.3-0.7-0.9-1.1-1.6-1.1H15c1.1-1.4,1.8-3.3,1.8-5.2V60c0-0.9-0.8-1.7-1.7-1.7H7.5L29.7,36
	c1.3-1.3,3.1-2.1,4.9-2.1c1.3,0,2.6,0.4,3.7,1.1h-1.8v3.4h18.3c-0.1,0.3-0.1,0.5-0.2,0.8c-0.2,0.6-0.4,1.2-0.8,1.7
	c-0.4,0.6-0.8,1.2-1.3,1.7c-1.5,1.4-3.4,2.3-5.6,2.3c-0.7,0-1.4-0.1-2.1-0.3c-1.5-0.4-7.4-3.7-9.3-3.7c-0.9-0.2-5.7-1.2-6.2,0
	c-0.4,0.9,1.7,3,4.2,4c3.2,1.2,5.2-0.3,8.4,1.1C43.3,46.6,44.2,47.4,44.7,48L44.7,48z M156.5,82.4c-1.4-0.5-2.3-5.6-2.1-9.9v-0.1
	c0-1.4,0.6-2.1,1.3-2.4c0.5-0.3,1.1-0.3,1.4-0.3h0.8c0.3,0,0.7,0,1.2,0.2c0.8,0.3,1.6,1,1.6,2.5v0.1c0.2,4.3-0.7,9.3-2.1,9.9
	L156.5,82.4L156.5,82.4z M29,52.8l-6.3-2.6l1.7-4.1l6.3,2.6L29,52.8z"/>
</svg>
