<?xml version="1.0" encoding="utf-8"?>
<!-- Generator: Adobe Illustrator 25.1.0, SVG Export Plug-In . SVG Version: 6.00 Build 0)  -->
<svg version="1.1" id="Layer_1" xmlns="http://www.w3.org/2000/svg" xmlns:xlink="http://www.w3.org/1999/xlink" x="0px" y="0px"
	 viewBox="0 0 164 164" style="enable-background:new 0 0 164 164;" xml:space="preserve">
<path style="opacity:0.7;fill:#FFFFFF;" d="M156,143.5C156,143.5,155.9,143.5,156,143.5l-8.2-6.7l-0.2-2.1
	c2.7-15.3,4.2-30.9,4.7-46.5h0.1l0,0V85c0-0.8,0-1.6,0-2.5c0-1.2,0-2.4,0-3.7v-3.2h-0.2c-0.4-15.6-2-31.3-4.7-46.6l0.2-2.1l8.1-6.7
	c0,0,0,0,0.1,0c2.1-1.8,3.3-4.2,3.3-6.8c0.1-2.6-1-5-3-6.9L152.4,3c-4.1-3.8-10.9-4-15.2-0.3l-9.5,7.8l-2.3,1.5
	c-12.8-4.1-26.2-6.4-39.9-6.7l0,0h-1.7c-0.6,0-1.2,0-1.8,0h-3.5v0.1C64.8,5.6,51.4,7.9,38.6,12l-2.3-1.5l-9.5-7.8
	C22.5-1,15.7-0.8,11.6,3l-4,3.7c-2,1.9-3,4.3-3,6.9c0.1,2.6,1.3,5,3.3,6.8H8l8.1,6.7l0.2,2.1c-2.7,15.3-4.2,30.9-4.7,46.6h-0.1V79
	c0,0.8,0,1.7,0,2.5c0,1.2,0,2.4,0,3.7v3.2h0.2c0.4,15.6,2,31.3,4.7,46.6l-0.2,2.1l-8.1,6.7c0,0,0,0-0.1,0c-4.3,3.7-4.5,9.8-0.4,13.7
	l3.9,3.7c2.1,2,4.9,3,7.8,3l0,0c2.7,0,5.3-0.9,7.4-2.6l9.5-7.8l2.3-1.5c12.8,4.1,26.2,6.4,39.9,6.7l0,0h2.3c0.4,0,0.8,0,1.2,0h3.5
	v-0.1c13.7-0.3,27.1-2.6,39.9-6.7l2.3,1.5l9.5,7.8c2.1,1.8,4.7,2.6,7.4,2.6l0,0c2.8,0,5.7-1,7.8-3l3.9-3.7
	C160.5,153.4,160.3,147.2,156,143.5z M151.3,152.9l-3.9,3.7c-1.4,1.3-3.8,1.4-5.3,0.1H142l-9.6-7.9c-0.1-0.1-0.2-0.2-0.3-0.2l-4-2.6
	c-1-0.6-2.2-0.8-3.3-0.4c-13.7,4.6-28,7-42.8,7h-1.2c-14.3-0.1-28.3-2.4-41.6-6.9c-1.1-0.4-2.3-0.2-3.3,0.4l-4,2.6
	c-0.1,0.1-0.2,0.1-0.3,0.2l-9.6,7.9c0,0,0,0-0.1,0c-1.5,1.3-3.9,1.2-5.3-0.1l-3.9-3.7c-1.4-1.3-1.4-3.4,0.1-4.7l9.1-7.4
	c0.7-0.5,1-1.3,1.1-2l0.4-3.7c0-0.3,0-0.5,0-0.8c-3-17.3-4.6-35.1-4.8-52.8c0.2-17.3,1.8-34.7,4.8-51.6c0.1-0.3,0.1-0.5,0-0.8
	L23,25.3c-0.1-0.8-0.5-1.5-1.1-2l-9.1-7.4c-1.5-1.3-1.5-3.4-0.1-4.7l3.9-3.7c1.4-1.3,3.8-1.4,5.3-0.1H22l9.6,7.9
	c0.1,0.1,0.2,0.2,0.3,0.2l4,2.6c1,0.6,2.2,0.8,3.3,0.4c13.7-4.6,28-7,42.8-7h1.7c14.1,0.2,27.9,2.5,41,6.9c1.1,0.4,2.3,0.2,3.3-0.4
	l4-2.6c0.1-0.1,0.2-0.1,0.3-0.2l9.6-7.9c0,0,0,0,0.1,0c1.5-1.3,3.9-1.2,5.3,0.1l3.9,3.7c0.7,0.6,1.1,1.5,1,2.4
	c0,0.9-0.4,1.7-1.1,2.3l-9.1,7.4c-0.7,0.5-1,1.3-1.1,2l-0.4,3.7c0,0.3,0,0.5,0,0.8c3,17.2,4.6,34.7,4.8,52.2
	c-0.2,17.5-1.8,35.1-4.8,52.2c-0.1,0.3-0.1,0.5,0,0.8l0.4,3.7c0.1,0.8,0.5,1.5,1.1,2l9.1,7.4C152.6,149.4,152.7,151.6,151.3,152.9z
	 M60.7,123.8h41.2v6.3H60.7V123.8z M60.7,134h41.2v6.3H60.7V134z M126.7,40.9c-1.9-0.8-4.2-1.8-6.7-2.3c-0.5-0.3-1.2-0.4-2-0.4
	c-0.5,0-1,0-1.5,0.1H116c-2.7,0.2-4.1,1.3-5.4,2.4c-0.3,0.2-0.6,0.5-1,0.8c-0.9,0.7-3.1,2.4-5,4.3c-0.2-0.1-0.5-0.3-0.8-0.4
	c-0.1,0-0.2-0.1-0.2-0.1l-0.1-0.1h-0.1c-0.2-0.1-0.4-0.2-0.7-0.3c-0.1,0-0.2-0.1-0.3-0.1l-0.2-0.1c-0.2-0.1-0.4-0.1-0.6-0.2
	c-0.1,0-0.2-0.1-0.4-0.1l-0.3-0.1c-0.1,0-0.2,0-0.2-0.1c-0.4-0.4-1.2-1.4-1.6-1.9c-0.7-0.8-1.2-1.6-1.7-2.1
	c-3.3-3.1-9.3-4.8-13.5-5.1h-2.7c-4.1,0.3-10.1,2-13.4,5.1c-0.5,0.5-1.1,1.2-1.7,2.1c-0.4,0.6-1.1,1.5-1.5,1.9c-0.1,0-0.2,0-0.2,0
	c-0.1,0-0.2,0-0.2,0H64c-0.1,0-0.2,0-0.4,0.1s-0.4,0.1-0.6,0.2L62.6,45c-0.1,0-0.2,0.1-0.3,0.1c-0.2,0.1-0.5,0.2-0.7,0.3h-0.1
	c-0.1,0-0.1,0-0.1,0.1c-0.1,0-0.2,0.1-0.2,0.1c-0.3,0.1-0.5,0.3-0.8,0.4c-1.9-1.9-4.1-3.7-5-4.3c-0.3-0.3-0.7-0.5-0.9-0.7h-0.1
	c-0.3-0.3-0.7-0.6-1-0.8c-0.1-0.1-0.3-0.2-0.4-0.3c-1.2-0.8-2.4-1.2-3.9-1.3h-0.5c-0.5-0.1-1-0.1-1.5-0.1c-0.8,0-1.5,0.1-2,0.4
	c-2.5,0.5-4.8,1.5-6.7,2.3c-1.4,0.6-3.6,1.6-4.4,3.6c-0.9,2.4,0.7,4.6,1.6,5.8c2,2.7,4,5.5,6.7,7.8L43,59c2.3,2.1,4.3,3.8,8.2,4.3
	c0.3,0,0.6,0.1,1,0.1c0.1,0,0.2,0,0.3,0h0.2c0.1,0,0.2,0,0.4,0H53c0.2,0,0.3,0,0.5,0s0.3,0,0.5,0c0.1,0,0.2,0,0.3,0v0.1l3.5-0.6
	l0.5-0.1c0.3-0.1,0.6-0.1,0.9-0.2v0.5l0.6,0.5c0.2,0.2,0.4,0.4,0.6,0.7c-0.1,0.7,0,1.5,0.3,2.4c0.1,0.2,0.1,0.3,0.2,0.4v0.1
	c0,0.2,0,0.3,0,0.5v0.2c0,0.3-0.1,0.7-0.1,1l0,0c0,0.3-0.1,0.5-0.1,0.8v0.1c0,0.1,0,0.2,0,0.3c-0.1,0.4-0.1,0.9-0.1,1.5
	c0,0.1,0,0.2,0,0.3v0.3c0,0.1,0,0.3,0,0.4s0,0.2,0,0.3v0.5c0.1,1.5,0.2,3.1,0.6,4.7l0,0c0.3,1.4,0.7,2.9,1.2,4.5
	c0.1,0.2,0.1,0.4,0.2,0.5c0.1,0.2,0.2,0.5,0.3,0.7c0.1,0.3,0.2,0.5,0.3,0.8l0.1,0.2c0.2,0.6,0.5,1.1,0.7,1.7
	c0.2,0.5,0.4,0.9,0.6,1.4l0.1,0.3c0.2,0.5,0.5,1,0.7,1.5l0.1,0.2c0.2,0.5,0.5,1,0.7,1.4l0.9,1.7c0.2,0.3,0.3,0.6,0.5,1
	c0,1.1,0.2,2,0.5,2.9c-0.2,1.6,0.7,3.2,2.3,4c0.1,0.1,0.3,0.1,0.9,0.2c0.3,0.2,0.5,0.3,0.7,0.5h0.1c0,0,0.1,0,0.1,0.1
	s0.1,0.2,0.1,0.3l0.1,0.2c0.8,1.8,2.2,5.2,5.8,5.2h8.6l0,0c3.6,0,5-3.4,5.8-5.2l0.1-0.2c0-0.1,0.1-0.1,0.1-0.2l0,0h0.1
	c0.5-0.2,0.9-0.4,1.3-0.6c0.7-0.1,0.9-0.2,1-0.2c1.9-0.9,2.8-3.1,2.1-4.9c0.1-0.7,0.2-1.3,0.2-2.1c0.2-0.3,0.3-0.6,0.5-0.9l0.9-1.7
	c0.2-0.5,0.5-1,0.7-1.5l0.1-0.1c0.2-0.5,0.5-1,0.7-1.5l0.1-0.3c0.2-0.5,0.4-0.9,0.6-1.4c0.3-0.6,0.5-1.2,0.7-1.7l0.1-0.1
	c0.1-0.3,0.2-0.5,0.3-0.8c0.1-0.2,0.2-0.4,0.2-0.7c0.1-0.2,0.1-0.4,0.2-0.6c0.5-1.5,0.9-3,1.3-4.4l0,0c0.3-1.6,0.5-3.2,0.6-4.7v-0.5
	c0-0.1,0-0.2,0-0.4c0-0.1,0-0.3,0-0.5v-0.3c0-0.1,0-0.2,0-0.3c0-0.5-0.1-1-0.1-1.5V70c0-0.4-0.1-0.7-0.1-1.1v-0.1
	c-0.1-0.4-0.1-0.7-0.2-1.1v-0.2c0-0.2,0-0.3,0-0.5v-0.1c0.1-0.1,0.1-0.3,0.2-0.4c0.3-0.8,0.4-1.6,0.3-2.4c0.2-0.3,0.4-0.5,0.6-0.7
	l0.5-0.3l0.2-0.1v-0.5c0.3,0.1,0.6,0.1,0.9,0.2l0.2,0.1l0,0l3.8,0.7v-0.1c0.1,0,0.2,0,0.3,0c0.2,0,0.4,0,0.6,0c0.1,0,0.3,0,0.4,0
	h0.1c0.1,0,0.3,0,0.4,0h0.3c0.1,0,0.2,0,0.3,0c0.4,0,0.7,0,1-0.1c3.9-0.4,5.9-2.2,8.2-4.3l0.7-0.6c0.3-0.3,0.7-0.6,1-0.9
	c2.2-2.2,4-4.6,5.7-6.9c0.6-0.9,1.7-2.4,1.8-4c0.1-0.6,0-1.2-0.2-1.8C130.3,42.5,128.1,41.5,126.7,40.9z M54.4,59L54.4,59
	c0,0.3,0,0.5,0,0.6c-0.2,0-0.4,0-0.7,0.1c-0.1,0-0.2,0-0.2,0h-0.1c-0.2,0-0.5,0-0.7,0c-0.1,0-0.2,0-0.3,0c-0.4,0-0.7,0-1-0.1
	c-2.6-0.3-3.9-1.5-6-3.3l-0.7-0.6c-2.4-2.1-4.3-4.7-6.1-7.3c-0.7-1-1.4-2.1-1.2-2.8s1.4-1.2,2.4-1.6c1.8-0.8,3.7-1.6,5.5-2l0,0
	c0.1,0,0.2,0.1,0.3,0.1h0.1c0.1,0,0.1,0.1,0.2,0.1c0.3,0.2,0.6,0.4,0.9,0.6c0.4,0.3,0.8,0.6,1.2,0.9c0,0,0,0,0.1,0
	c0,0,0.1,0,0.1,0.1c0.3,0.3,0.7,0.6,0.9,0.9C53.3,49.1,54.3,54.9,54.4,59z M101.6,56.6c0.3,0.9,0.4,2,0.4,3.1v0.4c0,0.3,0,0.6,0,0.8
	c-0.1,0-0.1,0-0.2-0.1c-1.6-0.5-3.3-0.3-4.8,0.6c-1,0.6-3,2.2-3.1,4c-0.1,2,2.1,3.6,2.9,4c1.1,0.6,2.5,0.7,3.8,0.2
	c0,0.1,0,0.1,0,0.2v0.1c0,0.4,0.1,0.8,0.1,1.3c0,0.1,0,0.3,0,0.4V72c0,0.1,0,0.2,0,0.3c0,0.1,0,0.2,0,0.3v0.2c0,0.2,0,0.3,0,0.5
	c0,0.3,0,0.6-0.1,0.8c0,0.5-0.1,1-0.2,1.4v0.2c-0.1,0.4-0.1,0.7-0.2,1.1v0.1c-0.9,4.5-2.9,8.8-4.7,12.5l-0.6,1.2
	c-0.1,0.2-0.2,0.3-0.3,0.5c-0.4-0.7-0.8-1.4-1.1-2c-0.3-0.6-0.7-1.5-1.6-2.2c-2.1-1.6-5-1.2-7.1-0.8c-1.4,0.3-2.9,0.3-4.3,0
	c-2.1-0.5-5.1-0.9-7.1,0.7c-0.9,0.7-1.3,1.5-1.6,2.2c-0.4,0.8-0.9,1.7-1.4,2.5c-0.2-0.3-0.3-0.7-0.5-1l-0.6-1.2
	c-1.8-3.7-3.8-8-4.7-12.5v-0.1c-0.1-0.4-0.1-0.7-0.2-1.1v-0.2c-0.1-0.4-0.1-0.9-0.2-1.4c0-0.3-0.1-0.6-0.1-0.8c0-0.2,0-0.3,0-0.5
	v-0.2c0-0.1,0-0.2,0-0.3s0-0.2,0-0.3v-0.3c0-0.1,0-0.2,0-0.3c0-0.5,0.1-0.9,0.1-1.3c0-0.1,0-0.2,0-0.3c1.3,0.4,2.6,0.3,3.7-0.2
	c0.8-0.4,3-2,2.9-4c-0.1-1.8-2.1-3.4-3.1-4l0,0c-1.5-0.9-3.3-1.1-4.8-0.5c0.1,0,0.1,0,0,0c0-0.3,0-0.6,0-0.8v-0.4
	c0-1.2,0.2-2.3,0.4-3.2l0.4-1.7L60,54.1l-0.4,1.7c-0.2,0.9-0.4,1.9-0.5,2.9l-0.3,0.1c-0.2,0.1-0.5,0.1-0.7,0.2c0-0.3,0-0.6,0-0.9
	c0-0.1,0-0.3-0.1-0.5v-0.2c0-0.3,0-0.5-0.1-0.8c0-0.3-0.1-0.6-0.1-0.8s0-0.3-0.1-0.5c-0.1-0.3-0.1-0.6-0.2-0.9c0-0.1,0-0.1-0.1-0.2
	v-0.1c-0.7-3.5-2-6.6-3.9-9.2c1.9,1.5,3.7,3.1,4.8,4.4l1.2,1.4l1.5-1.1c0.3-0.2,0.6-0.4,0.9-0.6c1-0.6,2.1-0.9,3.3-1.1
	c0.6-0.1,1.2-0.4,1.6-0.6c0.1-0.1,0.2-0.1,0.3-0.2l1.9-1l-0.6-0.9c0.1-0.2,0.3-0.3,0.4-0.5l0,0c0.5-0.6,1-1.3,1.3-1.6
	c2.4-2.3,7.4-3.8,10.8-4h2.4c3.6,0.2,8.5,1.7,11,4c0.3,0.3,0.8,1,1.3,1.6l0,0c0.1,0.2,0.3,0.4,0.4,0.5L95.6,46l1.9,1
	c0.1,0.1,0.2,0.1,0.3,0.2c0.4,0.2,0.9,0.5,1.6,0.6c1.6,0.2,3,0.8,4.2,1.7l1.5,1.1l1.2-1.4c1.1-1.3,2.9-2.9,4.8-4.4
	c-1.9,2.6-3.2,5.7-3.9,9.1V54c0,0.1,0,0.2-0.1,0.3c-0.1,0.3-0.1,0.5-0.1,0.8c0,0.2-0.1,0.4-0.1,0.7c0,0.2-0.1,0.4-0.1,0.7
	s-0.1,0.7-0.1,1v0.2c0,0.1,0,0.1,0,0.2c0,0.3,0,0.7,0,1c-0.2-0.1-0.5-0.1-0.7-0.2l-0.3-0.1c-0.1-1-0.2-2-0.5-2.9l-0.4-1.7l-3.7,0.8
	L101.6,56.6z M100.6,65.1c-0.1,0.2-0.2,0.4-0.4,0.6l0,0c-0.3,0.3-0.5,0.6-0.8,0.7c-0.3,0.2-0.6,0.2-0.8,0.1
	c-0.4-0.2-0.9-0.7-0.9-0.9l0,0c0.1-0.2,0.7-0.9,1.4-1.3l0,0c0.5-0.3,1-0.4,1.5-0.2c0,0,0.1,0,0.1,0.1c0.1,0.1,0.1,0.1,0.1,0.1
	C100.8,64.5,100.7,64.7,100.6,65.1z M71.9,96.7L71.9,96.7c0.5-1.1,1.1-2.2,1.7-3.2c0.1-0.2,0.2-0.4,0.3-0.6l3.8,3l2.5-2.6l-3.9-3
	L74,92.7c0.5-0.8,0.9-1.7,1.3-2.5c0.2-0.4,0.4-0.8,0.7-1c0.4-0.3,1.3-0.5,3.7,0c2,0.4,4.1,0.4,6.1,0c1.9-0.4,3.1-0.4,3.6,0l0,0
	c0.2,0.2,0.4,0.6,0.7,1c0.5,1.1,1.2,2.3,1.8,3.3c0.5,0.8,1,1.7,1.5,2.7c0,0.1,0.1,0.1,0.1,0.2c0.1,0.1,0.1,0.2,0.2,0.3
	c0.1,0.2,0.1,0.5-0.2,0.7c-0.2,0-0.4,0-0.8,0.1c-3.9,0.3-16.2,0.3-20,0l0,0c-0.3,0-0.6,0-0.7-0.1C71.8,97.3,71.7,97,71.9,96.7z
	 M66.4,66.6c-0.2,0.1-0.5,0.1-0.8-0.1c-0.3-0.1-0.5-0.4-0.8-0.7l0,0l0,0c-0.2-0.2-0.3-0.4-0.4-0.7c-0.1-0.3-0.2-0.6-0.1-0.7
	c0,0,0-0.1,0.1-0.1s0.1-0.1,0.1-0.1c0.4-0.1,1-0.1,1.5,0.2c0.7,0.4,1.3,1.1,1.4,1.3C67.2,65.9,66.8,66.4,66.4,66.6z M64.7,65.8
	l-0.2,0.1L64.7,65.8L64.7,65.8z M110.2,59h0.4c0.1-4.5,1.3-10.7,6.4-15.1l0.1-0.1l0,0c0.4-0.3,0.8-0.6,1.2-0.9
	c0.3-0.2,0.5-0.4,0.9-0.6c0.1,0,0.2-0.1,0.2-0.1h0.1c0.1,0,0.2-0.1,0.3-0.1c1.8,0.4,3.6,1.2,5.5,2c1,0.4,2.2,1,2.4,1.6
	c0.3,0.7-0.4,1.8-1.2,2.8c-1.9,2.5-3.8,5.2-6.1,7.3l-0.7,0.6c-2,1.8-3.4,3-6,3.3c-0.3,0-0.6,0.1-1,0.1c-0.1,0-0.2,0-0.3,0
	c-0.2,0-0.4,0-0.6,0h-0.1c-0.1,0-0.2,0-0.3,0c-0.2,0-0.4,0-0.5-0.1h-0.1l0,0c0-0.2,0-0.4,0-0.6h-0.6V59z M86.8,103.6h-8.6
	c-0.8,0-1.6-1.6-2.1-2.6l0,0c2,0.1,4.3,0.1,6.7,0.1c2.2,0,4.3,0,6.1-0.1C88.4,102.1,87.6,103.6,86.8,103.6z M103.4,77.6L103.4,77.6
	L103.4,77.6L103.4,77.6z M87.3,95.9l-2.5-2.5l3.9-3.1l2.5,2.6L87.3,95.9z M87.3,95.9L87.3,95.9L87.3,95.9L87.3,95.9z M80.6,51.1h3.8
	v10.2h-3.8V51.1z M77.3,69.8c0.2,2.8,0,5.6-0.7,8.2c-0.3,1.1-0.6,2.2-1.1,3.4L74.9,83l0,0l-3.6-1.1l0.6-1.6c0.4-1.1,0.7-2.1,1-3
	c0.6-2.3,0.8-4.7,0.6-7.2l-0.1-1.7l3.8-0.2L77.3,69.8z M93,80.2l0.6,1.6L90,82.9l0,0l-0.6-1.6c-0.5-1.2-0.8-2.3-1.1-3.4
	c-0.7-2.6-0.9-5.4-0.7-8.2l0.1-1.7l3.8,0.2L91.4,70c-0.2,2.5,0,4.9,0.6,7.2C92.3,78.1,92.6,79.1,93,80.2z"/>
</svg>
