<?xml version="1.0" encoding="utf-8"?>
<!-- Generator: Adobe Illustrator 25.1.0, SVG Export Plug-In . SVG Version: 6.00 Build 0)  -->
<svg version="1.1" id="Layer_1" xmlns="http://www.w3.org/2000/svg" xmlns:xlink="http://www.w3.org/1999/xlink" x="0px" y="0px"
	 viewBox="0 0 164 164" style="enable-background:new 0 0 164 164;" xml:space="preserve">
<path style="fill:#B8CC7A;" d="M115.3,146.7v5.3H48.7v-5.3H115.3z M128.7,138.8l0,0.7c-0.3,6.8-5.8,12.2-12.6,12.5l-0.7,0v-5.3
	c4.4,0,8-3.5,8-7.9V90.3l-28-28.2c-3.4-3.5-5.4-8.1-5.4-13V25.2c0-4.4-3.6-7.9-8-7.9c-4.4,0-8,3.5-8,7.9v23.9c0,4.8-1.9,9.5-5.4,13
	l-28,28.2v48.5c0,4.4,3.6,7.9,8,7.9v5.3l-0.7,0c-7-0.4-12.6-6.1-12.6-13.2V87.8c0-0.3,0.3-0.6,0.6-0.6c0.2,0,0.3-0.1,0.4-0.2
	l28.5-28.8c2.3-2.3,3.6-5.4,3.8-8.6l0-0.6V25.2c0-7.3,6-13.2,13.3-13.2s13.3,5.9,13.3,13.2v23.9l0,0.6c0.2,3.2,1.5,6.3,3.8,8.6
	l28.5,28.8c0.1,0.1,0.3,0.2,0.4,0.2c0.3,0,0.6,0.3,0.6,0.6V138.8z M85.7,28c0,2.3-1.6,4.1-3.7,4.1c-2,0-3.7-1.8-3.7-4.1
	c0-2.3,1.6-4.1,3.7-4.1C84,23.9,85.7,25.7,85.7,28z M105.2,130v-21.3H105l-6.2,4.6h-0.4v-4.9l6.7-4.9h5.2V130H105.2z M86.2,130
	c-2.9,0-5.3-0.7-7-2.1c-1.8-1.4-2.7-3.4-2.7-6h5c0,1.1,0.4,2,1.2,2.7c0.7,0.8,1.9,1.1,3.5,1.1c1.5,0,2.5-0.3,3.3-1
	c0.7-0.7,1.1-1.5,1.1-2.6c0-1.1-0.4-2-1.2-2.6c-0.8-0.7-2-1-3.5-1h-2.3v-4.3h2.2c1.3,0,2.2-0.3,3-0.9c0.7-0.5,1-1.3,1-2.4
	c0-0.9-0.3-1.6-1-2.2c-0.7-0.6-1.6-0.9-2.8-0.9c-1.3,0-2.3,0.3-3,1c-0.7,0.6-1,1.6-1,2.7h-5.1c0-2.5,0.9-4.4,2.6-5.9
	c1.6-1.4,3.9-2.2,6.6-2.2c2.5,0,4.6,0.6,6.3,1.9c1.7,1.3,2.5,3,2.5,5c0,2.8-1.2,4.6-3.6,5.5v0.1c1.3,0.4,2.3,1.1,3.2,2.2
	c0.8,1.1,1.2,2.3,1.2,3.8c0,2.3-0.8,4.2-2.4,5.7C91.7,129.3,89.3,130,86.2,130z M63.2,130c-3.3,0-5.7-1.2-7.3-3.6
	c-1.6-2.4-2.4-5.6-2.4-9.7c0-4,0.8-7.3,2.4-9.7c1.5-2.4,4-3.6,7.3-3.6c3.3,0,5.7,1.2,7.3,3.6c1.6,2.4,2.4,5.6,2.4,9.7
	c0,4.1-0.8,7.3-2.4,9.7C68.9,128.9,66.5,130,63.2,130z M63.2,125.7c1.7,0,2.9-0.7,3.6-2.2c0.7-1.5,1-3.7,1-6.7c0-2.9-0.4-5.1-1-6.7
	c-0.7-1.5-1.9-2.2-3.6-2.2c-1.7,0-2.9,0.7-3.6,2.2c-0.7,1.5-1,3.8-1,6.7c0,3,0.3,5.2,1,6.7C60.3,124.9,61.5,125.7,63.2,125.7z"/>
</svg>
