<?xml version="1.0" encoding="utf-8"?>
<!-- Generator: Adobe Illustrator 25.1.0, SVG Export Plug-In . SVG Version: 6.00 Build 0)  -->
<svg version="1.1" id="Layer_1" xmlns="http://www.w3.org/2000/svg" xmlns:xlink="http://www.w3.org/1999/xlink" x="0px" y="0px"
	 viewBox="0 0 65 28" style="enable-background:new 0 0 65 28;" xml:space="preserve">
<path style="fill:#B8CC7A;" d="M32.5,27.7c-5.8,0-11-3.7-12.9-9.2L15.4,6.1H6.6c1.1,2,3.1,3.2,5.4,3.2h2.7v5.9h-2.7
	C5.4,15.3,0,9.8,0,3.2V0.3h19.6l5.6,16.4c1.1,3.1,4,5.2,7.3,5.2s6.2-2.1,7.3-5.2l5.6-16.4H65v2.9c0,6.7-5.4,12.1-12.1,12.1h-2.7V9.4
	h2.7c2.3,0,4.4-1.3,5.4-3.2h-8.8l-4.3,12.4C43.5,24,38.3,27.7,32.5,27.7z M4.6,4.7h11.8L21,18.1c1.7,4.9,6.3,8.2,11.5,8.2
	c5.2,0,9.8-3.3,11.5-8.2l4.6-13.4h11.8l-0.3,0.9c-1.1,3.1-3.9,5.1-7.2,5.1h-1.3v3.1H53c5.9,0,10.7-4.8,10.7-10.7V1.7H46.4l-5.3,15.5
	c-1.3,3.7-4.7,6.2-8.6,6.2c-3.9,0-7.4-2.5-8.6-6.2L18.6,1.7H1.4v1.5c0,5.9,4.8,10.7,10.7,10.7h1.3v-3.1h-1.3c-3.2,0-6.1-2.1-7.2-5.1
	L4.6,4.7L4.6,4.7z"/>
</svg>
