<?xml version="1.0" encoding="UTF-8"?>
<svg id="Layer_1" xmlns="http://www.w3.org/2000/svg" version="1.1" viewBox="0 0 168 120">
  <!-- Generator: Adobe Illustrator 29.4.0, SVG Export Plug-In . SVG Version: 2.1.0 Build 152)  -->
  <defs>
    <style>
      .st0 {
        fill: #262626;
      }
    </style>
  </defs>
  <path class="st0" d="M40.62,78.08c.84,2.24,1.59,4.48,2.43,6.63v.09h-6.35c-.47-1.4-1.03-2.9-1.49-4.39h-9.25c-.47,1.49-1.03,2.9-1.49,4.39h-6.44c0-.09.09-.19.09-.28.84-2.24,1.68-4.58,2.43-6.82.84-2.33,1.68-4.67,2.52-7,.65-1.96,1.4-3.83,2.05-5.79.19-.65.37-1.21.65-1.77.84-1.77,2.24-2.8,4.2-3.08h4.02c.09.28.19.56.28.84.56,1.59,1.12,3.08,1.68,4.67.75,2.05,1.49,4.11,2.24,6.16.84,2.05,1.68,4.2,2.43,6.35ZM32.21,71.63c-.56-1.59-1.12-3.27-1.59-4.86h-.09c-1.03,2.99-2.05,5.98-3.08,8.97h6.07c-.37-1.4-.84-2.71-1.31-4.11ZM97.78,64.72c.28.65.37,1.4.37,2.15v2.62l.09-.09c.93-1.31,2.24-2.05,3.83-2.33,1.31-.28,2.62-.19,3.92.28,1.4.47,2.62,1.31,3.55,2.52,1.03,1.31,1.59,2.8,1.77,4.48.09.75.09,1.49.09,2.24-.09,2.24-.65,4.3-2.15,6.07-1.12,1.31-2.62,2.15-4.39,2.43-1.4.19-2.8.09-4.2-.47-.93-.37-1.77-1.03-2.33-1.87q-.09-.09-.19-.28v2.33c-.28.09-4.95.09-5.42,0v-23.35c1.68-.19,4.02.93,5.04,3.27ZM98.15,75.09c-.09.65-.09,1.31,0,2.05.37,1.96,2.05,3.27,3.83,3.27,1.59,0,2.99-1.03,3.46-2.33.47-1.21.56-2.52.09-3.74-.65-2.05-2.8-2.99-4.76-2.33-1.49.28-2.33,1.4-2.62,3.08ZM85.35,78.92h4.11c-.09.47-.28.93-.47,1.31-.56,1.31-1.49,2.43-2.71,3.27-1.03.75-2.24,1.21-3.46,1.4-.93.19-1.87.19-2.8.09-1.96-.19-3.74-.84-5.23-2.15-1.21-1.12-2.05-2.52-2.43-4.2-.28-1.12-.37-2.24-.28-3.36.09-1.59.47-3.08,1.21-4.39,1.03-1.77,2.62-2.99,4.67-3.64,1.31-.37,2.62-.47,4.02-.37,1.77.09,3.46.65,4.86,1.87,1.49,1.21,2.43,2.8,2.8,4.58.19.93.28,1.87.28,2.8,0,.37-.09.75-.09,1.12h-12.23c0,1.49.84,2.62,1.96,3.08,1.03.37,2.05.37,3.08-.19.47-.28.75-.65.93-1.03.09-.19.19-.19.37-.19.37,0,.84,0,1.4,0ZM82.27,74.25h2.05v-.47c-.09-1.03-.75-1.77-1.68-2.24-.75-.37-1.49-.37-2.24-.28-.93.19-1.68.56-2.24,1.4-.28.47-.56,1.03-.56,1.59,1.49,0,2.99,0,4.67,0ZM132.8,76.86v-1.49c.09-2.15.75-4.11,2.24-5.79,1.03-1.12,2.33-1.87,3.74-2.24,1.31-.37,2.62-.47,3.92-.37,1.49.09,2.9.56,4.2,1.31,1.12.75,1.96,1.59,2.62,2.8s1.03,2.52,1.12,3.92v1.96c0,.09,0,.19-.09.37h-12.23c0,1.4.75,2.62,1.96,3.08.93.37,1.96.37,2.9-.09.47-.28.84-.65,1.12-1.12.09-.19.28-.28.47-.28h5.51c-.09.19-.09.47-.19.65-.65,1.96-1.87,3.36-3.74,4.39-1.03.56-2.15.93-3.36,1.03-1.68.19-3.27,0-4.86-.56-1.87-.65-3.27-1.87-4.2-3.55-.56-1.03-.93-2.05-1.03-3.18,0-.28-.09-.56-.09-.84ZM143.26,71.54c-.56-.28-1.12-.28-1.68-.28-1.03,0-1.87.37-2.52,1.21-.37.47-.65,1.12-.75,1.77h6.72c0-1.4-.75-2.24-1.77-2.71ZM116.46,83.31c-1.59-1.21-2.62-2.9-3.08-4.86-.28-1.03-.28-2.15-.28-3.18.09-1.31.37-2.62.93-3.74.84-1.77,2.15-3.08,4.02-3.92,1.12-.47,2.24-.75,3.46-.75,1.03-.09,2.15,0,3.18.28,1.4.37,2.71,1.03,3.83,2.05,1.03,1.03,1.77,2.24,2.15,3.55.19.65.28,1.31.37,2.05v1.12c0,.37,0,.75-.09,1.21q0,.09-.09.19h-12.23c0,.28,0,.56.09.84.37,1.31,1.12,2.15,2.43,2.43,1.03.19,1.96.09,2.8-.65.28-.28.56-.65.84-1.03h5.79c-.09.19-.09.37-.19.56-.37,1.21-1.03,2.24-1.96,3.08-1.21,1.21-2.62,1.96-4.3,2.24-.93.19-1.87.28-2.8.19-1.68-.09-3.36-.56-4.86-1.68ZM121.59,71.26c-.09,0-.19,0-.28.09-.93.19-1.68.65-2.15,1.49-.28.47-.47.93-.47,1.4h6.72c0-.19,0-.28-.09-.37-.09-.84-.47-1.49-1.21-1.96-.65-.56-1.49-.75-2.52-.65ZM162.41,68.83c0,1.59-1.12,2.71-2.9,2.9v13.08h-5.42v-13.17h-1.96v-4.58h1.96v-.56c0-.84.09-1.68.37-2.43.56-1.77,1.77-2.99,3.55-3.64.75-.28,1.59-.47,2.43-.47h1.96v4.58h-.47c-.37,0-.75,0-1.12.09-.56.09-1.03.47-1.12,1.12-.09.37-.19.84-.19,1.21h2.99c-.09.75-.09,1.31-.09,1.87ZM51.73,69.3c.65-.75,1.31-1.31,2.15-1.77.75-.37,1.49-.65,2.33-.65.19,0,.37,0,.56-.09.09.28.09,4.48.09,5.7h-1.59c-.56,0-1.12.09-1.68.19-1.31.37-2.05,1.12-2.24,2.52-.09.47-.09.93-.09,1.4v8.03h-5.42c-.09-.28-.09-16.53,0-17.65h2.52c1.68,0,2.9,1.31,2.9,2.8v.09c.19-.19.37-.28.47-.56ZM64.9,79.94v4.76h-5.42v-17.65h2.43c1.12,0,2.05.47,2.62,1.49.19.37.37.75.37,1.21v.19c1.4-1.87,3.18-2.99,5.51-2.99v5.79h-2.24c-.56,0-1.12.19-1.59.37-.84.37-1.31,1.03-1.49,1.87-.09.47-.19,1.03-.19,1.49,0,1.12,0,2.24,0,3.46ZM17.64,44.64c-.93-.47-1.87-1.12-2.62-1.77-1.31-1.21-2.43-2.62-3.08-4.2-.37-.75-.56-1.49-.75-2.24v-.19c.75-.56,3.18-1.31,4.67-1.4.56,2.62,1.96,4.58,4.39,5.7,2.43,1.12,4.86.93,7.19-.28.93,1.31,1.59,2.8,1.96,4.39-2.9,1.49-7.57,2.15-11.77,0ZM12.41,55.29c-.56.93-1.31,1.87-2.15,2.62-1.12-.65-2.71-2.05-3.55-3.27,1.96-1.77,2.9-3.92,2.62-6.54-.28-2.62-1.59-4.58-3.83-5.98.65-1.49,1.59-2.8,2.8-3.92,5.42,3.18,7.85,10.74,4.11,17.09ZM29.41,48.84c-.09,1.03-.37,1.96-.75,2.9-.09.28-.28.56-.37.93-2.43-.75-4.76-.47-6.91,1.03-2.15,1.49-3.18,3.55-3.36,6.07-.75.19-3.18.09-4.76-.37-.09-2.43,1.31-6.54,4.76-9.15,3.64-2.9,8.22-3.18,11.39-2.15.09.19.09.47,0,.75Z"/>
</svg>