<?xml version="1.0" encoding="UTF-8"?>
<svg id="Layer_1" xmlns="http://www.w3.org/2000/svg" version="1.1" viewBox="0 0 168 120">
  <!-- Generator: Adobe Illustrator 29.4.0, SVG Export Plug-In . SVG Version: 2.1.0 Build 152)  -->
  <defs>
    <style>
      .st0 {
        fill: #636363;
      }
    </style>
  </defs>
  <path class="st0" d="M120.16,47.9h-1.11s-2.23-.07-3.69,2.23c-1.74,2.86-2.02,3.83-3.62,10.1,0,0-.91,3.76-.7,6.9.14,1.32.21,2.16.21,2.16,1.18,5.3,7.52-3.07,7.52-3.07l.91.63c-3.69,5.02-8.92,7.32-8.92,7.32-3.83,1.53-4.32-3.48-4.32-3.48-.07-1.25-.14-2.37-.07-3.48.07-.77.14-1.67.28-2.72.49-4.53,3.41-10.38,3.41-10.38,3.41-7.52,8.92-7.32,8.92-7.32h5.78s1.05,14.7-13.45,14.56l-2.65-1.46c11.15,3.27,11.5-11.98,11.5-11.98h0ZM132.98,48.39h9.54v-1.6h-9.13l1.95-7.8h-1.39s-3.55,7.8-7.52,7.8v1.53h1.74l-5.57,23.69s-.56,1.88.63,2.44l8.57-5.5-.77-.84-1.88,1.25-.77.42c-.63-.28-.21-1.74-.21-1.74l4.81-19.65ZM104.69,50.48l.28-.91s.56-1.88-.63-2.44l-6.55,4.39.49.84.98-.63c.63.28.21,1.74.21,1.74l-4.81,18.88s-.56,1.88.63,2.44l4.6-3.2c-.63-.28-.21-1.74-.21-1.74l4.88-18.6c1.53-.98,3.2-1.32,4.46.49l3.97-4.04c-2.51-1.74-5.99.42-8.29,2.79h0ZM75.43,69.92l-.77.42c-.63-.28-.21-1.74-.21-1.74l5.3-21.25h-6.48s-5.57-.21-8.92,7.25c0,0-2.93,5.78-3.34,10.24-.49,4.46-.28,6.2,0,7.45,0,0,.77,4.25,3.97,1.39,3.48-3.14,6.06-8.5,6.06-8.5l-1.74,7.11s-.56,1.88.63,2.44l6.76-4.6-.56-.7-.7.49h0ZM69.44,66.02c-3.2,4.6-3.83,3.48-4.18,1.39-.42-2.72.7-6.83.7-6.83,1.6-6.2,1.81-7.18,3.55-10.03,1.46-2.37,3.76-2.23,3.76-2.23h1.6c0,.07-3.27,14.49-5.43,17.7ZM90.76,47.35s-5.64-.21-8.99,7.25c0,0-2.93,5.78-3.41,10.24-.49,4.46-.28,6.2.07,7.45,0,0,.84,4.25,3.97,1.39,3.48-3.14,5.99-8.5,5.99-8.5l-2.51,9.75s-3.97,19.3-16.79,16.86c-7.25-1.39-7.94-5.57-7.94-5.57l-2.16,1.46c1.05.77,3.14,3.41,9.06,4.74,9.54,2.16,15.61-3,18.95-8.64,2.65-4.11,4.11-11.84,4.11-11.84l6.2-24.66h-6.55v.07ZM86.93,66.02c-3.2,4.6-3.9,3.48-4.18,1.39-.42-2.72.7-6.83.7-6.83,1.6-6.2,1.81-7.18,3.55-10.03,1.46-2.37,3.83-2.23,3.83-2.23h1.6c0,.07-3.27,14.49-5.5,17.7h0ZM64,42.05c2.16-5.36,6.9-15.89,15.54-13.86,7.18,1.67,7.8,5.78,7.8,5.78l2.23-1.39c-.98-.77-3.07-3.48-8.92-4.95-8.5-2.16-15.05,2.3-18.74,8.08-.63.91-1.32,1.95-1.81,3.07l-1.88,3.14-2.93,6.27-4.81,9.96c-1.18,2.51-2.44,4.74-3.41,6.34l6.2-22.43s3.69-12.54,4.81-13.24c-2.44,0-4.6,2.3-4.6,2.3-2.86,3.27-3.9,6.13-3.9,6.13l-2.16,4.67-2.93,6.27-4.81,9.96c-2.51,5.16-4.95,9.06-4.95,9.06-4.6,6.27-9.27,6.55-9.27,6.55v3.48s5.16-1.11,10.31-9.2c0,0,2.65-3.83,5.09-8.99l6.48-13.24s.14-.28.42-.14c0,0,.28.07.14.35l-5.3,18.67c-.28,1.18-.7,3.34-.7,6.2,0,0,0,3.07,1.81,4.67l14.42-29.68s.14-.28.42-.14c0,0,.28.07.14.35,0,0-3.2,9.82-4.32,14.35-1.18,4.39-2.44,11.43-2.51,12.68s-.56,1.88.63,2.44l6.83-4.95-.42-.63-.84.56-.7.42c-.77-.14-.49-1.74-.49-1.74.42-4.74,4.04-19.79,7.11-27.17h0Z"/>
</svg>