<?xml version="1.0" encoding="UTF-8"?>
<svg id="Layer_1" xmlns="http://www.w3.org/2000/svg" version="1.1" viewBox="0 0 168 120">
  <!-- Generator: Adobe Illustrator 29.4.0, SVG Export Plug-In . SVG Version: 2.1.0 Build 152)  -->
  <defs>
    <style>
      .st0 {
        fill: #636363;
        fill-rule: evenodd;
      }
    </style>
  </defs>
  <path class="st0" d="M27.66,77.74h99.84c3.41,0,6.67-1.35,9.08-3.76,2.41-2.41,3.76-5.68,3.76-9.08v-22.64H40.78c-3.48,0-6.81,1.42-9.3,3.83-2.48,2.48-3.83,5.75-3.83,9.3v22.35h0ZM127.5,81H24.39v-25.62c0-4.33,1.7-8.52,4.83-11.57,3.12-3.05,7.24-4.83,11.57-4.83h102.82v25.9c0,4.26-1.7,8.37-4.75,11.35-2.98,3.05-7.1,4.75-11.35,4.75h0ZM125.09,69.15v-18.31c0-.64.57-.92,1.7-.92h.99c1.14,0,1.7.28,1.7.92v18.24c0,.64-.57.92-1.7.92h-.99c-1.14.07-1.7-.28-1.7-.85ZM106.85,50.56c0-.43.57-.64,1.7-.64h.92c.92,0,1.49.28,1.7.85l4.19,13.34h.14l4.26-13.34c.21-.57.78-.85,1.7-.85h.85c1.14,0,1.7.21,1.7.64,0,.14,0,.35-.07.5l-6.17,18.38c-.14.43-.64.57-1.63.57h-1.49c-.92,0-1.49-.21-1.63-.57l-6.17-18.38c.07-.21,0-.43,0-.5ZM94.08,68.87v-17.74c0-.78.35-1.14,1.14-1.14h10.43c.57,0,.85.5.85,1.42v.85c0,.92-.28,1.42-.85,1.42h-7.17v4.19h6.39c.57,0,.85.5.85,1.42v.85c0,.92-.28,1.42-.85,1.42h-6.39v4.61h7.24c.57,0,.85.5.85,1.42v.92c0,.92-.28,1.42-.85,1.42h-10.5c-.71,0-1.14-.35-1.14-1.06h0ZM79.67,66.24h3.12c1.49,0,2.7-.5,3.48-1.63.78-1.06,1.14-2.63,1.14-4.68s-.43-3.62-1.14-4.68c-.78-1.06-1.92-1.63-3.48-1.63h-3.12v12.63h0ZM75.27,68.87v-17.74c0-.78.35-1.14,1.14-1.14h6.39c2.98,0,5.18.85,6.74,2.55,1.56,1.7,2.34,4.19,2.34,7.38s-.78,5.68-2.34,7.38c-1.56,1.7-3.83,2.55-6.74,2.55h-6.39c-.78.14-1.14-.28-1.14-.99h0ZM68.03,69.15v-18.31c0-.64.57-.92,1.7-.92h.99c1.14,0,1.7.28,1.7.92v18.24c0,.64-.57.92-1.7.92h-.99c-1.14.07-1.7-.28-1.7-.85ZM56.18,58.37h2.7c.57,0,1.14-.21,1.56-.71.43-.5.64-1.06.64-1.7s-.21-1.21-.64-1.63c-.43-.43-.99-.57-1.77-.57h-2.48v4.61h0ZM51.78,69.15v-18.02c0-.78.35-1.14,1.14-1.14h5.53c4.75,0,7.1,1.77,7.1,5.39,0,1.06-.28,1.99-.92,2.77-.57.78-1.42,1.35-2.41,1.77v.07c.35.14.71.43,1.14.92.35.5.71,1.06.92,1.63l2.48,6.24c.07.21.14.43.14.57,0,.35-.57.57-1.7.57h-1.06c-.92,0-1.49-.21-1.63-.57l-2.27-5.53c-.35-.64-.64-1.06-1.06-1.35-.35-.28-.99-.35-1.84-.35h-1.14v6.95c0,.64-.57.92-1.7.92h-.99c-1.14,0-1.7-.28-1.7-.85h0ZM38.44,69.15v-18.02c0-.78.35-1.14,1.14-1.14h9.51c.57,0,.85.5.85,1.42v.85c0,.92-.28,1.42-.85,1.42h-6.24v4.19h6.1c.57,0,.85.5.85,1.42v.85c0,.92-.28,1.42-.85,1.42h-6.1v7.45c0,.64-.57.92-1.7.92h-.99c-1.14.07-1.7-.21-1.7-.78h0Z"/>
</svg>