<?xml version="1.0" encoding="utf-8"?>
<!-- Generator: Adobe Illustrator 25.1.0, SVG Export Plug-In . SVG Version: 6.00 Build 0)  -->
<svg version="1.1" id="Layer_1" xmlns="http://www.w3.org/2000/svg" xmlns:xlink="http://www.w3.org/1999/xlink" x="0px" y="0px"
	 viewBox="0 0 168 120" style="enable-background:new 0 0 168 120;" xml:space="preserve">
<path style="fill-rule:evenodd;clip-rule:evenodd;fill:#636363;" d="M4.6,85h140.7c4.8,0,9.4-1.9,12.8-5.3c3.4-3.4,5.3-8,5.3-12.8
	V35H23.1c-4.9,0-9.6,2-13.1,5.4c-3.5,3.5-5.4,8.1-5.4,13.1V85L4.6,85z M145.3,89.6H0V53.5c0-6.1,2.4-12,6.8-16.3s10.2-6.8,16.3-6.8
	H168v36.5c0,6-2.4,11.8-6.7,16C157.1,87.2,151.3,89.6,145.3,89.6L145.3,89.6z M141.9,72.9V47.1c0-0.9,0.8-1.3,2.4-1.3h1.4
	c1.6,0,2.4,0.4,2.4,1.3v25.7c0,0.9-0.8,1.3-2.4,1.3h-1.4C142.7,74.2,141.9,73.7,141.9,72.9z M116.2,46.7c0-0.6,0.8-0.9,2.4-0.9h1.3
	c1.3,0,2.1,0.4,2.4,1.2l5.9,18.8h0.2l6-18.8c0.3-0.8,1.1-1.2,2.4-1.2h1.2c1.6,0,2.4,0.3,2.4,0.9c0,0.2,0,0.5-0.1,0.7l-8.7,25.9
	c-0.2,0.6-0.9,0.8-2.3,0.8h-2.1c-1.3,0-2.1-0.3-2.3-0.8l-8.7-25.9C116.3,47.1,116.2,46.8,116.2,46.7z M98.2,72.5V47.5
	c0-1.1,0.5-1.6,1.6-1.6h14.7c0.8,0,1.2,0.7,1.2,2v1.2c0,1.3-0.4,2-1.2,2h-10.1V57h9c0.8,0,1.2,0.7,1.2,2v1.2c0,1.3-0.4,2-1.2,2h-9
	v6.5h10.2c0.8,0,1.2,0.7,1.2,2V72c0,1.3-0.4,2-1.2,2H99.8C98.8,74,98.2,73.5,98.2,72.5L98.2,72.5z M77.9,68.8h4.4
	c2.1,0,3.8-0.7,4.9-2.3c1.1-1.5,1.6-3.7,1.6-6.6c0-2.9-0.6-5.1-1.6-6.6c-1.1-1.5-2.7-2.3-4.9-2.3h-4.4V68.8L77.9,68.8z M71.7,72.5
	V47.5c0-1.1,0.5-1.6,1.6-1.6h9c4.2,0,7.3,1.2,9.5,3.6c2.2,2.4,3.3,5.9,3.3,10.4s-1.1,8-3.3,10.4c-2.2,2.4-5.4,3.6-9.5,3.6h-9
	C72.2,74.1,71.7,73.5,71.7,72.5L71.7,72.5z M61.5,72.9V47.1c0-0.9,0.8-1.3,2.4-1.3h1.4c1.6,0,2.4,0.4,2.4,1.3v25.7
	c0,0.9-0.8,1.3-2.4,1.3h-1.4C62.3,74.2,61.5,73.7,61.5,72.9z M44.8,57.7h3.8c0.8,0,1.6-0.3,2.2-1c0.6-0.7,0.9-1.5,0.9-2.4
	s-0.3-1.7-0.9-2.3c-0.6-0.6-1.4-0.8-2.5-0.8h-3.5V57.7L44.8,57.7z M38.6,72.9V47.5c0-1.1,0.5-1.6,1.6-1.6h7.8c6.7,0,10,2.5,10,7.6
	c0,1.5-0.4,2.8-1.3,3.9c-0.8,1.1-2,1.9-3.4,2.5V60c0.5,0.2,1,0.6,1.6,1.3c0.5,0.7,1,1.5,1.3,2.3l3.5,8.8c0.1,0.3,0.2,0.6,0.2,0.8
	c0,0.5-0.8,0.8-2.4,0.8H56c-1.3,0-2.1-0.3-2.3-0.8l-3.2-7.8c-0.5-0.9-0.9-1.5-1.5-1.9c-0.5-0.4-1.4-0.5-2.6-0.5h-1.6v9.8
	c0,0.9-0.8,1.3-2.4,1.3H41C39.4,74.1,38.6,73.7,38.6,72.9L38.6,72.9z M19.8,72.9V47.5c0-1.1,0.5-1.6,1.6-1.6h13.4
	c0.8,0,1.2,0.7,1.2,2v1.2c0,1.3-0.4,2-1.2,2H26v5.9h8.6c0.8,0,1.2,0.7,1.2,2v1.2c0,1.3-0.4,2-1.2,2H26v10.5c0,0.9-0.8,1.3-2.4,1.3
	h-1.4C20.6,74.1,19.8,73.7,19.8,72.9L19.8,72.9z"/>
</svg>
