<?xml version="1.0" encoding="UTF-8"?>
<svg id="Layer_1" xmlns="http://www.w3.org/2000/svg" version="1.1" viewBox="0 0 168 120">
  <!-- Generator: Adobe Illustrator 29.4.0, SVG Export Plug-In . SVG Version: 2.1.0 Build 152)  -->
  <defs>
    <style>
      .st0 {
        fill: #636363;
        fill-rule: evenodd;
      }
    </style>
  </defs>
  <path class="st0" d="M103.7,45.9l-4.7-14.55c-.51-1.59-1.53-2.94-2.83-3.91-1.3-.96-2.89-1.47-4.59-1.47h-15.29c-1.7,0-3.28.51-4.59,1.47-1.3.96-2.26,2.26-2.83,3.91l-4.7,14.55c-.51,1.59-.51,3.28,0,4.81s1.47,2.89,2.83,3.85l12.46,9c1.36,1.02,2.94,1.47,4.53,1.47s3.17-.51,4.53-1.47l12.34-9c1.36-.96,2.32-2.38,2.83-3.85.51-1.53.51-3.23,0-4.81h0ZM102.35,50.26c-.4,1.25-1.19,2.32-2.26,3.11l-12.4,9c-1.13.79-2.43,1.19-3.68,1.19s-2.6-.4-3.68-1.19l-12.34-9c-1.13-.79-1.87-1.93-2.26-3.11-.4-1.25-.4-2.6,0-3.91l4.7-14.5c.45-1.3,1.25-2.38,2.26-3.17,1.02-.74,2.32-1.19,3.68-1.19h15.29c1.36,0,2.66.45,3.68,1.19,1.02.74,1.87,1.87,2.26,3.17l4.7,14.55c.45,1.25.45,2.6.06,3.85ZM75.28,35.37h17.38v4.98l-1.47-1.13h-9.34v3.62h6l1.42-1.13v5.95l-1.42-1.13h-6v6l1.3,1.42h-7.87l1.13-1.36v-15.8l-1.13-1.42h0ZM36.49,75.46h17.38v4.98l-1.47-1.13h-9.34v3.62h6l1.42-1.13v5.95l-1.42-1.13h-6v6l1.3,1.42h-7.87l1.13-1.36v-15.8l-1.13-1.42h0ZM56.31,75.46h11.55c4.7,0,7.08,1.87,7.08,5.61,0,3.06-1.42,4.93-4.19,5.61l5.04,7.3h-8.21l1.13-1.42-3.51-5.21h-2.43v5.21l1.13,1.42h-7.59l1.08-1.25v-16.02l-1.08-1.25h0ZM62.82,79.31v4.59h3.74c1.93,0,2.83-.79,2.89-2.38,0-1.47-.96-2.21-2.94-2.21h-3.68ZM78.28,75.46h7.76l-1.08,1.3v15.85l1.08,1.3h-7.76l1.13-1.42v-15.63l-1.13-1.42h0ZM94.93,75.46h6.23l9.06,18.52h-7.7l1.08-1.42-.85-1.93h-8.83l-.96,1.93,1.08,1.42h-6.68l8.21-17.16-.62-1.36ZM95.15,87.29h6.17l-3.06-6.62-3.11,6.62ZM112.03,75.46h11.55c4.7,0,7.08,1.87,7.08,5.61,0,3.06-1.42,4.93-4.19,5.61l5.04,7.3h-8.21l1.13-1.42-3.51-5.21h-2.43v5.21l1.13,1.42h-7.64l1.08-1.25v-16.02l-1.02-1.25h0ZM118.48,79.31v4.59h3.74c1.93,0,2.83-.79,2.89-2.38,0-1.47-.96-2.21-2.94-2.21h-3.68ZM119.67,58.02h-16.25v.74h17.27M92.72,66v.74h38.79c-.34-.23-.68-.51-1.02-.74h-37.77ZM125.11,61.98h-27.01v.74h28.09l-1.08-.74ZM48.33,58.02h16.25v.74h-17.33M75.28,66v.74h-38.79l1.02-.74h37.77ZM42.89,61.98h27.01v.74h-28.03l1.02-.74Z"/>
</svg>