<?xml version="1.0" encoding="utf-8"?>
<!-- Generator: Adobe Illustrator 25.1.0, SVG Export Plug-In . SVG Version: 6.00 Build 0)  -->
<svg version="1.1" id="Layer_1" xmlns="http://www.w3.org/2000/svg" xmlns:xlink="http://www.w3.org/1999/xlink" x="0px" y="0px"
	 viewBox="0 0 168 120" style="enable-background:new 0 0 168 120;" xml:space="preserve">
<path style="fill-rule:evenodd;clip-rule:evenodd;fill:#636363;" d="M118.8,35.1l-8.3-25.7c-0.9-2.8-2.7-5.2-5-6.9
	c-2.3-1.7-5.1-2.6-8.1-2.6h-27c-3,0-5.8,0.9-8.1,2.6c-2.3,1.7-4,4-5,6.9l-8.3,25.7c-0.9,2.8-0.9,5.8,0,8.5c0.9,2.7,2.6,5.1,5,6.8
	L76,66.3c2.4,1.8,5.2,2.6,8,2.6c2.8,0,5.6-0.9,8-2.6l21.8-15.9c2.4-1.7,4.1-4.2,5-6.8C119.7,40.9,119.7,37.9,118.8,35.1L118.8,35.1z
	 M116.4,42.8c-0.7,2.2-2.1,4.1-4,5.5L90.5,64.2c-2,1.4-4.3,2.1-6.5,2.1c-2.3,0-4.6-0.7-6.5-2.1L55.7,48.3c-2-1.4-3.3-3.4-4-5.5
	c-0.7-2.2-0.7-4.6,0-6.9L60,10.3c0.8-2.3,2.2-4.2,4-5.6c1.8-1.3,4.1-2.1,6.5-2.1h27c2.4,0,4.7,0.8,6.5,2.1c1.8,1.3,3.3,3.3,4,5.6
	l8.3,25.7C117.1,38.2,117.1,40.6,116.4,42.8z M68.6,16.5h30.7v8.8l-2.6-2H80.2v6.4h10.6l2.5-2v10.5l-2.5-2H80.2v10.6l2.3,2.5H68.6
	l2-2.4V19L68.6,16.5L68.6,16.5z M0.1,87.3h30.7v8.8l-2.6-2H11.7v6.4h10.6l2.5-2v10.5l-2.5-2H11.7v10.6l2.3,2.5H0.1l2-2.4V89.8
	L0.1,87.3L0.1,87.3z M35.1,87.3h20.4c8.3,0,12.5,3.3,12.5,9.9c0,5.4-2.5,8.7-7.4,9.9l8.9,12.9H55l2-2.5l-6.2-9.2h-4.3v9.2l2,2.5
	H35.1l1.9-2.2V89.5L35.1,87.3L35.1,87.3z M46.6,94.1v8.1h6.6c3.4,0,5-1.4,5.1-4.2c0-2.6-1.7-3.9-5.2-3.9H46.6z M73.9,87.3h13.7
	l-1.9,2.3v28l1.9,2.3H73.9l2-2.5V89.8L73.9,87.3L73.9,87.3z M103.3,87.3h11l16,32.7h-13.6l1.9-2.5l-1.5-3.4h-15.6l-1.7,3.4l1.9,2.5
	H89.9l14.5-30.3L103.3,87.3z M103.7,108.2h10.9l-5.4-11.7L103.7,108.2z M133.5,87.3h20.4c8.3,0,12.5,3.3,12.5,9.9
	c0,5.4-2.5,8.7-7.4,9.9l8.9,12.9h-14.5l2-2.5l-6.2-9.2h-4.3v9.2l2,2.5h-13.5l1.9-2.2V89.5L133.5,87.3L133.5,87.3z M144.9,94.1v8.1
	h6.6c3.4,0,5-1.4,5.1-4.2c0-2.6-1.7-3.9-5.2-3.9H144.9L144.9,94.1z M147,56.5h-28.7v1.3h30.5 M99.4,70.6v1.3c1.3,0,2.6,0,3.9,0
	c21.5,0,43.1,0,64.6,0c-0.6-0.4-1.2-0.9-1.8-1.3H99.4L99.4,70.6z M156.6,63.5h-47.7v1.3h49.6L156.6,63.5z M21,56.5h28.7v1.3H19.1
	 M68.6,70.6v1.3H0.1l1.8-1.3H68.6z M11.4,63.5h47.7v1.3H9.6L11.4,63.5z"/>
</svg>
