<?xml version="1.0" encoding="utf-8"?>
<!-- Generator: Adobe Illustrator 25.1.0, SVG Export Plug-In . SVG Version: 6.00 Build 0)  -->
<svg version="1.1" id="Layer_1" xmlns="http://www.w3.org/2000/svg" xmlns:xlink="http://www.w3.org/1999/xlink" x="0px" y="0px"
	 viewBox="0 0 168 120" style="enable-background:new 0 0 168 120;" xml:space="preserve">
<path style="fill:#636363;" d="M135.9,42.7l-1.6,0c0,0-3.2-0.1-5.3,3.2c-2.5,4.1-2.9,5.5-5.2,14.5c0,0-1.3,5.4-1,9.9
	c0.2,1.9,0.3,3.1,0.3,3.1c1.7,7.6,10.8-4.4,10.8-4.4l1.3,0.9c-5.3,7.2-12.8,10.5-12.8,10.5c-5.5,2.2-6.2-5-6.2-5
	c-0.1-1.8-0.2-3.4-0.1-5c0.1-1.1,0.2-2.4,0.4-3.9c0.7-6.5,4.9-14.9,4.9-14.9c4.9-10.8,12.8-10.5,12.8-10.5h8.3
	c0,0,1.5,21.1-19.3,20.9l-3.8-2.1C135.4,64.6,135.9,42.7,135.9,42.7L135.9,42.7z M154.3,43.4H168v-2.3h-13.1l2.8-11.2l-2,0
	c0,0-5.1,11.2-10.8,11.2l0,2.2h2.5l-8,34c0,0-0.8,2.7,0.9,3.5l12.3-7.9l-1.1-1.2l-2.7,1.8l-1.1,0.6c-0.9-0.4-0.3-2.5-0.3-2.5
	L154.3,43.4z M113.7,46.4l0.4-1.3c0,0,0.8-2.7-0.9-3.5l-9.4,6.3l0.7,1.2l1.4-0.9c0.9,0.4,0.3,2.5,0.3,2.5l-6.9,27.1
	c0,0-0.8,2.7,0.9,3.5l6.6-4.6c-0.9-0.4-0.3-2.5-0.3-2.5l7-26.7c2.2-1.4,4.6-1.9,6.4,0.7l5.7-5.8C122,39.9,117,43,113.7,46.4
	L113.7,46.4z M71.7,74.3l-1.1,0.6c-0.9-0.4-0.3-2.5-0.3-2.5l7.6-30.5h-9.3c0,0-8-0.3-12.8,10.4c0,0-4.2,8.3-4.8,14.7
	c-0.7,6.4-0.4,8.9,0,10.7c0,0,1.1,6.1,5.7,2c5-4.5,8.7-12.2,8.7-12.2l-2.5,10.2c0,0-0.8,2.7,0.9,3.5l9.7-6.6l-0.8-1L71.7,74.3
	L71.7,74.3z M63.1,68.7c-4.6,6.6-5.5,5-6,2c-0.6-3.9,1-9.8,1-9.8c2.3-8.9,2.6-10.3,5.1-14.4c2.1-3.4,5.4-3.2,5.4-3.2l2.3,0
	C70.9,43.4,66.2,64.1,63.1,68.7z M93.7,41.9c0,0-8.1-0.3-12.9,10.4c0,0-4.2,8.3-4.9,14.7c-0.7,6.4-0.4,8.9,0.1,10.7
	c0,0,1.2,6.1,5.7,2c5-4.5,8.6-12.2,8.6-12.2l-3.6,14c0,0-5.7,27.7-24.1,24.2c-10.4-2-11.4-8-11.4-8l-3.1,2.1c1.5,1.1,4.5,4.9,13,6.8
	c13.7,3.1,22.4-4.3,27.2-12.4c3.8-5.9,5.9-17,5.9-17l8.9-35.4H93.7L93.7,41.9z M88.2,68.7c-4.6,6.6-5.6,5-6,2c-0.6-3.9,1-9.8,1-9.8
	c2.3-8.9,2.6-10.3,5.1-14.4c2.1-3.4,5.5-3.2,5.5-3.2l2.3,0C96.1,43.4,91.4,64.1,88.2,68.7L88.2,68.7z M55.3,34.3
	c3.1-7.7,9.9-22.8,22.3-19.9c10.3,2.4,11.2,8.3,11.2,8.3l3.2-2c-1.4-1.1-4.4-5-12.8-7.1c-12.2-3.1-21.6,3.3-26.9,11.6
	c-0.9,1.3-1.9,2.8-2.6,4.4L47,34.1l-4.2,9l-6.9,14.3c-1.7,3.6-3.5,6.8-4.9,9.1l8.9-32.2c0,0,5.3-18,6.9-19c-3.5,0-6.6,3.3-6.6,3.3
	c-4.1,4.7-5.6,8.8-5.6,8.8l-3.1,6.7l-4.2,9l-6.9,14.3c-3.6,7.4-7.1,13-7.1,13C6.7,79.4,0,79.8,0,79.8v5c0,0,7.4-1.6,14.8-13.2
	c0,0,3.8-5.5,7.3-12.9l9.3-19c0,0,0.2-0.4,0.6-0.2c0,0,0.4,0.1,0.2,0.5l-7.6,26.8c-0.4,1.7-1,4.8-1,8.9c0,0,0,4.4,2.6,6.7l20.7-42.6
	c0,0,0.2-0.4,0.6-0.2c0,0,0.4,0.1,0.2,0.5c0,0-4.6,14.1-6.2,20.6C39.8,67,38,77.1,37.9,78.9c-0.1,1.8-0.8,2.7,0.9,3.5l9.8-7.1
	L48,74.4l-1.2,0.8l-1,0.6c-1.1-0.2-0.7-2.5-0.7-2.5C45.7,66.5,50.9,44.9,55.3,34.3L55.3,34.3z"/>
</svg>
