<?xml version="1.0" encoding="utf-8"?>
<!-- Generator: Adobe Illustrator 25.1.0, SVG Export Plug-In . SVG Version: 6.00 Build 0)  -->
<svg version="1.1" id="Layer_1" xmlns="http://www.w3.org/2000/svg" xmlns:xlink="http://www.w3.org/1999/xlink" x="0px" y="0px"
	 viewBox="0 0 168 120" style="enable-background:new 0 0 168 120;" xml:space="preserve">
<path style="fill:#262626;" d="M37.6,79.4c0.9,2.4,1.7,4.8,2.6,7.1c0,0,0,0,0,0.1c-2.3,0-4.5,0-6.8,0c-0.5-1.5-1.1-3.1-1.6-4.7
	c-3.3,0-6.6,0-9.9,0c-0.5,1.6-1.1,3.1-1.6,4.7c-2.3,0-4.6,0-6.9,0c0-0.1,0.1-0.2,0.1-0.3c0.9-2.4,1.8-4.9,2.6-7.3
	c0.9-2.5,1.8-5,2.7-7.5c0.7-2.1,1.5-4.1,2.2-6.2c0.2-0.7,0.4-1.3,0.7-1.9c0.9-1.9,2.4-3,4.5-3.3c0.2,0,0.5,0,0.8,0
	c1.2,0,2.3,0,3.5,0c0.1,0.3,0.2,0.6,0.3,0.9c0.6,1.7,1.2,3.3,1.8,5c0.8,2.2,1.6,4.4,2.4,6.6C35.9,74.8,36.8,77.1,37.6,79.4z
	 M28.6,72.5c-0.6-1.7-1.2-3.5-1.7-5.2c0,0,0,0-0.1,0c-1.1,3.2-2.2,6.4-3.3,9.6c2.2,0,4.3,0,6.5,0C29.6,75.4,29.1,74,28.6,72.5z
	 M98.8,65.1c0.3,0.7,0.4,1.5,0.4,2.3c0,0.9,0,1.8,0,2.8c0.1-0.1,0.1-0.1,0.1-0.1c1-1.4,2.4-2.2,4.1-2.5c1.4-0.3,2.8-0.2,4.2,0.3
	c1.5,0.5,2.8,1.4,3.8,2.7c1.1,1.4,1.7,3,1.9,4.8c0.1,0.8,0.1,1.6,0.1,2.4c-0.1,2.4-0.7,4.6-2.3,6.5c-1.2,1.4-2.8,2.3-4.7,2.6
	c-1.5,0.2-3,0.1-4.5-0.5c-1-0.4-1.9-1.1-2.5-2c-0.1-0.1-0.1-0.1-0.2-0.3c0,0.9,0,1.7,0,2.5c-0.3,0.1-5.3,0.1-5.8,0
	c0-8.3,0-16.7,0-25C95.2,61.4,97.7,62.6,98.8,65.1z M99.2,76.2c-0.1,0.7-0.1,1.4,0,2.2c0.4,2.1,2.2,3.5,4.1,3.5
	c1.7,0,3.2-1.1,3.7-2.5c0.5-1.3,0.6-2.7,0.1-4c-0.7-2.2-3-3.2-5.1-2.5C100.4,73.2,99.5,74.4,99.2,76.2z M85.5,80.3
	c1.5,0,2.9,0,4.4,0c-0.1,0.5-0.3,1-0.5,1.4c-0.6,1.4-1.6,2.6-2.9,3.5c-1.1,0.8-2.4,1.3-3.7,1.5c-1,0.2-2,0.2-3,0.1
	c-2.1-0.2-4-0.9-5.6-2.3c-1.3-1.2-2.2-2.7-2.6-4.5c-0.3-1.2-0.4-2.4-0.3-3.6c0.1-1.7,0.5-3.3,1.3-4.7c1.1-1.9,2.8-3.2,5-3.9
	c1.4-0.4,2.8-0.5,4.3-0.4c1.9,0.1,3.7,0.7,5.2,2c1.6,1.3,2.6,3,3,4.9c0.2,1,0.3,2,0.3,3c0,0.4-0.1,0.8-0.1,1.2c-4.4,0-8.8,0-13.1,0
	c0,1.6,0.9,2.8,2.1,3.3c1.1,0.4,2.2,0.4,3.3-0.2c0.5-0.3,0.8-0.7,1-1.1c0.1-0.2,0.2-0.2,0.4-0.2C84.4,80.3,84.9,80.3,85.5,80.3z
	 M82.2,75.3c0.4,0,0.7,0,1.1,0c0.4,0,0.7,0,1.1,0c0-0.1,0-0.2,0-0.3c0-0.1,0-0.1,0-0.2c-0.1-1.1-0.8-1.9-1.8-2.4
	c-0.8-0.4-1.6-0.4-2.4-0.3c-1,0.2-1.8,0.6-2.4,1.5c-0.3,0.5-0.6,1.1-0.6,1.7C78.8,75.3,80.4,75.3,82.2,75.3z M136.3,78.1
	c0-0.6,0-1.1,0-1.6c0.1-2.3,0.8-4.4,2.4-6.2c1.1-1.2,2.5-2,4-2.4c1.4-0.4,2.8-0.5,4.2-0.4c1.6,0.1,3.1,0.6,4.5,1.4
	c1.2,0.8,2.1,1.7,2.8,3c0.7,1.3,1.1,2.7,1.2,4.2c0,0.7,0,1.4,0,2.1c0,0.1,0,0.2-0.1,0.4c-4.4,0-8.7,0-13.1,0c0,1.5,0.8,2.8,2.1,3.3
	c1,0.4,2.1,0.4,3.1-0.1c0.5-0.3,0.9-0.7,1.2-1.2c0.1-0.2,0.3-0.3,0.5-0.3c1.8,0,3.7,0,5.5,0c0.1,0,0.2,0,0.4,0
	c-0.1,0.2-0.1,0.5-0.2,0.7c-0.7,2.1-2,3.6-4,4.7c-1.1,0.6-2.3,1-3.6,1.1c-1.8,0.2-3.5,0-5.2-0.6c-2-0.7-3.5-2-4.5-3.8
	c-0.6-1.1-1-2.2-1.1-3.4C136.4,78.7,136.3,78.4,136.3,78.1z M147.5,72.4c-0.6-0.3-1.2-0.3-1.8-0.3c-1.1,0-2,0.4-2.7,1.3
	c-0.4,0.5-0.7,1.2-0.8,1.9c2.4,0,4.8,0,7.2,0C149.4,73.8,148.6,72.9,147.5,72.4z M118.8,85c-1.7-1.3-2.8-3.1-3.3-5.2
	c-0.3-1.1-0.3-2.3-0.3-3.4c0.1-1.4,0.4-2.8,1-4c0.9-1.9,2.3-3.3,4.3-4.2c1.2-0.5,2.4-0.8,3.7-0.8c1.1-0.1,2.3,0,3.4,0.3
	c1.5,0.4,2.9,1.1,4.1,2.2c1.1,1.1,1.9,2.4,2.3,3.8c0.2,0.7,0.3,1.4,0.4,2.2c0,0.4,0,0.8,0,1.2c0,0.4,0,0.8-0.1,1.3
	c0,0.1,0,0.1-0.1,0.2c-4.4,0-8.7,0-13.1,0c0,0.3,0,0.6,0.1,0.9c0.4,1.4,1.2,2.3,2.6,2.6c1.1,0.2,2.1,0.1,3-0.7
	c0.3-0.3,0.6-0.7,0.9-1.1c2,0,4.1,0,6.2,0c-0.1,0.2-0.1,0.4-0.2,0.6c-0.4,1.3-1.1,2.4-2.1,3.3c-1.3,1.3-2.8,2.1-4.6,2.4
	c-1,0.2-2,0.3-3,0.2C122.2,86.7,120.4,86.2,118.8,85z M124.3,72.1c-0.1,0-0.2,0-0.3,0.1c-1,0.2-1.8,0.7-2.3,1.6
	c-0.3,0.5-0.5,1-0.5,1.5c2.4,0,4.8,0,7.2,0c0-0.2,0-0.3-0.1-0.4c-0.1-0.9-0.5-1.6-1.3-2.1C126.3,72.2,125.4,72,124.3,72.1z
	 M168,69.5c0,1.7-1.2,2.9-3.1,3.1c0,2.3,0,4.7,0,7c0,2.3,0,4.7,0,7c-2,0-3.9,0-5.8,0c0-4.7,0-9.4,0-14.1c-0.7,0-1.4,0-2.1,0
	c0-1.6,0-3.2,0-4.9c0.7,0,1.3,0,2.1,0c0-0.2,0-0.4,0-0.6c0-0.9,0.1-1.8,0.4-2.6c0.6-1.9,1.9-3.2,3.8-3.9c0.8-0.3,1.7-0.5,2.6-0.5
	c0.6,0,1.1,0,1.7,0c0.1,0,0.2,0,0.4,0c0,1.6,0,3.3,0,4.9c-0.2,0-0.3,0-0.5,0c-0.4,0-0.8,0-1.2,0.1c-0.6,0.1-1.1,0.5-1.2,1.2
	c-0.1,0.4-0.2,0.9-0.2,1.3c1.1,0,2.1,0,3.2,0C168,68.3,168,68.9,168,69.5z M49.5,70c0.7-0.8,1.4-1.4,2.3-1.9
	c0.8-0.4,1.6-0.7,2.5-0.7c0.2,0,0.4,0,0.6-0.1c0.1,0.3,0.1,4.8,0.1,6.1c-0.1,0-0.2,0-0.3,0c-0.5,0-0.9,0-1.4,0
	c-0.6,0-1.2,0.1-1.8,0.2c-1.4,0.4-2.2,1.2-2.4,2.7c-0.1,0.5-0.1,1-0.1,1.5c0,2.7,0,5.4,0,8.2c0,0.1,0,0.2,0,0.4c-2,0-3.9,0-5.8,0
	c-0.1-0.3-0.1-17.7,0-18.9c0.1,0,0.2,0,0.3,0c0.8,0,1.6,0,2.4,0c1.8,0,3.1,1.4,3.1,3c0,0,0,0,0,0.1C49.2,70.4,49.4,70.3,49.5,70z
	 M63.6,81.4c0,1.7,0,3.4,0,5.1c-2,0-3.9,0-5.8,0c0-6.3,0-12.6,0-18.9c0.1,0,0.2,0,0.3,0c0.8,0,1.5,0,2.3,0c1.2,0,2.2,0.5,2.8,1.6
	c0.2,0.4,0.4,0.8,0.4,1.3c0,0.1,0,0.1,0,0.2c1.5-2,3.4-3.2,5.9-3.2c0,2.1,0,4.1,0,6.2c-0.1,0-0.2,0-0.3,0c-0.7,0-1.4,0-2.1,0
	c-0.6,0-1.2,0.2-1.7,0.4c-0.9,0.4-1.4,1.1-1.6,2c-0.1,0.5-0.2,1.1-0.2,1.6C63.6,78.9,63.6,80.1,63.6,81.4z M13,43.6
	c-1-0.5-2-1.2-2.8-1.9c-1.4-1.3-2.6-2.8-3.3-4.5c-0.4-0.8-0.6-1.6-0.8-2.4c0-0.1,0-0.1,0-0.2c0.8-0.6,3.4-1.4,5-1.5
	c0.6,2.8,2.1,4.9,4.7,6.1c2.6,1.2,5.2,1,7.7-0.3c1,1.4,1.7,3,2.1,4.7C22.5,45.2,17.5,45.9,13,43.6z M7.4,55c-0.6,1-1.4,2-2.3,2.8
	c-1.2-0.7-2.9-2.2-3.8-3.5c2.1-1.9,3.1-4.2,2.8-7c-0.3-2.8-1.7-4.9-4.1-6.4c0.7-1.6,1.7-3,3-4.2C8.8,40.1,11.4,48.2,7.4,55z
	 M25.6,48.1c-0.1,1.1-0.4,2.1-0.8,3.1c-0.1,0.3-0.3,0.6-0.4,1c-2.6-0.8-5.1-0.5-7.4,1.1c-2.3,1.6-3.4,3.8-3.6,6.5
	c-0.8,0.2-3.4,0.1-5.1-0.4c-0.1-2.6,1.4-7,5.1-9.8c3.9-3.1,8.8-3.4,12.2-2.3C25.7,47.5,25.7,47.8,25.6,48.1z"/>
</svg>
