<?xml version="1.0" encoding="utf-8"?>
<!-- Generator: Adobe Illustrator 25.1.0, SVG Export Plug-In . SVG Version: 6.00 Build 0)  -->
<svg version="1.1" id="Layer_1" xmlns="http://www.w3.org/2000/svg" xmlns:xlink="http://www.w3.org/1999/xlink" x="0px" y="0px"
	 viewBox="0 0 248 108" style="enable-background:new 0 0 248 108;" xml:space="preserve">
<path style="fill:#586440;" d="M247.7,64.9h-11.5V1.4h-4.4h-16h-0.3l-42.4,67.1l1,12.8h41.7v22.1h20.4V81.3h11.5V64.9z M193.3,64.9
	l21.1-33.5l1.3-2.3v35.8H193.3z M63.4,1.4H59H43h-0.3L0.3,68.5l1,12.8H43v22.1h20.4V81.3h11.5V64.9H63.4V1.4z M20.6,64.9l21.1-33.5
	l1.3-2.3v35.8H20.6z M153.8,47.2c-1-0.5-2.3-0.1-2.8,1c-0.4,0.7-0.7,1.5-1,2.2c-3.4,7.4-5,15.3-5.3,23.5c0,0.9,0.3,11.9,0,11.9
	c-1.3,0-2.5-0.8-3-2c-1.9-4.8-3.8-9.6-5.1-14.7c-2.1-7.9-3.1-16.7-0.4-24.7c1.2-3.4,2.5-6.5,3.2-10.1c0.1-0.3,0.1-0.6,0.2-0.9
	c0.3-2.3,0.1-5.4-1.7-7.1c-0.4-0.4-0.9-0.6-1.4-0.9c-0.4-0.2-0.7-0.6-0.7-1.1c0,0,0-0.1,0-0.1v0c1,0,1.9,0.1,2.6,0.2
	c3.6,0.5,9.7,2.3,14.6,9.1c0.1,0.2,0.2,0.3,0.3,0.5c0.2,0.4,0.7,0.5,1,0.3c2.6-1.4,4.7-3.6,7.5-4.7c0,0,0.1,0,0.1,0
	c-0.7-3.9-1.8-7.4-3.2-10.5c-2.9-6.6-7-11.4-12.3-14.5C141.2,1.5,135.1,0,128.2,0c-7,0-13.1,1.5-18.3,4.6
	c-5.3,3.1-9.4,7.9-12.3,14.5c-1.5,3.5-2.6,7.5-3.4,12c1.6,1.1,3,2.3,4.7,3.2c0.4,0.2,0.8,0.1,1-0.3c0.1-0.2,0.2-0.3,0.3-0.5
	c4.9-6.8,11-8.6,14.6-9.1c0.7-0.1,1.7-0.2,2.6-0.2v0.1c0,0.5-0.3,0.9-0.7,1.1c-0.5,0.3-1,0.5-1.4,0.9c-1.8,1.7-2,4.7-1.7,7.1
	c0,0.3,0.1,0.6,0.2,0.9c0.7,3.6,2,6.6,3.2,10.1c2.7,8,1.7,16.8-0.4,24.7c-1.3,5.1-3.3,9.8-5.1,14.7c-0.5,1.3-1.7,2.1-3,2
	c-0.3,0,0-11,0-11.9c-0.3-8.2-1.9-16.1-5.3-23.5c-0.3-0.7-0.7-1.5-1-2.2c-0.5-1.1-1.8-1.5-2.8-1c-2.2,1.1-4,2-6.2,2.4V63
	c0,10.5,1.5,19.1,4.4,25.8c2.9,6.6,7,11.5,12.3,14.6c5.3,3.1,11.4,4.6,18.4,4.6c6.9,0,13-1.5,18.2-4.6c5.3-3.1,9.3-8,12.2-14.6
	c2.9-6.6,4.4-15.2,4.4-25.8V49.9c-0.6,0-1.3,0-1.9-0.1C158.4,49.5,156.3,48.5,153.8,47.2z M138.9,100.1c-2.3,3.1-5.3,4.3-9,3.2
	c-1.8-0.6-3.5-0.6-5.3,0c-3.7,1.1-6.9-0.1-9.1-3.2c-0.7-1-1.4-2.1-0.8-3.4c0.6-1.3,2-1.1,3.2-1l2.9,0.5c0.7,0.1,1.4,0,1.6-0.8
	c0.2-0.9-0.6-1-1.1-1.2c-0.7-0.2-1.4-0.4-2-0.8c-0.8-0.6-1.6-1.3-2.2-2.2c-0.6-1-0.9-2.2-0.2-3.3c0.7-1.1,1.9-0.9,3-0.6
	c1.7,0.4,3.4,0.8,5.1,1.3c1.6,0.5,3.2,0.5,4.9,0c1.8-0.5,3.5-1,5.3-1.4c2.4-0.5,3.4,0.7,2.8,3.1c-0.3,1.3-1,2.3-2.2,2.9
	c-0.9,0.4-1.8,0.6-2.6,1.1c-0.4,0.2-0.9,0.5-0.8,1.1c0.1,0.4,0.4,1,1.3,0.7c0.9-0.1,1.8-0.5,2.8-0.6c1.3-0.2,2.8-0.3,3.5,1.1
	C140.5,97.9,139.6,99.1,138.9,100.1z M93.3,44.8v4.9c-0.4,0.1-0.8,0.2-1.3,0.2c-0.8,0.1-1.6,0.1-2.4,0.1c-5.1-0.3-9.1-3.6-12.5-7.6
	c-1.9-2.2-4-5.5-2.1-8.4l0.2-0.3c1.7-2.3,4.7-3.1,7.3-3.8c2.9-0.8,6.2-1.2,9.1-0.1c1,0.4,1.9,0.9,2.8,1.5
	C93.6,35.3,93.3,39.8,93.3,44.8z M163.7,49.9c-0.2,0-0.3,0-0.5,0v-5.2c0-5.6-0.4-10.6-1.3-15.1c2.8-1,6.1-0.6,8.9,0.2
	c2.5,0.7,5.2,1.4,6.9,3.4l0.3,0.4c2.2,2.9,0.1,6.3-1.9,8.6C172.8,46.3,168.8,49.6,163.7,49.9z"/>
</svg>
